<svg xmlns="http://www.w3.org/2000/svg">
<defs>
<font id="GTWalsheim" horiz-adv-x="1157" >
  <font-face 
    font-family="GT Walsheim"
    font-weight="400"
    font-stretch="normal"
    units-per-em="2048"
    panose-1="2 0 5 3 2 0 0 2 0 3"
    ascent="1622"
    descent="-426"
    x-height="930"
    cap-height="1434"
    bbox="-297 -524.001 2470 2007"
    underline-thickness="102"
    underline-position="-102"
    unicode-range="U+000D-U+FB02"
  />
<missing-glyph horiz-adv-x="1482" 
d="M82 674c0 19.333 0.665039 39.4971 1.99805 60.4971s3.33301 40.333 6 58s6.83398 32.334 12.501 44.001s12.5 17.5 20.5 17.5c5.33301 0 10.666 -2.33301 15.999 -7s10.5 -10.167 15.5 -16.5l13.5 -16.5c4 -4.66699 7.33301 -7 10 -7
c1.33301 0 2.66602 15.333 3.99902 46s6.5 69.167 15.5 115.5s24 96.833 45 151.5s52.333 105.167 94 151.5s95 85 160 116s146.5 46.5 244.5 46.5s179.5 -15.5 244.5 -46.5s118.333 -69.667 160 -116s73.167 -96.833 94.5 -151.5s36.333 -105.167 45 -151.5
s13.834 -84.833 15.501 -115.5s3.16699 -46 4.5 -46c2.66699 0 6 2.33301 10 7s8.33301 10.167 13 16.5s9.83398 11.833 15.501 16.5s11.167 7 16.5 7c8 0 14.833 -6.5 20.5 -19.5s10.167 -28.667 13.5 -47s5.33301 -37.833 6 -58.5s1 -39 1 -55
c0 -9.33301 -0.333008 -23.666 -1 -42.999s-2.66699 -38.833 -6 -58.5s-8.16602 -36.667 -14.499 -51s-14.833 -21.5 -25.5 -21.5s-19.167 4 -25.5 12s-10.166 13.333 -11.499 16c-6.66699 -27.333 -15.167 -59 -25.5 -95s-24.333 -73.833 -42 -113.5
s-40.167 -78.667 -67.5 -117s-61.166 -72.5 -101.499 -102.5s-88.5 -54.167 -144.5 -72.5s-121 -27.5 -195 -27.5c-108 0 -196.333 18.5 -265 55.5s-123.834 82.667 -165.501 137s-73.167 112 -94.5 173s-38 115.833 -50 164.5c-2.66699 -5.33301 -6 -10.666 -10 -15.999
c-6.66699 -9.33301 -15.667 -14 -27 -14c-10.667 0 -19.5 7.16699 -26.5 21.5s-11.833 31.333 -14.5 51s-4.33398 39 -5.00098 58s-1 33.5 -1 43.5zM300.998 787.997c13.333 -18 29 -33.668 47 -47.001c15.333 -12 34.5 -22.833 57.5 -32.5s48.833 -14.5 77.5 -14.5

<glyph glyph-name=".notdef" horiz-adv-x="1482" 
d="M82 674c0 19.333 0.665039 39.4971 1.99805 60.4971s3.33301 40.333 6 58s6.83398 32.334 12.501 44.001s12.5 17.5 20.5 17.5c5.33301 0 10.666 -2.33301 15.999 -7s10.5 -10.167 15.5 -16.5l13.5 -16.5c4 -4.66699 7.33301 -7 10 -7
c1.33301 0 2.66602 15.333 3.99902 46s6.5 69.167 15.5 115.5s24 96.833 45 151.5s52.333 105.167 94 151.5s95 85 160 116s146.5 46.5 244.5 46.5s179.5 -15.5 244.5 -46.5s118.333 -69.667 160 -116s73.167 -96.833 94.5 -151.5s36.333 -105.167 45 -151.5
s13.834 -84.833 15.501 -115.5s3.16699 -46 4.5 -46c2.66699 0 6 2.33301 10 7s8.33301 10.167 13 16.5s9.83398 11.833 15.501 16.5s11.167 7 16.5 7c8 0 14.833 -6.5 20.5 -19.5s10.167 -28.667 13.5 -47s5.33301 -37.833 6 -58.5s1 -39 1 -55
c0 -9.33301 -0.333008 -23.666 -1 -42.999s-2.66699 -38.833 -6 -58.5s-8.16602 -36.667 -14.499 -51s-14.833 -21.5 -25.5 -21.5s-19.167 4 -25.5 12s-10.166 13.333 -11.499 16c-6.66699 -27.333 -15.167 -59 -25.5 -95s-24.333 -73.833 -42 -113.5
s-40.167 -78.667 -67.5 -117s-61.166 -72.5 -101.499 -102.5s-88.5 -54.167 -144.5 -72.5s-121 -27.5 -195 -27.5c-108 0 -196.333 18.5 -265 55.5s-123.834 82.667 -165.501 137s-73.167 112 -94.5 173s-38 115.833 -50 164.5c-2.66699 -5.33301 -6 -10.666 -10 -15.999
c-6.66699 -9.33301 -15.667 -14 -27 -14c-10.667 0 -19.5 7.16699 -26.5 21.5s-11.833 31.333 -14.5 51s-4.33398 39 -5.00098 58s-1 33.5 -1 43.5zM300.998 787.997c13.333 -18 29 -33.668 47 -47.001c15.333 -12 34.5 -22.833 57.5 -32.5s48.833 -14.5 77.5 -14.5
c34 0 62.333 6.83301 85 20.5s41.667 28.834 57 45.501c16.667 19.333 29.667 41 39 65c-6.66699 9.33301 -15.667 19 -27 29c-9.33301 8 -21.166 16.5 -35.499 25.5s-32.5 16.833 -54.5 23.5c10.667 -9.33301 20.167 -21.166 28.5 -35.499s12.5 -30.5 12.5 -48.5
c0 -28.667 -10 -52.834 -30 -72.501s-45 -29.5 -75 -29.5c-27.333 0 -51.5 9.16699 -72.5 27.5s-31.5 45.833 -31.5 82.5c0 10.667 1.66699 22 5 34s10.666 22.667 21.999 32c-19.333 -6.66699 -35.833 -15.834 -49.5 -27.501s-24.5 -23.167 -32.5 -34.5
c-9.33301 -13.333 -17 -27.666 -23 -42.999zM450.998 376.996c8 -39.333 24.3359 -74.333 49.0029 -105c20.667 -27.333 51 -51.5 91 -72.5s95.667 -31.5 167 -31.5c69.333 0 122.833 10.833 160.5 32.5s63.667 45.5 78 71.5s20.166 50 17.499 72s-8.33398 33 -17.001 33
c-5.33301 0 -16.833 2.66699 -34.5 8s-27.834 8.66602 -30.501 9.99902c6.66699 10.667 12 23 16 37s6 27 6 39c0 8 -1 18.5 -3 31.5s-5.33301 25.667 -10 38s-10.5 23 -17.5 32s-15.167 13.5 -24.5 13.5c-5.33301 0 -11.166 -2.16699 -17.499 -6.5s-9.5 -11.833 -9.5 -22.5
c0 -4 0.333008 -6.33301 1 -7s2 -2.33398 4 -5.00098c6.66699 -8 12 -16.167 16 -24.5s6 -22.166 6 -41.499c0 -26 -4.66699 -47.667 -14 -65l-66 30.5c-20.667 9.66699 -46.667 14.5 -78 14.5s-57.833 -4.83301 -79.5 -14.5s-42.834 -19.834 -63.501 -30.501
c-9.33301 18 -14 39.667 -14 65c0 13.333 1.33301 25.166 4 35.499s8 20.5 16 30.5c4 1.33301 6 6 6 14c0 18 -8.66699 27 -26 27c-9.33301 0 -17.5 -4.5 -24.5 -13.5s-12.833 -19.667 -17.5 -32s-8.16699 -25.666 -10.5 -39.999s-3.5 -26.166 -3.5 -35.499
s1.5 -20.5 4.5 -33.5s7.83301 -25.167 14.5 -36.5c-13.333 -5.33301 -28 -9.66602 -44 -12.999s-33.333 -5 -52 -5zM817.001 824.996c9.33301 -24.667 22.333 -46.332 39 -64.999c15.333 -16.667 34.166 -31.834 56.499 -45.501s51.166 -20.5 86.499 -20.5
c28.667 0 54.334 4.83301 77.001 14.5s41.667 20.5 57 32.5c18 13.333 34.333 29 49 47c-6.66699 15.333 -15 29.666 -25 42.999c-8 10.667 -18.833 22.334 -32.5 35.001s-30.167 22.334 -49.5 29.001c19.333 -19.333 29 -44 29 -74c0 -31.333 -10 -56.5 -30 -75.5
s-45 -28.5 -75 -28.5s-54.833 9.83301 -74.5 29.5s-29.5 43.834 -29.5 72.501c0 12 2.33301 25 7 39s12.667 25.667 24 35c-19.333 -6.66699 -36.166 -13.834 -50.499 -21.501s-25.5 -14.834 -33.5 -21.501c-10.667 -8 -19 -16.333 -25 -25z" />
    <glyph glyph-name=".null" horiz-adv-x="0" 
 />
    <glyph glyph-name=".null" horiz-adv-x="0" 
 />
    <glyph glyph-name="nonmarkingreturn" unicode="&#xd;" horiz-adv-x="512" 
 />
    <glyph glyph-name="space" unicode=" " horiz-adv-x="518" 
 />
    <glyph glyph-name="exclam" unicode="!" horiz-adv-x="606" 
d="M154 123c0 40.667 14.3311 75.334 42.998 104.001s64 43 106 43c40.667 0 75.834 -14.333 105.501 -43s44.5 -63.334 44.5 -104.001s-14.667 -76.167 -44 -106.5s-64.666 -45.5 -105.999 -45.5c-42 0 -77.333 15.167 -106 45.5s-43 65.833 -43 106.5zM206.998 436v1006
h192v-1006h-192z" />
    <glyph glyph-name="quotedbl" unicode="&#x22;" horiz-adv-x="724" 
d="M123 1272v196h168v-196l-39 -318h-88zM434 1272v196h168v-196l-39 -318h-90z" />
    <glyph glyph-name="numbersign" unicode="#" horiz-adv-x="1126" 
d="M59 428v139h215l41 299h-194v140h215l59 428h148l-60 -428h258l60 428h147l-59 -428h178v-140h-199l-41 -299h179v-139h-199l-59 -428h-146l60 428h-261l-59 -428h-145l59 428h-197zM422 567h258l41 299h-258z" />
    <glyph glyph-name="dollar" unicode="$" horiz-adv-x="1280" 
d="M152 457l186.001 0.00292969c0 -98 29.667 -176.167 89 -234.5s136.666 -87.5 231.999 -87.5c86 0 155.333 22.5 208 67.5s79 105.833 79 182.5c0 42 -8.16699 77 -24.5 105s-37.5 51.333 -63.5 70s-55.333 34.167 -88 46.5s-64.667 23.166 -96 32.499
c-64 19.333 -124.333 40.166 -181 62.499s-106.5 49.5 -149.5 81.5s-77.167 71 -102.5 117s-38 103 -38 171c0 110.667 33.333 198.5 100 263.5s154 106.167 262 123.5v217h166v-217c109.333 -16.667 197.833 -62.834 265.5 -138.501s102.167 -172.834 103.5 -291.501h-187
c-2.66699 86 -27.5 152.5 -74.5 199.5s-111.5 70.5 -193.5 70.5c-74 0 -135.167 -19 -183.5 -57s-72.5 -92 -72.5 -162c0 -36.667 7.16699 -68 21.5 -94s33.833 -48.167 58.5 -66.5s53 -34 85 -47s65.667 -24.833 101 -35.5c58.667 -19.333 116.667 -39.666 174 -60.999
s108.666 -48.333 153.999 -81s81.666 -72.834 108.999 -120.501s41 -107.167 41 -178.5c0 -58.667 -9.66699 -112.167 -29 -160.5s-46.666 -90.666 -81.999 -126.999s-77.666 -66 -126.999 -89s-104 -38.167 -164 -45.5v-215h-166v217c-60 8 -115.167 24.667 -165.5 50
s-94 58.833 -131 100.5s-65.667 90.167 -86 145.5s-30.5 117.333 -30.5 186z" />
    <glyph glyph-name="percent" unicode="%" horiz-adv-x="1884" 
d="M131 901v276.994c0 36.667 6.83301 71.334 20.5 104.001s32.834 61.334 57.501 86.001s54.667 44.167 90 58.5s75 21.5 119 21.5c45.333 0 85.666 -7.16699 120.999 -21.5s65.333 -34.166 90 -59.499s43.834 -54.666 57.501 -87.999s20.5 -68.333 20.5 -105v-277
c0 -36.667 -6.83301 -71.5 -20.5 -104.5s-33.167 -61.667 -58.5 -86s-55.833 -43.666 -91.5 -57.999s-75.167 -21.5 -118.5 -21.5c-44 0 -83.667 7.5 -119 22.5s-65.333 34.667 -90 59s-43.834 53.333 -57.501 87s-20.5 68.834 -20.5 105.501zM276 900.994
c0 -40.667 12.999 -75.667 38.999 -105s61 -44 105 -44s78.5 14.667 103.5 44s37.5 64.333 37.5 105v273c0 40.667 -12.667 76 -38 106s-59.666 45 -102.999 45c-44 0 -79 -15 -105 -45s-39 -65.333 -39 -106v-273zM405.999 -12.0059l894 1542l144 -82l-897 -1542z
M1178 257.994l-0.00195312 276.993c0 36.667 6.83301 71.334 20.5 104.001s32.667 61.334 57 86.001s54.333 44.167 90 58.5s75.167 21.5 118.5 21.5c45.333 0 85.666 -7.16699 120.999 -21.5s65.333 -34.166 90 -59.499s43.834 -54.666 57.501 -87.999
s20.5 -68.666 20.5 -105.999v-276c0 -36.667 -6.83301 -71.5 -20.5 -104.5s-33.167 -61.667 -58.5 -86s-55.666 -43.666 -90.999 -57.999s-75 -21.5 -119 -21.5s-83.667 7.5 -119 22.5s-65.166 34.667 -89.499 59s-43.333 53.333 -57 87s-20.5 68.834 -20.5 105.501z
M1323 257.987c0 -40.667 13 -75.667 39 -105s60.667 -44 104 -44c44 0 78.667 14.667 104 44s38 64.333 38 105v272c0 40.667 -12.667 76.167 -38 106.5s-60 45.5 -104 45.5s-78.833 -15 -104.5 -45s-38.5 -65.667 -38.5 -107v-272z" />
    <glyph glyph-name="ampersand" unicode="&#x26;" horiz-adv-x="1226" 
d="M96 412c0 84.667 21.8281 153.167 65.4951 205.5s106.5 95.833 188.5 130.5c-70.667 27.333 -125.5 67.166 -164.5 119.499s-58.5 117.5 -58.5 195.5c0 61.333 12 116.166 36 164.499s56 89.333 96 123s87 59.667 141 78s111 27.5 171 27.5
c65.333 0 125.5 -10.167 180.5 -30.5s102.167 -49.666 141.5 -87.999s70 -83.833 92 -136.5s33 -110.334 33 -173.001h-187c0 78 -21.5 140.833 -64.5 188.5s-109.5 71.5 -199.5 71.5c-75.333 0 -136.166 -18.667 -182.499 -56s-69.5 -93.666 -69.5 -168.999
c0 -31.333 4.83301 -61 14.5 -89s25.167 -52.667 46.5 -74s49.333 -38.166 84 -50.499s77.334 -18.5 128.001 -18.5h30v-165h-30c-53.333 0 -99.166 -6.83301 -137.499 -20.5s-70.166 -32.5 -95.499 -56.5s-43.666 -51.667 -54.999 -83s-17 -64 -17 -98
c0 -42 7.83301 -79.167 23.5 -111.5s36.834 -59.833 63.501 -82.5s57.334 -39.834 92.001 -51.501s71.667 -17.5 111 -17.5c48 0 90.833 8.33301 128.5 25s69.167 40 94.5 70s44.666 65.5 57.999 106.5s20 85.167 20 132.5h-167v166h477v-166h-123
c0 -76.667 -12.667 -146 -38 -208s-59.5 -114.833 -102.5 -158.5s-93.833 -77.167 -152.5 -100.5s-122 -35 -190 -35c-64 0 -125.167 10.333 -183.5 31s-109.333 49.834 -153 87.501s-78.834 83 -105.501 136s-40 113.167 -40 180.5z" />
    <glyph glyph-name="quotesingle" unicode="'" horiz-adv-x="413" 
d="M123 1272v196h168v-196l-39 -318h-88z" />
    <glyph glyph-name="parenleft" unicode="(" horiz-adv-x="753" 
d="M209 -8l-0.00195312 1147c0 65.333 11.667 127.666 35 186.999s56.166 111.166 98.499 155.499s93.5 79.5 153.5 105.5s126.667 39 200 39v-168c-45.333 0 -86.666 -8.5 -123.999 -25.5s-69 -39.833 -95 -68.5s-46.167 -62.5 -60.5 -101.5s-21.5 -80.167 -21.5 -123.5
v-1147c0 -44 7.16699 -85.333 21.5 -124s34.5 -72.334 60.5 -101.001s57.833 -51.667 95.5 -69s78.834 -26 123.501 -26v-168c-74 0 -140.833 13 -200.5 39s-110.667 61.167 -153 105.5s-75.166 96.333 -98.499 156s-35 122.167 -35 187.5z" />
    <glyph glyph-name="parenright" unicode=")" horiz-adv-x="753" 
d="M57 -328c45.333 0 86.833 8.66309 124.5 25.9961s69.334 40.333 95.001 69s45.667 62.334 60 101.001s21.5 80 21.5 124v1147c0 44 -7.16699 85.333 -21.5 124s-34.333 72.334 -60 101.001s-57.334 51.5 -95.001 68.5s-79.167 25.5 -124.5 25.5v168c74 0 141 -13 201 -39
s111.167 -61.167 153.5 -105.5s75.166 -96.166 98.499 -155.499s35 -121.666 35 -186.999v-1147c0 -65.333 -11.667 -127.833 -35 -187.5s-56.166 -111.667 -98.499 -156s-93.5 -79.5 -153.5 -105.5s-127 -39 -201 -39v168z" />
    <glyph glyph-name="asterisk" unicode="*" horiz-adv-x="937" 
d="M82 1145l37 110l295 -98l-2 311h118l-4 -311l293 98l37 -110l-297 -94l186 -250l-96 -68l-180 252l-180 -252l-96 68l186 250z" />
    <glyph glyph-name="plus" unicode="+" horiz-adv-x="1177" 
d="M180 504v158h320v331h178v-331h319v-158h-319v-328h-178v328h-320z" />
    <glyph glyph-name="comma" unicode="," horiz-adv-x="552" 
d="M119 131c0 39.333 13.667 73.333 41 102s63.333 43 108 43c49.333 0 89.666 -19 120.999 -57s47 -94.667 47 -170c0 -100 -28.333 -172.833 -85 -218.5s-130.667 -68.5 -222 -68.5v88c40.667 0 72 5.83301 94 17.5s39.667 27.167 53 46.5c20.667 30 31 60 31 90
c-4 -4 -10.5 -7.66699 -19.5 -11s-20.167 -5 -33.5 -5c-39.333 0 -71.666 14 -96.999 42s-38 61.667 -38 101z" />
    <glyph glyph-name="hyphen" unicode="-" horiz-adv-x="602" 
d="M61 504v160h480v-160h-480z" />
    <glyph glyph-name="period" unicode="." horiz-adv-x="522" 
d="M119 133c0 39.333 13.667 73 41 101s60.666 42 99.999 42s73.5 -13.833 102.5 -41.5s43.5 -61.5 43.5 -101.5c0 -39.333 -14.5 -73 -43.5 -101s-63.167 -42 -102.5 -42s-72.666 13.667 -99.999 41s-41 61.333 -41 102z" />
    <glyph glyph-name="slash" unicode="/" horiz-adv-x="892" 
d="M10 -76l746 1733l162 -70l-746 -1732z" />
    <glyph glyph-name="zero" unicode="0" horiz-adv-x="1185" 
d="M102 463v508c0 65.333 11.667 127.666 35 186.999s56.166 111.166 98.499 155.499s93.5 79.5 153.5 105.5s127.667 39 203 39c74 0 141.333 -13 202 -39s112.5 -61.167 155.5 -105.5s76 -96.166 99 -155.499s34.5 -121.666 34.5 -186.999v-508
c0 -65.333 -11.5 -127.5 -34.5 -186.5s-56 -111 -99 -156s-95 -80.5 -156 -106.5s-128.167 -39 -201.5 -39c-75.333 0 -143 13 -203 39s-111.167 61.5 -153.5 106.5s-75.166 97 -98.499 156s-35 121.167 -35 186.5zM289 463c0 -44 7.16699 -85.001 21.5 -123.001
s34.833 -71.667 61.5 -101s58.334 -52.666 95.001 -69.999s78.334 -26 125.001 -26s88.667 8.66699 126 26s69.333 40.666 96 69.999s47.167 63 61.5 101s21.5 79 21.5 123v508c0 44 -7.16699 85.333 -21.5 124s-34.833 72.334 -61.5 101.001s-58.667 51.5 -96 68.5
s-79.333 25.5 -126 25.5s-88.334 -8.5 -125.001 -25.5s-68.334 -39.833 -95.001 -68.5s-47.167 -62.5 -61.5 -101.5s-21.5 -80.167 -21.5 -123.5v-508z" />
    <glyph glyph-name="one" unicode="1" horiz-adv-x="706" 
d="M63 1047v149c64 0 116 4.5 156 13.5s71.167 22.667 93.5 41s37.333 42.5 45 72.5s11.5 67 11.5 111h178v-1434h-193v1047h-291z" />
    <glyph glyph-name="two" unicode="2" horiz-adv-x="1079" 
d="M96 0c0 116 9.33203 212.669 27.999 290.002s45.334 142.5 80.001 195.5s77 97 127 132s106.333 67.5 169 97.5l103 52.5c36 18.333 69.167 40.666 99.5 66.999s55 57.333 74 93s28.5 78.167 28.5 127.5c0 76.667 -22.833 134.667 -68.5 174s-105.5 59 -179.5 59
c-82 0 -148.167 -23.833 -198.5 -71.5s-75.5 -117.167 -75.5 -208.5h-187c0 69.333 12 132 36 188s57.167 103.167 99.5 141.5s91.833 67.666 148.5 87.999s117 30.5 181 30.5c62.667 0 120.334 -9.5 173.001 -28.5s98.167 -46 136.5 -81s68 -77.333 89 -127
s31.5 -105.167 31.5 -166.5c0 -69.333 -13.333 -129.666 -40 -180.999s-59.334 -95.833 -98.001 -133.5s-80.667 -69.5 -126 -95.5l-123 -68c-61.333 -32.667 -111.5 -62.667 -150.5 -90s-69 -56 -90 -86s-35.333 -63.333 -43 -100s-11.5 -80.334 -11.5 -131.001h682v-168
h-895z" />
    <glyph glyph-name="three" unicode="3" horiz-adv-x="1144" 
d="M68 453l186 0.00488281c0 -48 7.83301 -90.833 23.5 -128.5s37.167 -69.834 64.5 -96.501s59.833 -47.167 97.5 -61.5s78.834 -21.5 123.501 -21.5c87.333 0 156 25 206 75s75 114 75 192c0 34 -5.5 66.333 -16.5 97s-28.5 57.667 -52.5 81s-54.333 41.833 -91 55.5
s-80.334 20.5 -131.001 20.5h-102v165h102c46.667 0 86.334 6.16699 119.001 18.5s59.5 28.833 80.5 49.5s36.333 45 46 73s14.5 58.333 14.5 91c0 75.333 -22.833 131.666 -68.5 168.999s-107.5 56 -185.5 56c-90 0 -156.167 -23.833 -198.5 -71.5
s-63.5 -110.5 -63.5 -188.5h-188c0 62.667 10.833 120.334 32.5 173.001s52 98.167 91 136.5s85.833 67.666 140.5 87.999s114.667 30.5 180 30.5c61.333 0 119.333 -9.16699 174 -27.5s102.167 -44.333 142.5 -78s72 -74.667 95 -123s34.5 -102.5 34.5 -162.5
c0 -83.333 -20.833 -152.333 -62.5 -207s-94.5 -91.334 -158.5 -110.001c75.333 -23.333 136.5 -64 183.5 -122s70.5 -132.333 70.5 -223c0 -64 -12.333 -121.833 -37 -173.5s-58.5 -96.334 -101.5 -134.001s-93.5 -66.834 -151.5 -87.501s-119.667 -31 -185 -31
c-66.667 0 -129.667 10.667 -189 32s-111.333 52.5 -156 93.5s-79.834 90.833 -105.501 149.5s-38.5 125.667 -38.5 201z" />
    <glyph glyph-name="four" unicode="4" horiz-adv-x="1130" 
d="M139 461v973h187v-805h346v442h186v-442h215v-168h-215v-461h-186v461h-533z" />
    <glyph glyph-name="five" unicode="5" horiz-adv-x="1224" 
d="M137 465h186.996c0 -44 7.16699 -85 21.5 -123s34.333 -71.667 60 -101s57.334 -52.666 95.001 -69.999s79.834 -26 126.501 -26s88.667 8.66699 126 26s69 40.666 95 69.999s46.167 63.333 60.5 102s21.5 80 21.5 124c0 42 -7.16699 82.167 -21.5 120.5
s-34.5 71.833 -60.5 100.5s-58.167 51.5 -96.5 68.5s-80.5 25.5 -126.5 25.5c-61.333 0 -114.666 -14.333 -159.999 -43s-81.666 -71.667 -108.999 -129h-190v824h844v-168h-676v-480c16.667 30 37.5 55.333 62.5 76s52.167 37.5 81.5 50.5s60.5 22.5 93.5 28.5
s65.167 9 96.5 9c69.333 0 131.666 -13 186.999 -39s102.5 -60.833 141.5 -104.5s69 -94.167 90 -151.5s31.5 -118 31.5 -182c0 -68 -11.5 -132.167 -34.5 -192.5s-56 -113 -99 -158s-95 -80.5 -156 -106.5s-128.167 -39 -201.5 -39c-75.333 0 -143 13 -203 39
s-111.167 61.5 -153.5 106.5s-75.166 97 -98.499 156s-35 121.167 -35 186.5z" />
    <glyph glyph-name="six" unicode="6" horiz-adv-x="1138" 
d="M76 463c0 54.667 7.5 105.831 22.5 153.498s35.5 92.167 61.5 133.5l428 684h215l-328 -504c22 16.667 56.333 24.667 103 24c69.333 0 133.333 -12.833 192 -38.5s109.167 -61.167 151.5 -106.5s75.5 -97.666 99.5 -156.999s36 -121.666 36 -186.999
s-11.667 -127.5 -35 -186.5s-56.5 -111 -99.5 -156s-94.833 -80.5 -155.5 -106.5s-128 -39 -202 -39s-141.333 13 -202 39s-112.167 61.167 -154.5 105.5s-75 96 -98 155s-34.5 121.167 -34.5 186.5zM262 464.997c0 -42 7.16797 -82.501 21.501 -121.501
s34.5 -73.167 60.5 -102.5s57.667 -52.666 95 -69.999s79.333 -26 126 -26s88.834 8.66699 126.501 26s69.667 40.666 96 69.999s46.666 63 60.999 101s21.5 79 21.5 123s-7.5 85.333 -22.5 124s-35.833 72.334 -62.5 101.001s-58.667 51.5 -96 68.5
s-78.666 25.5 -123.999 25.5c-46.667 0 -88.334 -8.5 -125.001 -25.5s-68.334 -39.833 -95.001 -68.5s-47.167 -62.5 -61.5 -101.5s-21.5 -80.167 -21.5 -123.5z" />
    <glyph glyph-name="seven" unicode="7" horiz-adv-x="956" 
d="M78 1266v168h889l-637 -1434h-199l569 1266h-622z" />
    <glyph glyph-name="eight" unicode="8" horiz-adv-x="1187" 
d="M113 403c0 36.667 4.66699 73.5 14 110.5s24 71 44 102s44.667 58.333 74 82s64.333 41.167 105 52.5c-74 26 -127 68 -159 126s-48 119.667 -48 185c0 54.667 10.333 105.834 31 153.501s50.5 89.334 89.5 125.001s86.333 64 142 85s118.5 31.5 188.5 31.5
c69.333 0 132 -10.5 188 -31.5s103.5 -49.667 142.5 -86s68.667 -78.333 89 -126s30.5 -98.834 30.5 -153.501c0 -32.667 -4 -64.834 -12 -96.501s-20.167 -61 -36.5 -88s-37.5 -51.5 -63.5 -73.5s-57.333 -39 -94 -51c40.667 -10.667 75.667 -28 105 -52
s54 -51.833 74 -83.5s34.667 -65.834 44 -102.501s14 -73.667 14 -111c0 -57.333 -10.833 -111.5 -32.5 -162.5s-53.334 -96 -95.001 -135s-92.167 -69.833 -151.5 -92.5s-126.666 -34 -201.999 -34s-142.666 11.333 -201.999 34s-109.833 53.167 -151.5 91.5
s-73.334 83.333 -95.001 135s-32.5 106.834 -32.5 165.501zM299 403c0 -35.333 6.83398 -68.667 20.501 -100s33.167 -58.666 58.5 -81.999s56.333 -41.833 93 -55.5s77.667 -20.5 123 -20.5c46.667 0 88 6.83301 124 20.5s66.667 32.167 92 55.5s44.833 50.666 58.5 81.999
s20.5 64.666 20.5 99.999c0 34 -6.5 66.833 -19.5 98.5s-32.167 59.5 -57.5 83.5s-56.333 42.833 -93 56.5s-78.334 20.5 -125.001 20.5c-48 0 -90 -6.83301 -126 -20.5s-66.667 -32.167 -92 -55.5s-44.5 -50.666 -57.5 -81.999s-19.5 -65 -19.5 -101zM332.001 1049
c0 -65.333 23.167 -120.999 69.5 -166.999s110.5 -69 192.5 -69c83.333 0 147.833 23.167 193.5 69.5s68.5 102.5 68.5 168.5c0 65.333 -23.167 121.166 -69.5 167.499s-110.5 69.5 -192.5 69.5s-146.167 -23.167 -192.5 -69.5s-69.5 -102.833 -69.5 -169.5z" />
    <glyph glyph-name="nine" unicode="9" horiz-adv-x="1138" 
d="M82 967c0 66.667 11.667 129.666 35 188.999s56.5 111.166 99.5 155.499s94.333 79.5 154 105.5s127.167 39 202.5 39c74 0 141.333 -13 202 -39s112.167 -61.167 154.5 -105.5s75.166 -95.5 98.499 -153.5s35 -119.667 35 -185c0 -56 -7.83301 -107.5 -23.5 -154.5
s-36.5 -91.833 -62.5 -134.5l-426 -684h-215l328 504c-9.33301 -9.33301 -19.666 -15.5 -30.999 -18.5s-27 -4.5 -47 -4.5c-74 0 -141.667 12.333 -203 37s-114.5 58.834 -159.5 102.501s-79.833 94.834 -104.5 153.501s-37 123 -37 193zM268 968.999
c0 -44 7.16602 -85.501 21.499 -124.501s34.833 -72.833 61.5 -101.5s58.834 -51.5 96.501 -68.5s79.5 -25.5 125.5 -25.5c46.667 0 88.5 8.5 125.5 25.5s68.833 39.833 95.5 68.5s47.167 62.5 61.5 101.5s21.5 80.5 21.5 124.5s-7.16699 85.333 -21.5 124
s-34.833 72.334 -61.5 101.001s-58.5 51.5 -95.5 68.5s-78.833 25.5 -125.5 25.5s-88.667 -8.5 -126 -25.5s-69.333 -39.833 -96 -68.5s-47.167 -62.5 -61.5 -101.5s-21.5 -80.167 -21.5 -123.5z" />
    <glyph glyph-name="colon" unicode=":" horiz-adv-x="522" 
d="M119 131c0 39.333 13.667 73.333 41 102s60.666 43 99.999 43s73.5 -14.333 102.5 -43s43.5 -62.667 43.5 -102s-14.5 -73 -43.5 -101s-63.167 -42 -102.5 -42s-72.666 14 -99.999 42s-41 61.667 -41 101zM119 817c0 39.333 13.667 73.167 41 101.5
s60.666 42.5 99.999 42.5s73.5 -14 102.5 -42s43.5 -62 43.5 -102c0 -39.333 -14.5 -73 -43.5 -101s-63.167 -42 -102.5 -42s-72.666 13.667 -99.999 41s-41 61.333 -41 102z" />
    <glyph glyph-name="semicolon" unicode=";" horiz-adv-x="538" 
d="M119 131c0 39.333 13.667 73.333 41 102s63.333 43 108 43c49.333 0 89.666 -19 120.999 -57s47 -94.667 47 -170c0 -100 -28.333 -172.833 -85 -218.5s-130.667 -68.5 -222 -68.5v88c40.667 0 72 5.83301 94 17.5s39.667 27.167 53 46.5c20.667 30 31 60 31 90
c-4 -4 -10.5 -7.66699 -19.5 -11s-20.167 -5 -33.5 -5c-39.333 0 -71.666 14 -96.999 42s-38 61.667 -38 101zM119 817c0 39.333 13.667 73.167 41 101.5s60.666 42.5 99.999 42.5s73.5 -14 102.5 -42s43.5 -62 43.5 -102c0 -39.333 -14.5 -73 -43.5 -101
s-63.167 -42 -102.5 -42s-72.666 14 -99.999 42s-41 61.667 -41 101z" />
    <glyph glyph-name="less" unicode="&#x3c;" horiz-adv-x="1177" 
d="M70 516v129l1038 371v-170l-776 -264l776 -267v-168z" />
    <glyph glyph-name="equal" unicode="=" horiz-adv-x="1177" 
d="M176 336v160h828v-160h-828zM176 668v157h828v-157h-828z" />
    <glyph glyph-name="greater" unicode="&#x3e;" horiz-adv-x="1177" 
d="M70 147v168l776 267l-776 264v170l1038 -371v-129z" />
    <glyph glyph-name="question" unicode="?" horiz-adv-x="1032" 
d="M47 1010c0 69.333 12.001 131.997 36.001 187.997s56.5 103.167 97.5 141.5s89.5 67.666 145.5 87.999s116 30.5 180 30.5c61.333 0 118.333 -9.16699 171 -27.5s98.667 -44.166 138 -77.499s70.333 -74.333 93 -123s34 -103 34 -163c0 -52 -7.83301 -97.5 -23.5 -136.5
s-34.834 -73.167 -57.501 -102.5s-46.834 -54.166 -72.501 -74.499l-69.5 -53.5c-32.667 -24.667 -60 -46.5 -82 -65.5s-39.167 -39.667 -51.5 -62s-20.833 -48.166 -25.5 -77.499s-7 -66 -7 -110h-180c0 49.333 3.33301 92.666 10 129.999s16.834 71.5 30.501 102.5
s32.167 59 55.5 84s51.333 49.167 84 72.5c23.333 16.667 46.833 34.5 70.5 53.5s45.5 39.833 65.5 62.5s36.167 48.334 48.5 77.001s18.5 61.334 18.5 98.001c0 74 -23.667 130 -71 168s-107 57 -179 57c-82 0 -148 -23.833 -198 -71.5s-75 -117.167 -75 -208.5h-186z
M315.001 122.997c0 40.667 14 75.334 42 104.001s63.333 43 106 43c42 0 77.667 -14.333 107 -43s44 -63.334 44 -104.001s-14.667 -76.167 -44 -106.5s-65 -45.5 -107 -45.5s-77.167 15.167 -105.5 45.5s-42.5 65.833 -42.5 106.5z" />
    <glyph glyph-name="at" unicode="@" horiz-adv-x="1748" 
d="M53 432c0 100 16.168 199.172 48.501 297.505s82.833 186.666 151.5 264.999s157.334 141.666 266.001 189.999s238.667 72.5 390 72.5c118.667 0 227.5 -16 326.5 -48s184.333 -81 256 -147s127.667 -149.167 168 -249.5s60.5 -218.833 60.5 -355.5
c0 -80.667 -7.16699 -154.167 -21.5 -220.5s-35.833 -123 -64.5 -170s-64.167 -83.5 -106.5 -109.5s-91.5 -39 -147.5 -39c-35.333 0 -68.333 5.16699 -99 15.5s-57.334 24.666 -80.001 42.999s-40.5 40.5 -53.5 66.5s-19.5 54 -19.5 84v37
c-27.333 -52 -66.5 -92 -117.5 -120s-109.167 -42 -174.5 -42c-57.333 0 -111 11.333 -161 34s-92.667 53 -128 91s-63.333 82.667 -84 134s-31 105 -31 161c0 57.333 10.333 111.166 31 161.499s49 95 85 134s78.667 69.833 128 92.5s103.333 34 162 34
c66.667 0 125.334 -14.667 176.001 -44s88.667 -68.666 114 -117.999v143h150v-579c0 -64 10.833 -111.833 32.5 -143.5s50.5 -47.5 86.5 -47.5c52 0 93.667 33.833 125 101.5s47 162.167 47 283.5c0 120 -16.833 223.5 -50.5 310.5s-79.834 157.667 -138.501 212
s-128.167 94.5 -208.5 120.5s-168.5 39 -264.5 39c-128.667 0 -237.667 -20.833 -327 -62.5s-161.5 -95.167 -216.5 -160.5s-95.167 -139 -120.5 -221s-38 -164 -38 -246c0 -92.667 15.333 -181.334 46 -266.001s77 -159.5 139 -224.5s139.833 -116.5 233.5 -154.5
s203.167 -57 328.5 -57c36.667 0 77.667 2 123 6s92.166 11.167 140.499 21.5s97.833 24 148.5 41s99.667 39.167 147 66.5l72 -117c-53.333 -30 -108 -54.833 -164 -74.5s-111.667 -35.334 -167 -47.001s-108.5 -20 -159.5 -25s-97.833 -7.5 -140.5 -7.5
c-150 0 -281.333 23.333 -394 70s-206.5 108.5 -281.5 185.5s-131 166 -168 267s-55.5 206.167 -55.5 315.5zM584.001 422.005c0 -38 6.16895 -74.5 18.502 -109.5s30.333 -65.5 54 -91.5s52.334 -46.5 86.001 -61.5s70.834 -22.5 111.501 -22.5s78.167 7.5 112.5 22.5
s63.5 35.5 87.5 61.5s42.333 56.5 55 91.5s19 71.5 19 109.5s-6.33301 74.5 -19 109.5s-31.334 65.833 -56.001 92.5s-53.834 47.5 -87.501 62.5s-70.834 22.5 -111.501 22.5s-77.834 -7.5 -111.501 -22.5s-62 -35.833 -85 -62.5s-41 -57.5 -54 -92.5
s-19.5 -71.5 -19.5 -109.5z" />
    <glyph glyph-name="A" unicode="A" horiz-adv-x="1144" 
d="M10 0l494 1434h135l496 -1434h-197l-76 219h-581l-74 -219h-197zM338 389h467l-232 739z" />
    <glyph glyph-name="B" unicode="B" horiz-adv-x="1210" 
d="M160 0l-0.00195312 1434h489c86 0 157.333 -13 214 -39s101.5 -58.833 134.5 -98.5s55.833 -82.667 68.5 -129s19 -90.166 19 -131.499c0 -48 -7.16699 -90 -21.5 -126s-32.666 -66.667 -54.999 -92s-47.5 -46.166 -75.5 -62.499s-56.333 -27.166 -85 -32.499
c26 -5.33301 53.667 -15.833 83 -31.5s56.333 -36.5 81 -62.5s44.834 -57.833 60.501 -95.5s23.5 -81.167 23.5 -130.5c0 -40.667 -6.5 -84.5 -19.5 -131.5s-36.333 -90.667 -70 -131s-78.5 -73.833 -134.5 -100.5s-127 -40 -213 -40h-499zM345.998 167.997
l313.001 0.000976562c46.667 0 86 7.5 118 22.5s58 34.167 78 57.5s34 48.666 42 75.999s12 53 12 77c0 26 -4.33301 53 -13 81s-23 53.667 -43 77s-45.333 42.5 -76 57.5s-68.334 22.5 -113.001 22.5h-318v-471zM345.999 808.998l307 -0.00195312
c46.667 0 85.667 7.16699 117 21.5s56.5 32.833 75.5 55.5s32.667 47.167 41 73.5s12.5 51.833 12.5 76.5s-4.16699 50.334 -12.5 77.001s-22 51.334 -41 74.001s-44.5 41.5 -76.5 56.5s-72 22.5 -120 22.5h-303v-457z" />
    <glyph glyph-name="C" unicode="C" horiz-adv-x="1587" 
d="M84 719c0 98 16.332 192.165 48.999 282.498s80.834 169.833 144.501 238.5s141.167 123.5 232.5 164.5s196.333 61.5 315 61.5c96.667 0 184.334 -14 263.001 -42s147 -65.833 205 -113.5s105.167 -104.334 141.5 -170.001s60.5 -135.167 72.5 -208.5h-196
c-10.667 52 -29 100.5 -55 145.5s-59.5 83.833 -100.5 116.5s-88.5 58.167 -142.5 76.5s-114.667 27.5 -182 27.5c-88.667 0 -167.334 -16 -236.001 -48s-126.667 -75 -174 -129s-83.666 -115.833 -108.999 -185.5s-38 -141.834 -38 -216.501
c0 -79.333 13.667 -154.166 41 -224.499s65.666 -132.166 114.999 -185.499s108.5 -95.666 177.5 -126.999s145.833 -47 230.5 -47c58.667 0 113.167 7.83301 163.5 23.5s95.333 37.167 135 64.5s73.5 59.833 101.5 97.5s49.667 78.167 65 121.5h204
c-18 -65.333 -46.333 -126.666 -85 -183.999s-87 -107.5 -145 -150.5s-124.5 -77.167 -199.5 -102.5s-157.833 -38 -248.5 -38c-114.667 0 -218 20.5 -310 61.5s-170.167 95.667 -234.5 164s-113.833 147.833 -148.5 238.5s-52 186.667 -52 288z" />
    <glyph glyph-name="D" unicode="D" horiz-adv-x="1427" 
d="M160 0v1434h442c118.667 0 224.167 -20.5 316.5 -61.5s170.166 -95 233.499 -162s111.5 -143.5 144.5 -229.5s49.5 -174 49.5 -264s-16.5 -178 -49.5 -264s-81.167 -162.5 -144.5 -229.5s-141.166 -121 -233.499 -162s-197.833 -61.5 -316.5 -61.5h-442zM346 168
l256 0.00195312c87.333 0 165.5 15.667 234.5 47s126.667 72.666 173 123.999s81.833 109.666 106.5 174.999s37 133 37 203c0 69.333 -12.333 136.833 -37 202.5s-60.167 124 -106.5 175s-104 92.333 -173 124s-147.167 47.5 -234.5 47.5h-256v-1098z" />
    <glyph glyph-name="E" unicode="E" horiz-adv-x="1114" 
d="M160 0v1434h805v-168h-619v-469h619v-168h-619v-461h619v-168h-805z" />
    <glyph glyph-name="F" unicode="F" horiz-adv-x="1101" 
d="M160 0v1434h805v-168h-619v-512h619v-168h-619v-586h-186z" />
    <glyph glyph-name="G" unicode="G" horiz-adv-x="1712" 
d="M84 711c0 98 16.998 192.832 50.998 284.499s82.5 172.167 145.5 241.5s139.5 124.833 229.5 166.5s191 62.5 303 62.5c82 0 157.833 -11.167 227.5 -33.5s131.167 -53 184.5 -92s96.666 -84.833 129.999 -137.5s54.666 -109 63.999 -169h-188
c-9.33301 36.667 -26 71.167 -50 103.5s-53.833 60.333 -89.5 84s-76.667 42.334 -123 56.001s-96.833 20.5 -151.5 20.5c-84.667 0 -160.5 -16 -227.5 -48s-124 -75.333 -171 -130s-82.833 -117.167 -107.5 -187.5s-37 -143.5 -37 -219.5c0 -74 12 -145.833 36 -215.5
s59.5 -131.5 106.5 -185.5s105.667 -97 176 -129s151.5 -48 243.5 -48c70.667 0 133.334 10 188.001 30s101.834 47 141.501 81s71 74.5 94 121.5s38.833 98.5 47.5 154.5h-338v168h690v-168h-154c-13.333 -82 -38.166 -157 -74.499 -225s-83.166 -126.667 -140.499 -176
s-124.5 -87.333 -201.5 -114s-163.5 -40 -259.5 -40c-121.333 0 -228 20.833 -320 62.5s-169.833 97 -233.5 166s-111.5 148.167 -143.5 237.5s-48 182 -48 278z" />
    <glyph glyph-name="H" unicode="H" horiz-adv-x="1359" 
d="M160 0v1434h186v-637h668v637h186v-1434h-186v629h-668v-629h-186z" />
    <glyph glyph-name="I" unicode="I" horiz-adv-x="512" 
d="M160 0v1434h192v-1434h-192z" />
    <glyph glyph-name="J" unicode="J" horiz-adv-x="1097" 
d="M29 455l186 -0.00195312c0 -95.333 25.333 -172.5 76 -231.5s119 -88.5 205 -88.5s152.5 29 199.5 87s70.5 135.667 70.5 233v979h186v-979c0 -69.333 -10.5 -134.166 -31.5 -194.499s-51 -112 -90 -155s-86.833 -76.833 -143.5 -101.5s-120.334 -37 -191.001 -37
c-72.667 0 -137.667 12.333 -195 37s-106.166 58.834 -146.499 102.501s-71.333 95.167 -93 154.5s-32.5 124 -32.5 194z" />
    <glyph glyph-name="K" unicode="K" horiz-adv-x="1208" 
d="M160 0v1434h186v-652l602 652h236l-656 -717l656 -717h-236l-602 651v-651h-186z" />
    <glyph glyph-name="L" unicode="L" horiz-adv-x="870" 
d="M160 0v1434h186v-1266h469v-168h-655z" />
    <glyph glyph-name="M" unicode="M" horiz-adv-x="1662" 
d="M160 0v1434h180l491 -1147l492 1147h180v-1434h-188v999l-412 -999h-143l-414 999v-999h-186z" />
    <glyph glyph-name="N" unicode="N" horiz-adv-x="1357" 
d="M160 0v1434h207l645 -1108v1108h186v-1434h-207l-645 1108v-1108h-186z" />
    <glyph glyph-name="O" unicode="O" horiz-adv-x="1644" 
d="M84 717c0 96.667 17 190.167 51 280.5s82.833 170.166 146.5 239.499s141.167 124.833 232.5 166.5s194.333 62.5 309 62.5s217.834 -20.833 309.501 -62.5s169.167 -97.167 232.5 -166.5s112.166 -149.166 146.499 -239.499s51.5 -183.833 51.5 -280.5
s-17.167 -190.167 -51.5 -280.5s-83.166 -170.333 -146.499 -240s-140.833 -125.334 -232.5 -167.001s-194.834 -62.5 -309.501 -62.5s-217.667 20.833 -309 62.5s-168.833 97.334 -232.5 167.001s-112.5 149.5 -146.5 239.5s-51 183.667 -51 281zM279 717
c0 -75.333 12.5 -147.833 37.5 -217.5s61.167 -131.5 108.5 -185.5s104.333 -97.333 171 -130s142.334 -49 227.001 -49c83.333 0 158.833 16.333 226.5 49s124.667 76 171 130s82.166 115.833 107.499 185.5s38 142.167 38 217.5s-12.667 148 -38 218
s-61.166 132 -107.499 186s-103.333 97 -171 129s-143.167 48 -226.5 48c-84.667 0 -160.334 -16 -227.001 -48s-123.667 -75 -171 -129s-83.5 -116.167 -108.5 -186.5s-37.5 -142.833 -37.5 -217.5z" />
    <glyph glyph-name="P" unicode="P" horiz-adv-x="1220" 
d="M160 0v1434h504c75.333 0 142.833 -13 202.5 -39s111 -61.5 154 -106.5s76.167 -97 99.5 -156s35 -121.167 35 -186.5s-11.667 -127.666 -35 -186.999s-56.5 -111.5 -99.5 -156.5s-94.5 -80.5 -154.5 -106.5s-127.333 -39 -202 -39h-318v-457h-186zM346 626.999
l318.001 0.000976562c46.667 0 88.667 8.5 126 25.5s69.333 39.833 96 68.5s47.167 62.5 61.5 101.5s21.5 80.167 21.5 123.5c0 42 -7.16699 82.5 -21.5 121.5s-34.833 73.167 -61.5 102.5s-58.834 52.666 -96.501 69.999s-79.5 26 -125.5 26h-318v-639z" />
    <glyph glyph-name="Q" unicode="Q" horiz-adv-x="1644" 
d="M84 717c0 96.667 17 190.167 51 280.5s82.833 170.166 146.5 239.499s141.167 124.833 232.5 166.5s194.333 62.5 309 62.5s217.834 -20.833 309.501 -62.5s169.167 -97.167 232.5 -166.5s112.166 -149.166 146.499 -239.499s51.5 -183.833 51.5 -280.5
c0 -86 -12.667 -167.667 -38 -245s-61.5 -147.666 -108.5 -210.999s-103.667 -117.833 -170 -163.5s-140.5 -78.834 -222.5 -99.501l127 -178c-27.333 -12 -55 -25.333 -83 -40l-83 -42l-164 229c-114.667 0 -217.667 21.167 -309 63.5s-168.833 98 -232.5 167
s-112.167 148.5 -145.5 238.5s-50 183.667 -50 281zM279 717c0 -75.333 12.5 -147.833 37.5 -217.5s61.167 -131.5 108.5 -185.5s104.333 -97.333 171 -130s142.334 -49 227.001 -49c83.333 0 158.833 16.333 226.5 49s124.667 76 171 130s82.166 115.833 107.499 185.5
s38 142.167 38 217.5s-12.667 148 -38 218s-61.166 132 -107.499 186s-103.333 97 -171 129s-143.167 48 -226.5 48c-84.667 0 -160.334 -16 -227.001 -48s-123.667 -75 -171 -129s-83.5 -116.167 -108.5 -186.5s-37.5 -142.833 -37.5 -217.5z" />
    <glyph glyph-name="R" unicode="R" horiz-adv-x="1241" 
d="M160 0v1434h504c75.333 0 142.833 -13 202.5 -39s111 -61.5 154 -106.5s76.167 -97 99.5 -156s35 -121.167 35 -186.5c0 -52 -7.16699 -102.167 -21.5 -150.5s-35.5 -92.333 -63.5 -132s-61.5 -74.834 -100.5 -105.501s-82.833 -54.334 -131.5 -71.001l301 -487h-213
l-285 457h-295v-457h-186zM346 627.002l318.001 0.000976562c46.667 0 88.667 8.5 126 25.5s69.333 39.833 96 68.5s47.167 62.5 61.5 101.5s21.5 80.167 21.5 123.5c0 42 -7.16699 82.5 -21.5 121.5s-34.833 73.167 -61.5 102.5s-58.834 52.666 -96.501 69.999
s-79.5 26 -125.5 26h-318v-639z" />
    <glyph glyph-name="S" unicode="S" horiz-adv-x="1169" 
d="M92 457l187.003 0.000976562c0 -98 29.333 -176.167 88 -234.5s137 -87.5 235 -87.5c83.333 0 151.666 21.5 204.999 64.5s80 103.5 80 181.5c0 42 -8.16699 77 -24.5 105s-37.166 51.667 -62.499 71s-54.333 35.166 -87 47.499s-65.667 23.833 -99 34.5
c-61.333 19.333 -120.666 39.833 -177.999 61.5s-107.5 48.167 -150.5 79.5s-77.5 70 -103.5 116s-39 103 -39 171c0 64 11.667 121 35 171s54.833 91.667 94.5 125s86.5 58.833 140.5 76.5s111 26.5 171 26.5c66.667 0 128 -10.5 184 -31.5s104.167 -50.667 144.5 -89
s71.666 -84.5 93.999 -138.5s33.5 -113.667 33.5 -179h-186c-2.66699 86 -27.167 152.5 -73.5 199.5s-111.166 70.5 -194.499 70.5c-75.333 0 -136.833 -19 -184.5 -57s-71.5 -92 -71.5 -162c0 -36.667 7.16699 -68 21.5 -94s33.666 -48.167 57.999 -66.5
s52.666 -34 84.999 -47s66.166 -24.833 101.499 -35.5c58.667 -19.333 116.667 -40 174 -62s108.5 -49.333 153.5 -82s81.167 -72.834 108.5 -120.501s41 -107.167 41 -178.5c0 -66.667 -12.667 -126.334 -38 -179.001s-59.5 -97.334 -102.5 -134.001
s-93.5 -64.667 -151.5 -84s-120.333 -29 -187 -29c-72.667 0 -139.334 11.333 -200.001 34s-113.5 54.834 -158.5 96.501s-80.167 92.834 -105.5 153.501s-38 129.334 -38 206.001z" />
    <glyph glyph-name="T" unicode="T" horiz-adv-x="978" 
d="M25 1266v168h929v-168h-372v-1266h-187v1266h-370z" />
    <glyph glyph-name="U" unicode="U" horiz-adv-x="1288" 
d="M145 465l0.00195312 969.002h187v-969c0 -44 7.16699 -86 21.5 -126s35.166 -75.167 62.499 -105.5s60 -54.333 98 -72s81 -26.5 129 -26.5c46.667 0 89.334 8.83301 128.001 26.5s71.667 41.167 99 70.5s48.5 64.166 63.5 104.499s22.5 83.166 22.5 128.499v969h187
v-969c0 -68 -12 -132.167 -36 -192.5s-57.5 -113 -100.5 -158s-95.5 -80.833 -157.5 -107.5s-130.667 -40 -206 -40c-76.667 0 -145.334 13.333 -206.001 40s-112.834 62.5 -156.501 107.5s-77.167 97.5 -100.5 157.5s-35 124.333 -35 193z" />
    <glyph glyph-name="V" unicode="V" horiz-adv-x="1153" 
d="M8 1434h197l373 -1127l370 1127h197l-500 -1434h-135z" />
    <glyph glyph-name="W" unicode="W" horiz-adv-x="1974" 
d="M12 1434h197l360 -1110l349 1110h141l348 -1110l360 1110h197l-491 -1434h-138l-348 1110l-346 -1110h-139z" />
    <glyph glyph-name="X" unicode="X" horiz-adv-x="1122" 
d="M20 0l435 717l-435 717h211l330 -555l330 555h213l-436 -717l436 -717h-213l-330 555l-330 -555h-211z" />
    <glyph glyph-name="Y" unicode="Y" horiz-adv-x="1193" 
d="M20 1434h218l419 -670l338 670h205l-721 -1434h-205l287 569z" />
    <glyph glyph-name="Z" unicode="Z" 
d="M29 0l796 1266h-753v168h1067l-797 -1266h803v-168h-1116z" />
    <glyph glyph-name="bracketleft" unicode="[" horiz-adv-x="686" 
d="M160 -479v2107h403v-160h-225v-1790h225v-157h-403z" />
    <glyph glyph-name="backslash" unicode="\" horiz-adv-x="892" 
d="M-10 1587l162 70l745 -1733l-162 -69z" />
    <glyph glyph-name="bracketright" unicode="]" horiz-adv-x="686" 
d="M123 -322h225v1788h-225v160h403v-2105h-403v157z" />
    <glyph glyph-name="asciicircum" unicode="^" horiz-adv-x="1306" 
d="M123 662l463 874h127l471 -874h-201l-332 651l-334 -651h-194z" />
    <glyph glyph-name="underscore" unicode="_" horiz-adv-x="1146" 
d="M61 -102h1024v-125h-1024v125z" />
    <glyph glyph-name="grave" unicode="`" horiz-adv-x="1013" 
d="M182 1360l86 139l510 -280l-86 -140z" />
    <glyph glyph-name="a" unicode="a" horiz-adv-x="1222" 
d="M84 465c0 65.333 11.6699 127.668 35.0029 187.001s56.166 111.666 98.499 156.999s91.833 80.833 148.5 106.5s119 38.5 187 38.5c79.333 0 147.666 -17.333 204.999 -52s100.333 -78.667 129 -132v160h176v-930h-176v162c-28.667 -53.333 -71.667 -97.5 -129 -132.5
s-126.333 -52.5 -207 -52.5c-68 0 -130.333 13 -187 39s-105.834 61.5 -147.501 106.5s-74.167 97 -97.5 156s-35 121.167 -35 186.5zM260.003 465.002c0 -45.333 7.5 -87.6641 22.5 -126.997s36.167 -73.833 63.5 -103.5s60 -53.334 98 -71.001s81 -26.5 129 -26.5
s91.167 8.83301 129.5 26.5s71.166 41.334 98.499 71.001s48.5 64.167 63.5 103.5s22.5 81.666 22.5 126.999s-7.5 87.666 -22.5 126.999s-36.167 74 -63.5 104s-60.166 54 -98.499 72s-81.5 27 -129.5 27s-91 -9 -129 -27s-70.667 -42 -98 -72s-48.5 -64.833 -63.5 -104.5
s-22.5 -81.834 -22.5 -126.501z" />
    <glyph glyph-name="b" unicode="b" horiz-adv-x="1226" 
d="M160 0l0.00195312 1434h178v-664c28.667 53.333 71.334 97.333 128.001 132s125.334 52 206.001 52c66.667 0 128.667 -12.833 186 -38.5s107.166 -61.167 149.499 -106.5s75.166 -97.666 98.499 -156.999s35 -121.666 35 -186.999s-11.667 -127.5 -35 -186.5
s-55.833 -110.667 -97.5 -155s-91.167 -79.833 -148.5 -106.5s-120 -40 -188 -40c-80.667 0 -149.334 17.5 -206.001 52.5s-99.334 79.167 -128.001 132.5v-162h-178zM338.002 464.998c0 -45.333 7.5 -87.668 22.5 -127.001s36.167 -74.166 63.5 -104.499s60 -54 98 -71
s81 -25.5 129 -25.5s91.167 8.83301 129.5 26.5s71.166 41.667 98.499 72s48.166 65.166 62.499 104.499s21.5 81 21.5 125s-7.16699 86 -21.5 126s-35.166 75 -62.499 105s-60.166 54 -98.499 72s-81.5 27 -129.5 27s-91 -9 -129 -27s-70.667 -41.667 -98 -71
s-48.5 -64.166 -63.5 -104.499s-22.5 -82.833 -22.5 -127.5z" />
    <glyph glyph-name="c" unicode="c" horiz-adv-x="1083" 
d="M88 465c0 62.667 9.83105 123.33 29.498 181.997s49 110.834 88 156.501s88.167 82.167 147.5 109.5s128.666 41 207.999 41c69.333 0 130 -10.167 182 -30.5s95.833 -47.5 131.5 -81.5s63 -72.5 82 -115.5s30.5 -87.833 34.5 -134.5h-178
c-6.66699 57.333 -30.167 105.5 -70.5 144.5s-99.5 58.5 -177.5 58.5c-52 0 -96.667 -9 -134 -27s-68.333 -42.333 -93 -73s-42.834 -65.834 -54.501 -105.501s-17.5 -81.167 -17.5 -124.5c0 -44 5.83301 -85.667 17.5 -125s29.834 -74.166 54.501 -104.499
s56 -54.333 94 -72s83.667 -26.5 137 -26.5c74 0 129.833 16.5 167.5 49.5s63.834 77.167 78.501 132.5h178c-6.66699 -45.333 -20.167 -88.666 -40.5 -129.999s-48.666 -77.666 -84.999 -108.999s-79.666 -56.333 -129.999 -75s-108.5 -28 -174.5 -28
c-80.667 0 -150.667 13.667 -210 41s-108.5 63.666 -147.5 108.999s-68.333 97.333 -88 156s-29.5 119.334 -29.5 182.001z" />
    <glyph glyph-name="d" unicode="d" horiz-adv-x="1222" 
d="M84 465c0 65.333 11.6699 127.668 35.0029 187.001s56.166 111.666 98.499 156.999s91.833 80.833 148.5 106.5s119 38.5 187 38.5c79.333 0 147.666 -17.333 204.999 -52s100.333 -78.667 129 -132v664h176v-1434h-176v162c-28.667 -53.333 -71.667 -97.5 -129 -132.5
s-126.333 -52.5 -207 -52.5c-68 0 -130.333 13 -187 39s-105.834 61.5 -147.501 106.5s-74.167 97 -97.5 156s-35 121.167 -35 186.5zM260.003 465.002c0 -45.333 7.5 -87.6641 22.5 -126.997s36.167 -73.833 63.5 -103.5s60 -53.334 98 -71.001s81 -26.5 129 -26.5
s91.167 8.83301 129.5 26.5s71.166 41.334 98.499 71.001s48.5 64.167 63.5 103.5s22.5 81.666 22.5 126.999s-7.5 87.666 -22.5 126.999s-36.167 74 -63.5 104s-60.166 54 -98.499 72s-81.5 27 -129.5 27s-91 -9 -129 -27s-70.667 -42 -98 -72s-48.5 -64.833 -63.5 -104.5
s-22.5 -81.834 -22.5 -126.501z" />
    <glyph glyph-name="e" unicode="e" horiz-adv-x="1075" 
d="M88 469c0 69.333 10.668 133.501 32.001 192.501s51.333 110.333 90 154s85.667 77.667 141 102s117.333 36.5 186 36.5c64 0 123 -10.5 177 -31.5s100.333 -50.667 139 -89s69 -83 91 -134s33 -105.833 33 -164.5c0 -13.333 -0.333008 -29.666 -1 -48.999s-3 -42 -7 -68
h-699c0 -39.333 5.5 -76.5 16.5 -111.5s27.833 -65.833 50.5 -92.5s51.667 -47.834 87 -63.501s77.666 -23.5 126.999 -23.5c70.667 0 124.167 14.667 160.5 44s61.833 63.666 76.5 102.999h181c-8 -39.333 -23.333 -76.666 -46 -111.999s-51.5 -66.666 -86.5 -93.999
s-76.667 -49.333 -125 -66s-101.833 -25 -160.5 -25c-78 0 -146 13.667 -204 41s-106.167 63.666 -144.5 108.999s-67 97.666 -86 156.999s-28.5 121 -28.5 185zM272.001 553.001h533c0 76.667 -24.5 137.5 -73.5 182.5s-112.5 67.5 -190.5 67.5
c-74 0 -136.667 -21.167 -188 -63.5s-78.333 -104.5 -81 -186.5z" />
    <glyph glyph-name="f" unicode="f" horiz-adv-x="710" 
d="M43 780l0.00195312 150.002h201v162c0 83.333 11.167 148.833 33.5 196.5s49.666 83.167 81.999 106.5s65.833 37.666 100.5 42.999s64.334 8 89.001 8c36.667 0 65.667 -2.33301 87 -7s38.666 -10.667 51.999 -18v-151c-16.667 5.33301 -32.834 9.33301 -48.501 12
s-37.167 4 -64.5 4c-16.667 0 -34 -1.33301 -52 -4s-34.5 -9.83398 -49.5 -21.501s-27.333 -29.5 -37 -53.5s-14.5 -56.333 -14.5 -97v-180h266v-150h-266v-780h-178v780h-201z" />
    <glyph glyph-name="g" unicode="g" horiz-adv-x="1218" 
d="M84 465c0 65.333 11.6719 127.671 35.0049 187.004s56.166 111.666 98.499 156.999s91.833 80.833 148.5 106.5s119 38.5 187 38.5c79.333 0 147.666 -17.333 204.999 -52s100.333 -78.667 129 -132v160h176v-989c0 -83.333 -11.667 -154.333 -35 -213
s-56.166 -106.834 -98.499 -144.501s-92.833 -65 -151.5 -82s-123.334 -25.5 -194.001 -25.5c-88.667 0 -163.5 11.833 -224.5 35.5s-110.167 54.667 -147.5 93s-65 81.666 -83 129.999s-29 97.166 -33 146.499h180c2.66699 -32.667 10.167 -64 22.5 -94
s30.166 -56.333 53.499 -79s53.5 -40.834 90.5 -54.501s82.167 -20.5 135.5 -20.5c46.667 0 88.667 5.83301 126 17.5s69.666 29.834 96.999 54.501s48.5 56.5 63.5 95.5s22.5 85.833 22.5 140.5v221c-28.667 -53.333 -71.667 -97.5 -129 -132.5s-126.333 -52.5 -207 -52.5
c-68 0 -130.333 13 -187 39s-105.834 61.5 -147.501 106.5s-74.167 97 -97.5 156s-35 121.167 -35 186.5zM260.005 465.005c0 -45.333 7.50195 -87.6641 22.502 -126.997s36.167 -73.833 63.5 -103.5s60.166 -53.334 98.499 -71.001s81.166 -26.5 128.499 -26.5
c48 0 91.167 8.83301 129.5 26.5s71.166 41.334 98.499 71.001s48.5 64.167 63.5 103.5s22.5 81.666 22.5 126.999s-7.5 87.666 -22.5 126.999s-36.167 74 -63.5 104s-60.166 54 -98.499 72s-81.5 27 -129.5 27s-91 -9 -129 -27s-70.667 -42 -98 -72
s-48.5 -64.833 -63.5 -104.5s-22.5 -81.834 -22.5 -126.501z" />
    <glyph glyph-name="h" unicode="h" 
d="M160 0v1434h178v-668c27.333 57.333 68.666 103 123.999 137s124 51 206 51c60 0 113.167 -10.167 159.5 -30.5s85.166 -51.166 116.499 -92.499c26 -35.333 44.5 -74.833 55.5 -118.5s16.5 -98.167 16.5 -163.5v-549h-178v494c0 42 -4.16699 81.833 -12.5 119.5
s-21.666 69.834 -39.999 96.501s-42.5 47.834 -72.5 63.501s-66.333 23.5 -109 23.5c-45.333 0 -84.666 -9 -117.999 -27s-60.833 -41.667 -82.5 -71s-38 -63 -49 -101s-16.5 -77.667 -16.5 -119v-479h-178z" />
    <glyph glyph-name="i" unicode="i" horiz-adv-x="565" 
d="M139 1282c0 39.333 13.999 73.333 41.999 102s62 43 102 43c39.333 0 73 -14.333 101 -43s42 -62.667 42 -102s-14 -72.666 -42 -99.999s-61.667 -41 -101 -41s-73.166 13.667 -101.499 41s-42.5 60.666 -42.5 99.999zM194.999 0v930h176v-930h-176z" />
    <glyph glyph-name="j" unicode="j" horiz-adv-x="561" 
d="M10 -348c20.667 -6.66699 37.502 -11.168 50.502 -13.501s24.833 -3.5 35.5 -3.5c31.333 0 55.666 10 72.999 30s26 51.667 26 95v1170h176v-1180c0 -50.667 -5.5 -93.334 -16.5 -128.001s-26 -62.667 -45 -84s-41.5 -36.666 -67.5 -45.999s-54.667 -14 -86 -14
c-23.333 0 -49.333 2.33301 -78 7s-51.334 10.334 -68.001 17.001v150zM139.002 1282c0 39.333 13.999 73.333 41.999 102s62 43 102 43c39.333 0 73 -14.333 101 -43s42 -62.667 42 -102s-14 -72.666 -42 -99.999s-61.667 -41 -101 -41s-73.166 13.667 -101.499 41
s-42.5 60.666 -42.5 99.999z" />
    <glyph glyph-name="k" unicode="k" horiz-adv-x="976" 
d="M160 0v1434h178v-928l389 424h225l-424 -465l424 -465h-225l-389 422v-422h-178z" />
    <glyph glyph-name="l" unicode="l" horiz-adv-x="497" 
d="M160 0v1434h178v-1434h-178z" />
    <glyph glyph-name="m" unicode="m" horiz-adv-x="1687" 
d="M160 0l0.000976562 930h178v-166c19.333 53.333 52.166 98.333 98.499 135s108.5 55 186.5 55c75.333 0 138.166 -17.667 188.499 -53s83.5 -83.666 99.5 -144.999c20.667 53.333 56.667 99.666 108 138.999s120 59 206 59c56 0 104.167 -9.5 144.5 -28.5
s73 -44.833 98 -77.5s43.667 -71.5 56 -116.5s18.5 -92.833 18.5 -143.5v-588h-178v535c0 86 -16.667 151.167 -50 195.5s-82.333 66.5 -147 66.5c-69.333 0 -124.5 -26.667 -165.5 -80s-61.5 -134.666 -61.5 -243.999v-473h-178v524c0 94 -16.667 163 -50 207
s-81 66 -143 66c-69.333 0 -125.166 -26.333 -167.499 -79s-63.5 -134.334 -63.5 -245.001v-473h-178z" />
    <glyph glyph-name="n" unicode="n" 
d="M160 0v929.997h178v-164c27.333 57.333 68.666 103 123.999 137s124 51 206 51c60 0 113.167 -10.167 159.5 -30.5s85.166 -51.166 116.499 -92.499c26 -35.333 44.5 -74.833 55.5 -118.5s16.5 -98.167 16.5 -163.5v-549h-178v494c0 42 -4.16699 81.833 -12.5 119.5
s-21.666 69.834 -39.999 96.501s-42.5 47.834 -72.5 63.501s-66.333 23.5 -109 23.5c-45.333 0 -84.666 -9 -117.999 -27s-60.833 -41.667 -82.5 -71s-38 -63 -49 -101s-16.5 -77.667 -16.5 -119v-479h-178z" />
    <glyph glyph-name="o" unicode="o" horiz-adv-x="1146" 
d="M84 465c0 65.333 11.666 127.666 34.999 186.999s56.166 111.666 98.499 156.999s93.833 80.833 154.5 106.5s127.667 38.5 201 38.5c74 0 141 -12.833 201 -38.5s111.5 -61.167 154.5 -106.5s76.167 -97.666 99.5 -156.999s35 -121.666 35 -186.999
s-11.667 -127.5 -35 -186.5s-56.166 -111 -98.499 -156s-93.833 -80.5 -154.5 -106.5s-128 -39 -202 -39c-75.333 0 -142.833 13 -202.5 39s-110.667 61.5 -153 106.5s-75.166 97 -98.499 156s-35 121.167 -35 186.5zM259.999 465c0 -45.333 7.5 -87.6641 22.5 -126.997
s36.167 -73.833 63.5 -103.5s60 -53.334 98 -71.001s81 -26.5 129 -26.5s91.167 8.83301 129.5 26.5s71.166 41.334 98.499 71.001s48.5 64.167 63.5 103.5s22.5 81.666 22.5 126.999s-7.5 87.666 -22.5 126.999s-36.167 74 -63.5 104s-60.166 54 -98.499 72
s-81.5 27 -129.5 27s-91 -9 -129 -27s-70.667 -42 -98 -72s-48.5 -64.833 -63.5 -104.5s-22.5 -81.834 -22.5 -126.501z" />
    <glyph glyph-name="p" unicode="p" horiz-adv-x="1226" 
d="M160 -504l0.00195312 1434h178v-160c28.667 53.333 71.334 97.333 128.001 132s125.334 52 206.001 52c66.667 0 128.667 -12.833 186 -38.5s107.166 -61.167 149.499 -106.5s75.166 -97.666 98.499 -156.999s35 -121.666 35 -186.999s-11.667 -127.5 -35 -186.5
s-55.833 -110.667 -97.5 -155s-91.167 -79.833 -148.5 -106.5s-120 -40 -188 -40c-80.667 0 -149.334 17.5 -206.001 52.5s-99.334 79.167 -128.001 132.5v-666h-178zM338.002 464.998c0 -45.333 7.50195 -87.668 22.502 -127.001s36.167 -74.166 63.5 -104.499
s60.166 -54 98.499 -71s81.166 -25.5 128.499 -25.5c48 0 91.167 8.83301 129.5 26.5s71.166 41.667 98.499 72s48.166 65.166 62.499 104.499s21.5 81 21.5 125s-7.16699 86 -21.5 126s-35.166 75 -62.499 105s-60.166 54 -98.499 72s-81.5 27 -129.5 27s-91 -9 -129 -27
s-70.667 -41.667 -98 -71s-48.5 -64.166 -63.5 -104.499s-22.5 -82.833 -22.5 -127.5z" />
    <glyph glyph-name="q" unicode="q" horiz-adv-x="1226" 
d="M86 465c0 65.333 11.668 127.668 35.001 187.001s56.166 111.666 98.499 156.999s91.833 80.833 148.5 106.5s119 38.5 187 38.5c80.667 0 149.334 -17.333 206.001 -52s99.334 -78.667 128.001 -132v160h178v-1434h-178v666
c-28.667 -53.333 -71.334 -97.5 -128.001 -132.5s-125.334 -52.5 -206.001 -52.5c-68 0 -130.667 13.333 -188 40s-106.833 62.167 -148.5 106.5s-74.167 96 -97.5 155s-35 121.167 -35 186.5zM264.001 465.002c0 -44 7.16895 -85.667 21.502 -125
s35.166 -74.166 62.499 -104.499s60.166 -54.333 98.499 -72s81.166 -26.5 128.499 -26.5c46.667 0 89.5 8.5 128.5 25.5s72.167 40.667 99.5 71s48.5 65.166 63.5 104.499s22.5 81.666 22.5 126.999s-7.5 88 -22.5 128s-36.167 74.667 -63.5 104s-60.5 53 -99.5 71
s-81.833 27 -128.5 27c-48 0 -91 -9 -129 -27s-70.667 -42 -98 -72s-48.166 -65.167 -62.499 -105.5s-21.5 -82.166 -21.5 -125.499z" />
    <glyph glyph-name="r" unicode="r" horiz-adv-x="747" 
d="M160 0l-0.000976562 930h178v-182c24.667 58.667 65.667 106 123 142s120 54 188 54c34 0 62.667 -4.66699 86 -14v-164c-19.333 4 -34.666 6.66699 -45.999 8s-23.333 2 -36 2c-108 0 -187.5 -33.5 -238.5 -100.5s-76.5 -156.167 -76.5 -267.5v-408h-178z" />
    <glyph glyph-name="s" unicode="s" horiz-adv-x="925" 
d="M82 313h174.004c0 -70.667 20.833 -120.667 62.5 -150s94.5 -44 158.5 -44c56 0 100.833 10.5 134.5 31.5s50.5 54.167 50.5 99.5c0 24.667 -5.5 44.5 -16.5 59.5s-28.5 28.333 -52.5 40s-54.833 22.834 -92.5 33.501s-82.167 25 -133.5 43
c-34 10.667 -66.167 22.5 -96.5 35.5s-57 29.5 -80 49.5s-41.333 43.667 -55 71s-20.5 60.666 -20.5 99.999c0 46.667 9.16699 87 27.5 121s43.166 62.333 74.499 85s67.166 39.334 107.499 50.001s83.166 16 128.499 16c53.333 0 102.5 -7.5 147.5 -22.5
s83.833 -36.5 116.5 -64.5s58.167 -61 76.5 -99s27.5 -80.333 27.5 -127h-172c0 54.667 -16 96.667 -48 126s-78.667 44 -140 44c-50.667 0 -92.334 -10.5 -125.001 -31.5s-49 -52.167 -49 -93.5c0 -23.333 5.83301 -42.5 17.5 -57.5s29 -28 52 -39s50.833 -21.333 83.5 -31
l115 -34.5c32.667 -10.667 65.834 -22.5 99.501 -35.5s63.334 -29.333 89.001 -49s46.667 -44.167 63 -73.5s24.5 -66 24.5 -110c0 -46.667 -9.16699 -87.334 -27.5 -122.001s-43.5 -63.667 -75.5 -87s-69.833 -40.833 -113.5 -52.5s-90.167 -17.5 -139.5 -17.5
c-54.667 0 -105.834 6.83301 -153.501 20.5s-89.334 34.5 -125.001 62.5s-63.667 63.167 -84 105.5s-30.5 91.5 -30.5 147.5z" />
    <glyph glyph-name="t" unicode="t" horiz-adv-x="696" 
d="M41 780v150h172v313h178v-313h242v-150h-242v-428c0 -45.333 3.83301 -81.166 11.5 -107.499s18.334 -46.666 32.001 -60.999s29.667 -23.5 48 -27.5s39.166 -6 62.499 -6c19.333 0 40.833 0.666992 64.5 2s42.5 3.33301 56.5 6v-158
c-18 -2.66699 -41.667 -5.33398 -71 -8.00098s-59.666 -4 -90.999 -4c-28.667 0 -59.834 2.66699 -93.501 8s-65.167 18.666 -94.5 39.999s-53.833 53.833 -73.5 97.5s-29.5 103.5 -29.5 179.5v467h-172z" />
    <glyph glyph-name="u" unicode="u" 
d="M141 381l0.00195312 549.002h178v-492c0 -44 4.16699 -84.333 12.5 -121s21.666 -68.334 39.999 -95.001s42.166 -47.834 71.499 -63.501s65.333 -23.5 108 -23.5c45.333 0 85 8.5 119 25.5s61.833 40.167 83.5 69.5s38 63.166 49 101.499s16.5 78.833 16.5 121.5v477
h178v-930h-178v166c-27.333 -57.333 -69 -103.166 -125 -137.499s-125 -51.5 -207 -51.5c-58.667 0 -111.5 10 -158.5 30s-86.167 50.333 -117.5 91c-26 35.333 -44.167 75 -54.5 119s-15.5 98.667 -15.5 164z" />
    <glyph glyph-name="v" unicode="v" horiz-adv-x="987" 
d="M8 930h193l291 -676l294 676h193l-426 -930h-123z" />
    <glyph glyph-name="w" unicode="w" horiz-adv-x="1503" 
d="M8 930h191l231 -656l234 656h176l231 -656l234 656h190l-360 -930h-123l-260 735l-260 -735h-123z" />
    <glyph glyph-name="x" unicode="x" horiz-adv-x="901" 
d="M33 0l315 469l-311 461h205l209 -324l208 324h205l-311 -461l315 -469h-204l-213 330l-213 -330h-205z" />
    <glyph glyph-name="y" unicode="y" horiz-adv-x="1173" 
d="M143 -121h174.002c2.66699 -74 23.5 -133.5 62.5 -178.5s105.833 -67.5 200.5 -67.5c87.333 0 152.833 23 196.5 69s65.5 123.333 65.5 232v232c-28.667 -57.333 -70.334 -103.166 -125.001 -137.499s-123.667 -51.5 -207 -51.5c-64 0 -119 10.333 -165 31
s-83.333 50 -112 88c-26 35.333 -44 75.333 -54 120s-15 101.667 -15 171v543h178v-488c0 -44 3.83301 -84.667 11.5 -122s20.334 -69.666 38.001 -96.999s41.167 -48.833 70.5 -64.5s66.333 -23.5 111 -23.5c46.667 0 87 8.5 121 25.5s62 40.167 84 69.5
s38.167 63.166 48.5 101.499s15.5 78.833 15.5 121.5v477h178v-996c0 -82 -10.667 -151.833 -32 -209.5s-51 -105 -89 -142s-84 -64 -138 -81s-113.667 -25.5 -179 -25.5c-76.667 0 -142.334 10.167 -197.001 30.5s-99.334 48.666 -134.001 84.999s-61 79 -79 128
s-27.667 102.167 -29 159.5z" />
    <glyph glyph-name="z" unicode="z" horiz-adv-x="888" 
d="M49 0l498 772h-481v158h782l-498 -770h500v-160h-801z" />
    <glyph glyph-name="braceleft" unicode="{" horiz-adv-x="860" 
d="M139 475l-0.000976562 147.998c16.667 0 35.834 3.33301 57.501 10s42.167 17.167 61.5 31.5s35.833 32.833 49.5 55.5s20.5 50.334 20.5 83.001v538c0 48 8.5 89.833 25.5 125.5s38.833 65.334 65.5 89.001s56.667 41.334 90 53.001s66.333 17.5 99 17.5h135v-135h-94
c-52 0 -88.833 -17.833 -110.5 -53.5s-32.5 -76.5 -32.5 -122.5v-535c0 -40.667 -6.83301 -74.667 -20.5 -102s-30.834 -49.833 -51.501 -67.5s-41.834 -31.334 -63.501 -41.001s-40.834 -15.834 -57.501 -18.501c16.667 -4 35.834 -10.5 57.501 -19.5
s42.834 -22.667 63.501 -41s37.834 -42.5 51.501 -72.5s20.5 -68.333 20.5 -115v-471c0 -23.333 2.66699 -45.5 8 -66.5s13.833 -39.667 25.5 -56s26.334 -29.333 44.001 -39s39.5 -14.5 65.5 -14.5h94v-135h-135c-32.667 0 -65.667 5.83301 -99 17.5s-63.333 29 -90 52
s-48.5 52.667 -65.5 89s-25.5 78.166 -25.5 125.499v476c0 35.333 -6.83301 65.333 -20.5 90s-30.167 44.834 -49.5 60.501s-39.833 26.834 -61.5 33.501s-40.834 10 -57.501 10z" />
    <glyph glyph-name="bar" unicode="|" horiz-adv-x="497" 
d="M160 -479v2105h178v-2105h-178z" />
    <glyph glyph-name="braceright" unicode="}" horiz-adv-x="860" 
d="M119 -344l92 0.00292969c50.667 0 87.167 18 109.5 54s33.5 76.667 33.5 122v471c0 46.667 6.83301 85 20.5 115s30.834 54.167 51.501 72.5s41.834 32 63.501 41s40.834 15.5 57.501 19.5c-16.667 2.66699 -35.834 8.83398 -57.501 18.501
s-42.834 23.334 -63.501 41.001s-37.834 40.167 -51.501 67.5s-20.5 61.333 -20.5 102v535c0 46.667 -10.833 87.667 -32.5 123s-58.5 53 -110.5 53h-92v135h135c32.667 0 65.667 -5.83301 99 -17.5s63.333 -29.334 90 -53.001s48.667 -53.334 66 -89.001
s26 -77.5 26 -125.5v-538c0 -32.667 6.66699 -60.334 20 -83.001s29.666 -41.167 48.999 -55.5s39.833 -24.833 61.5 -31.5s40.834 -10 57.501 -10v-148c-16.667 0 -35.834 -3.33301 -57.501 -10s-42.167 -17.834 -61.5 -33.501s-35.666 -35.834 -48.999 -60.501
s-20 -54.667 -20 -90v-476c0 -48 -8.66699 -90 -26 -126s-39.333 -65.5 -66 -88.5s-56.667 -40.333 -90 -52s-66.333 -17.5 -99 -17.5h-135v135z" />
    <glyph glyph-name="asciitilde" unicode="~" horiz-adv-x="1060" 
d="M76 438l-0.00195312 157.999c32.667 40.667 68.834 69.334 108.501 86.001s77.167 25 112.5 25s73.5 -6.5 114.5 -19.5s82.833 -28.5 125.5 -46.5l123 -51.5c36.667 -15 71.334 -22.5 104.001 -22.5c42 0 82.167 12 120.5 36s71.166 49.667 98.499 77v-156
c-32.667 -40.667 -69.167 -70.167 -109.5 -88.5s-80.166 -27.5 -119.499 -27.5c-35.333 0 -70.5 6.33301 -105.5 19s-74.5 30 -118.5 52c-35.333 18 -73.5 33.833 -114.5 47.5s-80.5 20.5 -118.5 20.5c-48 0 -89.333 -10.667 -124 -32s-67 -47 -97 -77z" />
    <glyph glyph-name="nonbreakingspace" unicode="&#xa0;" horiz-adv-x="518" 
 />
    <glyph glyph-name="exclamdown" unicode="&#xa1;" horiz-adv-x="606" 
d="M162 1313c0 39.333 14 73 42 101s61.667 42 101 42s73.5 -14 102.5 -42s43.5 -61.667 43.5 -101s-14.333 -73.5 -43 -102.5s-63 -43.5 -103 -43.5c-39.333 0 -73 14.167 -101 42.5s-42 62.833 -42 103.5zM209 -6v999h194v-999h-194z" />
    <glyph glyph-name="cent" unicode="&#xa2;" horiz-adv-x="1155" 
d="M117 641c0 57.333 8.16797 113 24.501 167s40.5 102.833 72.5 146.5s72 80.5 120 110.5s102.667 49.667 164 59v224h168v-222c58.667 -8 109.5 -23.667 152.5 -47s78.833 -51 107.5 -83s50.5 -67.5 65.5 -106.5s23.833 -78.833 26.5 -119.5h-178
c-5.33301 57.333 -28.166 105.5 -68.499 144.5s-100.166 58.5 -179.499 58.5c-52 0 -96.833 -8.83301 -134.5 -26.5s-68.334 -42 -92.001 -73s-41.334 -66.5 -53.001 -106.5s-17.5 -82 -17.5 -126s5.83301 -85.667 17.5 -125s29.667 -73.666 54 -102.999
s55.666 -53 93.999 -71s84.166 -27 137.499 -27c74 0 129.667 16.5 167 49.5s63.666 77.5 78.999 133.5h178c-13.333 -86 -49.166 -160.167 -107.499 -222.5s-141.166 -100.166 -248.499 -113.499v-221h-168v223c-62.667 9.33301 -117.667 28.666 -165 57.999
s-87 65.5 -119 108.5s-56.167 91.167 -72.5 144.5s-24.5 108.666 -24.5 165.999z" />
    <glyph glyph-name="sterling" unicode="&#xa3;" horiz-adv-x="1204" 
d="M80 688l0.00390625 168.002h139v193c0 60 11.667 114.833 35 164.5s55.5 92.667 96.5 129s88.667 64.333 143 84s112.5 29.5 174.5 29.5c65.333 0 125.666 -11.167 180.999 -33.5s103.166 -53.333 143.499 -93s71.333 -86.834 93 -141.501s32.5 -114.667 32.5 -180h-186
c0 39.333 -5.5 76 -16.5 110s-27.833 63.333 -50.5 88s-50.334 44.167 -83.001 58.5s-71.334 21.5 -116.001 21.5c-79.333 0 -141.5 -20.167 -186.5 -60.5s-68.167 -90.5 -69.5 -150.5l-2 -219h340v-168h-340v-96c0 -101.333 -5.5 -190.833 -16.5 -268.5
s-28.167 -129.5 -51.5 -155.5h664v-168h-877v141c34 32.667 57.833 89.667 71.5 171s20.5 174.666 20.5 279.999v96h-139z" />
    <glyph glyph-name="currency" unicode="&#xa4;" horiz-adv-x="1531" 
d="M197 334l139 138.996c-58.667 82 -88 177 -88 285s29.333 202.667 88 284l-139 140l112 112l137 -139c39.333 28.667 83 51.167 131 67.5s100.667 24.5 158 24.5s110.333 -8.16699 159 -24.5s92.667 -38.166 132 -65.499l137 137l113 -112l-137 -138
c28.667 -40.667 50.834 -85.167 66.501 -133.5s23.5 -99.166 23.5 -152.499s-7.83301 -104.666 -23.5 -153.999s-37.834 -93.666 -66.501 -132.999l135 -137l-111 -113l-137 137c-39.333 -27.333 -83.333 -48.833 -132 -64.5s-101.667 -23.5 -159 -23.5
s-109.5 7.83301 -156.5 23.5s-90.167 37.167 -129.5 64.5l-140 -137zM426 757.996c0 -44 7.16699 -85.834 21.5 -125.501s35.166 -74.5 62.499 -104.5s60 -53.833 98 -71.5s81 -26.5 129 -26.5c46.667 0 89.5 8.5 128.5 25.5s72.167 40.5 99.5 70.5s48.5 64.833 63.5 104.5
s22.5 82.167 22.5 127.5s-7.5 88 -22.5 128s-36.167 74.667 -63.5 104s-60.5 52.833 -99.5 70.5s-81.833 26.5 -128.5 26.5c-48 0 -91 -8.83301 -129 -26.5s-70.667 -41.5 -98 -71.5s-48.166 -65.167 -62.499 -105.5s-21.5 -82.166 -21.5 -125.499z" />
    <glyph glyph-name="yen" unicode="&#xa5;" horiz-adv-x="1214" 
d="M-45 1434h217l438 -676l432 676h215l-530 -832h299v-149h-332v-146h332v-149h-332v-158h-170v158h-325v149h325v146h-325v149h293z" />
    <glyph glyph-name="brokenbar" unicode="&#xa6;" horiz-adv-x="497" 
d="M160 473h178v-952h-178v952zM160 672v954h178v-954h-178z" />
    <glyph glyph-name="section" unicode="&#xa7;" horiz-adv-x="1187" 
d="M90 555c0 76.667 20.832 142.338 62.499 197.005s99.5 91.334 173.5 110.001c-52 32.667 -91 74 -117 124s-39 103.667 -39 161s12 108.5 36 153.5s56.5 83.167 97.5 114.5s88.333 55.5 142 72.5s110.5 25.5 170.5 25.5c66.667 0 128.5 -10.167 185.5 -30.5
s106 -49 147 -86s72.667 -80.667 95 -131s33.5 -106.166 33.5 -167.499h-188c0 75.333 -24.333 137.166 -73 185.499s-116 72.5 -202 72.5c-34 0 -66.333 -4.16699 -97 -12.5s-58 -21 -82 -38s-42.833 -38.5 -56.5 -64.5s-20.5 -56 -20.5 -90
c0 -36.667 7.5 -67.334 22.5 -92.001s35.167 -45.834 60.5 -63.501s54 -32.334 86 -44.001s66 -22.834 102 -33.501c62.667 -19.333 122.667 -39.666 180 -60.999s107.833 -46.333 151.5 -75s78.5 -63.167 104.5 -103.5s39 -89.166 39 -146.499
c0 -40.667 -6.5 -78.667 -19.5 -114s-30.5 -67 -52.5 -95s-47 -51.333 -75 -70s-56.333 -30.667 -85 -36c56 -32.667 97.333 -72.834 124 -120.501s40 -101.834 40 -162.501c0 -58.667 -11.833 -110.5 -35.5 -155.5s-55.667 -82.833 -96 -113.5s-87.5 -54.167 -141.5 -70.5
s-111 -24.5 -171 -24.5c-69.333 0 -133.5 10.167 -192.5 30.5s-109.667 49.333 -152 87s-75.333 82.5 -99 134.5s-35.5 109.333 -35.5 172h188c0 -78 25.667 -142.167 77 -192.5s123.333 -75.5 216 -75.5c34 0 66.333 3.66699 97 11s57.667 19.166 81 35.499
s41.833 37.166 55.5 62.499s20.5 55.666 20.5 90.999s-7.16699 65.333 -21.5 90s-34.166 45.834 -59.499 63.501s-55.5 33.167 -90.5 46.5s-72.167 26 -111.5 38l-182 61.5c-57.333 20.333 -107.5 44.833 -150.5 73.5s-77.5 63.5 -103.5 104.5s-39 91.5 -39 151.5z
M280.999 571.004c0 -44 13.167 -81.1621 39.5 -111.495s70.5 -55.833 132.5 -76.5l247 -84c27.333 1.33301 54 7.5 80 18.5s49 25.667 69 44s36 40.166 48 65.499s18 53.666 18 84.999c0 45.333 -13.167 81.166 -39.5 107.499s-67.5 49.166 -123.5 68.499l-254 90
c-66.667 -2.66699 -119.5 -23.834 -158.5 -63.501s-58.5 -87.5 -58.5 -143.5z" />
    <glyph glyph-name="dieresis" unicode="&#xa8;" horiz-adv-x="1138" 
d="M184 1315c0 39.333 13.332 72.333 39.999 99s59.334 40 98.001 40c38 0 70.333 -13.333 97 -40s40 -59.667 40 -99c0 -38 -13.333 -70 -40 -96s-59 -39 -97 -39s-70.5 13 -97.5 39s-40.5 58 -40.5 96zM654.999 1315c0 39.333 13 72.333 39 99s58.333 40 97 40
c39.333 0 72.333 -13.333 99 -40s40 -59.667 40 -99c0 -38 -13.333 -70 -40 -96s-59.667 -39 -99 -39c-38 0 -70.167 13 -96.5 39s-39.5 58 -39.5 96z" />
    <glyph glyph-name="copyright" unicode="&#xa9;" horiz-adv-x="1650" 
d="M86 717c0 96.667 17 190.499 51 281.499s82.833 171.167 146.5 240.5s141.167 124.833 232.5 166.5s194.333 62.5 309 62.5s217.834 -20.833 309.501 -62.5s169.167 -97.167 232.5 -166.5s112.166 -149.5 146.499 -240.5s51.5 -184.833 51.5 -281.5
s-17.167 -190.5 -51.5 -281.5s-83.166 -171.333 -146.499 -241s-140.833 -125.334 -232.5 -167.001s-194.834 -62.5 -309.501 -62.5s-217.667 20.833 -309 62.5s-168.833 97.334 -232.5 167.001s-112.5 149.834 -146.5 240.501s-51 184.667 -51 282zM252 716.999
c0 -79.333 13.333 -155.833 40 -229.5s64.5 -139.167 113.5 -196.5s109 -103.166 180 -137.499s150.833 -51.5 239.5 -51.5s168.5 17.167 239.5 51.5s131.167 80.166 180.5 137.499s87.333 122.833 114 196.5s40 150.167 40 229.5s-13.333 155.833 -40 229.5
s-64.667 139.167 -114 196.5s-109.5 103 -180.5 137s-150.833 51 -239.5 51s-168.5 -17 -239.5 -51s-131 -79.667 -180 -137s-86.833 -122.833 -113.5 -196.5s-40 -150.167 -40 -229.5zM379 718.999c0 58.667 9.83398 115.669 29.501 171.002s49 104.5 88 147.5
s86.833 77.167 143.5 102.5s122 38 196 38c61.333 0 116.166 -9 164.499 -27s90 -42.333 125 -73s63 -65.834 84 -105.501s34.833 -81.167 41.5 -124.5h-137c-6.66699 27.333 -17.5 53.666 -32.5 78.999s-34.5 47.5 -58.5 66.5s-52 34.333 -84 46s-68 17.5 -108 17.5
c-50.667 0 -95.667 -9.33301 -135 -28s-72.333 -43.667 -99 -75s-46.834 -67.5 -60.501 -108.5s-20.5 -83.167 -20.5 -126.5c0 -45.333 7.5 -88.833 22.5 -130.5s36.167 -78.167 63.5 -109.5s60.833 -56.166 100.5 -74.499s84.167 -27.5 133.5 -27.5
c68 0 125.833 16.333 173.5 49s81.167 73 100.5 121h141c-10.667 -40.667 -28 -78.5 -52 -113.5s-53.667 -65.833 -89 -92.5s-76.166 -47.5 -122.499 -62.5s-96.833 -22.5 -151.5 -22.5c-69.333 0 -132.5 12.667 -189.5 38s-105.333 59.166 -145 101.499s-70 91.5 -91 147.5
s-31.5 114.667 -31.5 176z" />
    <glyph glyph-name="ordfeminine" unicode="&#xaa;" horiz-adv-x="1222" 
d="M84 465c0 65.333 11.6699 127.668 35.0029 187.001s56.166 111.666 98.499 156.999s91.833 80.833 148.5 106.5s119 38.5 187 38.5c79.333 0 147.666 -17.333 204.999 -52s100.333 -78.667 129 -132v160h176v-930h-176v162c-28.667 -53.333 -71.667 -97.5 -129 -132.5
s-126.333 -52.5 -207 -52.5c-68 0 -130.333 13 -187 39s-105.834 61.5 -147.501 106.5s-74.167 97 -97.5 156s-35 121.167 -35 186.5zM260.003 465.002c0 -45.333 7.5 -87.6641 22.5 -126.997s36.167 -73.833 63.5 -103.5s60 -53.334 98 -71.001s81 -26.5 129 -26.5
s91.167 8.83301 129.5 26.5s71.166 41.334 98.499 71.001s48.5 64.167 63.5 103.5s22.5 81.666 22.5 126.999s-7.5 87.666 -22.5 126.999s-36.167 74 -63.5 104s-60.166 54 -98.499 72s-81.5 27 -129.5 27s-91 -9 -129 -27s-70.667 -42 -98 -72s-48.5 -64.833 -63.5 -104.5
s-22.5 -81.834 -22.5 -126.501z" />
    <glyph glyph-name="guillemotleft" unicode="&#xab;" horiz-adv-x="966" 
d="M82 543v108l401 342v-176l-258 -221l258 -221v-174zM483 543v108l402 342v-176l-258 -221l258 -221v-174z" />
    <glyph glyph-name="logicalnot" unicode="&#xac;" horiz-adv-x="1177" 
d="M176 623v159h828v-465h-179v306h-649z" />
    <glyph glyph-name="softhyphen" unicode="&#xad;" horiz-adv-x="602" 
d="M61 504v160h480v-160h-480z" />
    <glyph glyph-name="registered" unicode="&#xae;" horiz-adv-x="1654" 
d="M86 717c0 96.667 17 190.499 51 281.499s82.833 171.167 146.5 240.5s141.5 124.833 233.5 166.5s195.333 62.5 310 62.5s218.167 -20.833 310.5 -62.5s170.166 -97.167 233.499 -166.5s112.166 -149.5 146.499 -240.5s51.5 -184.833 51.5 -281.5
s-17.167 -190.5 -51.5 -281.5s-83.166 -171.333 -146.499 -241s-141.166 -125.334 -233.499 -167.001s-195.833 -62.5 -310.5 -62.5s-218 20.833 -310 62.5s-169.833 97.334 -233.5 167.001s-112.5 149.834 -146.5 240.501s-51 184.667 -51 282zM252 716.999
c0 -79.333 13.333 -155.833 40 -229.5s64.5 -139.167 113.5 -196.5s109 -103.166 180 -137.499s151.5 -51.5 241.5 -51.5s170.667 17.167 242 51.5s131.5 80.166 180.5 137.499s86.833 122.833 113.5 196.5s40 150.167 40 229.5s-13.333 155.833 -40 229.5
s-64.5 139.167 -113.5 196.5s-109 103 -180 137s-151.833 51 -242.5 51c-90 0 -170.5 -17 -241.5 -51s-131 -79.667 -180 -137s-86.833 -122.833 -113.5 -196.5s-40 -150.167 -40 -229.5zM561 331.999l0.000976562 833h324c42 0 80.833 -7.5 116.5 -22.5
s65.667 -35.5 90 -61.5s43.333 -56.333 57 -91s20.5 -71 20.5 -109c0 -61.333 -16.333 -116 -49 -164s-78.334 -81.667 -137.001 -101l178 -284h-145l-166 266h-160v-266h-129zM690.001 710.999h182c49.333 0 88.333 16.667 117 50s43 73.333 43 120s-14.333 87 -43 121
s-67.667 51 -117 51h-182v-342z" />
    <glyph glyph-name="macron" unicode="&#xaf;" horiz-adv-x="1110" 
d="M188 1481v159h734v-159h-734z" />
    <glyph glyph-name="degree" unicode="&#xb0;" horiz-adv-x="673" 
d="M43 1176c0 40.667 7.50293 78.6699 22.5029 114.003s35.833 66.333 62.5 93s57.667 47.5 93 62.5s73.666 22.5 114.999 22.5c40.667 0 78.834 -7.5 114.501 -22.5s66.834 -35.833 93.501 -62.5s47.5 -57.667 62.5 -93s22.5 -73.333 22.5 -114
s-7.5 -78.834 -22.5 -114.501s-35.833 -66.834 -62.5 -93.501s-57.834 -47.5 -93.501 -62.5s-73.834 -22.5 -114.501 -22.5s-78.834 7.5 -114.501 22.5s-66.834 35.833 -93.501 62.5s-47.5 57.667 -62.5 93s-22.5 73.666 -22.5 114.999zM172.003 1176
c0 -46.667 16 -86 48 -118s70.667 -48 116 -48c46.667 0 86 16 118 48s48 71.333 48 118c0 45.333 -16 84.5 -48 117.5s-71.333 49.5 -118 49.5c-45.333 0 -84 -16.667 -116 -50s-48 -72.333 -48 -117z" />
    <glyph glyph-name="plusminus" unicode="&#xb1;" horiz-adv-x="1177" 
d="M180 49v160h817v-160h-817zM180 776v160h320v330h178v-330h319v-160h-319v-327h-178v327h-320z" />
    <glyph glyph-name="twosuperior" unicode="&#xb2;" horiz-adv-x="1079" 
d="M113 645c0 62.667 4.99609 115.835 14.9961 159.502s24.333 80.667 43 111s41.667 55.333 69 75s58 38.5 92 56.5c48 24.667 88.667 49.167 122 73.5s50 59.166 50 104.499c0 35.333 -10.667 62.5 -32 81.5s-49.666 28.5 -84.999 28.5c-36.667 0 -67 -11.167 -91 -33.5
s-36 -56.833 -36 -103.5h-145c0 72.667 23.833 132.5 71.5 179.5s114.5 70.5 200.5 70.5c36.667 0 70.834 -4.83301 102.501 -14.5s59 -24 82 -43s41.333 -42.5 55 -70.5s20.5 -60.333 20.5 -97s-6.5 -68.834 -19.5 -96.501s-29.667 -51.667 -50 -72
s-42.833 -37.666 -67.5 -51.999l-70 -39.5c-31.333 -16.667 -57.166 -31.834 -77.499 -45.501s-36.666 -27.667 -48.999 -42s-20.833 -30 -25.5 -47s-7 -37.833 -7 -62.5h366v-121h-534z" />
    <glyph glyph-name="threesuperior" unicode="&#xb3;" horiz-adv-x="1144" 
d="M98 897l145.997 0.00488281c0 -46.667 13.333 -82.834 40 -108.501s61 -38.5 103 -38.5s74.333 11.833 97 35.5s34 54.167 34 91.5c0 35.333 -11.167 64.5 -33.5 87.5s-57.5 34.5 -105.5 34.5h-68v115h68c46.667 0 79.5 11 98.5 33s28.5 48.667 28.5 80
c0 36.667 -11 63.834 -33 81.501s-50.667 26.5 -86 26.5c-44 0 -75.5 -11.5 -94.5 -34.5s-28.5 -54.5 -28.5 -94.5h-145c0 66.667 21.833 123.667 65.5 171s109.834 71 198.501 71c36.667 0 71.5 -4.83301 104.5 -14.5s61.333 -23.334 85 -41.001s42.667 -40.167 57 -67.5
s21.5 -58 21.5 -92c0 -46.667 -11.833 -85.334 -35.5 -116.001s-54.167 -51.334 -91.5 -62.001c42 -12 75.833 -34.833 101.5 -68.5s38.5 -75.167 38.5 -124.5c0 -36.667 -7.16699 -69.334 -21.5 -98.001s-34.166 -52.834 -59.499 -72.501s-55.166 -34.667 -89.499 -45
s-71.166 -15.5 -110.499 -15.5c-88.667 0 -158.334 24.5 -209.001 73.5s-76 113.167 -76 192.5z" />
    <glyph glyph-name="acute" unicode="&#xb4;" horiz-adv-x="1013" 
d="M123 1219l510 280l86 -139l-510 -281z" />
    <glyph glyph-name="uni00B5" unicode="&#xb5;" horiz-adv-x="1177" 
d="M160 -504l0.00195312 1434h178v-492c0 -44 4 -84.333 12 -121s21.333 -68.667 40 -96s43 -48.5 73 -63.5s66 -22.5 108 -22.5c45.333 0 84.666 8.5 117.999 25.5s61 40.167 83 69.5s38.5 63.166 49.5 101.499s16.5 78.833 16.5 121.5v477h178v-930h-178v166
c-28.667 -58.667 -71.334 -104.834 -128.001 -138.501s-122.667 -50.5 -198 -50.5c-74 0 -132 19.333 -174 58v-539h-178z" />
    <glyph glyph-name="paragraph" unicode="&#xb6;" horiz-adv-x="1337" 
d="M31 1067c0 90 18.3311 161.333 54.998 214s81.334 93 134.001 121s108.334 46 167.001 54s110 12 154 12h653v-147h-109v-1624h-170v1622h-274v-1622h-168v977c-62.667 0 -121 7.83301 -175 23.5s-100.833 39.5 -140.5 71.5s-70.667 72.667 -93 122s-33.5 108 -33.5 176z
" />
    <glyph glyph-name="periodcentered" unicode="&#xb7;" horiz-adv-x="522" 
d="M119 639c0 39.333 13.667 73.333 41 102s60.666 43 99.999 43s73.5 -14.333 102.5 -43s43.5 -62.667 43.5 -102s-14.5 -72.666 -43.5 -99.999s-63.167 -41 -102.5 -41s-72.666 13.667 -99.999 41s-41 60.666 -41 99.999z" />
    <glyph glyph-name="cedilla" unicode="&#xb8;" horiz-adv-x="978" 
d="M297 -301h108.999c4 -24.667 13.833 -44.5 29.5 -59.5s36.5 -22.5 62.5 -22.5c28.667 0 51.834 9.16699 69.501 27.5s26.5 41.833 26.5 70.5c0 30 -8.83301 53.333 -26.5 70s-40.167 25 -67.5 25c-15.333 0 -29.833 -3.5 -43.5 -10.5s-25.834 -20.833 -36.501 -41.5h-94
v242h118v-145c19.333 27.333 48.666 41 87.999 41c20.667 0 41.334 -4.16699 62.001 -12.5s39.167 -20.333 55.5 -36s29.166 -34.5 38.499 -56.5s14 -46 14 -72s-4.66699 -50.833 -14 -74.5s-22.5 -44.667 -39.5 -63s-37.5 -33 -61.5 -44s-51 -16.5 -81 -16.5
c-15.333 0 -33.833 2 -55.5 6s-43.167 12.5 -64.5 25.5s-40.166 31.167 -56.499 54.5s-27.166 54 -32.499 92z" />
    <glyph glyph-name="onesuperior" unicode="&#xb9;" horiz-adv-x="706" 
d="M96 1192v106c36.667 0 66.667 2.83301 90 8.5s41.5 14 54.5 25s21.833 25 26.5 42s7 37.167 7 60.5h132v-789h-150v547h-160z" />
    <glyph glyph-name="ordmasculine" unicode="&#xba;" horiz-adv-x="1146" 
d="M84 465c0 65.333 11.666 127.666 34.999 186.999s56.166 111.666 98.499 156.999s93.833 80.833 154.5 106.5s127.667 38.5 201 38.5c74 0 141 -12.833 201 -38.5s111.5 -61.167 154.5 -106.5s76.167 -97.666 99.5 -156.999s35 -121.666 35 -186.999
s-11.667 -127.5 -35 -186.5s-56.166 -111 -98.499 -156s-93.833 -80.5 -154.5 -106.5s-128 -39 -202 -39c-75.333 0 -142.833 13 -202.5 39s-110.667 61.5 -153 106.5s-75.166 97 -98.499 156s-35 121.167 -35 186.5zM259.999 465c0 -45.333 7.5 -87.6641 22.5 -126.997
s36.167 -73.833 63.5 -103.5s60 -53.334 98 -71.001s81 -26.5 129 -26.5s91.167 8.83301 129.5 26.5s71.166 41.334 98.499 71.001s48.5 64.167 63.5 103.5s22.5 81.666 22.5 126.999s-7.5 87.666 -22.5 126.999s-36.167 74 -63.5 104s-60.166 54 -98.499 72
s-81.5 27 -129.5 27s-91 -9 -129 -27s-70.667 -42 -98 -72s-48.5 -64.833 -63.5 -104.5s-22.5 -81.834 -22.5 -126.501z" />
    <glyph glyph-name="guillemotright" unicode="&#xbb;" horiz-adv-x="966" 
d="M82 201v174l258 221l-258 221v176l401 -342v-108zM483 201v174l258 221l-258 221v176l402 -342v-108z" />
    <glyph glyph-name="onequarter" unicode="&#xbc;" horiz-adv-x="1884" 
d="M158 1192v106c36.667 0 66.667 2.83301 90 8.5s41.5 14 54.5 25s21.833 25 26.5 42s7 37.167 7 60.5h131v-789h-150v547h-159zM307 -12l895 1542l144 -82l-897 -1542zM1161 238v550h146v-428h166v230h147v-230h106v-122h-106v-238h-147v238h-312z" />
    <glyph glyph-name="onehalf" unicode="&#xbd;" horiz-adv-x="1884" 
d="M174 1192v106c36.667 0 66.667 2.83301 90 8.5s41.5 14 54.5 25s21.833 25 26.5 42s7 37.167 7 60.5h131v-789h-149v547h-160zM324 -12l895 1542l143 -82l-897 -1542zM1176 0c0 62.667 4.99805 115.831 14.998 159.498s24.333 80.5 43 110.5s41.5 55 68.5 75
s57.833 38.667 92.5 56c48 24.667 88.667 49.334 122 74.001s50 59.667 50 105c0 35.333 -10.667 62.5 -32 81.5s-49.666 28.5 -84.999 28.5c-36.667 0 -67 -11.167 -91 -33.5s-36 -56.833 -36 -103.5h-145c0 72.667 23.833 132.5 71.5 179.5s114.5 70.5 200.5 70.5
c36.667 0 70.667 -4.83301 102 -14.5s58.666 -24 81.999 -43s41.833 -42.5 55.5 -70.5s20.5 -60.333 20.5 -97s-6.5 -68.834 -19.5 -96.501s-29.667 -51.667 -50 -72s-42.833 -37.666 -67.5 -51.999l-70 -40.5c-31.333 -16.667 -57.166 -31.667 -77.499 -45
s-36.666 -27.166 -48.999 -41.499s-21 -30 -26 -47s-7.5 -37.833 -7.5 -62.5h367v-121h-534z" />
    <glyph glyph-name="threequarters" unicode="&#xbe;" horiz-adv-x="1884" 
d="M121 897l144.998 0.00488281c0 -46.667 13.333 -82.834 40 -108.501s61.334 -38.5 104.001 -38.5c42 0 74.333 11.833 97 35.5s34 54.167 34 91.5c0 35.333 -11.333 64.5 -34 87.5s-58 34.5 -106 34.5h-67v115h67c46.667 0 79.5 11 98.5 33s28.5 48.667 28.5 80
c0 36.667 -10.833 63.834 -32.5 81.501s-50.167 26.5 -85.5 26.5c-44 0 -75.5 -11.5 -94.5 -34.5s-28.5 -54.5 -28.5 -94.5h-146c0 66.667 21.833 123.667 65.5 171s110.167 71 199.5 71c36.667 0 71.334 -4.83301 104.001 -14.5s61 -23.334 85 -41.001
s43.167 -40.167 57.5 -67.5s21.5 -58 21.5 -92c0 -46.667 -12 -85.334 -36 -116.001s-54.333 -51.334 -91 -62.001c42 -12 75.667 -34.833 101 -68.5s38 -75.167 38 -124.5c0 -36.667 -7.16699 -69.334 -21.5 -98.001s-34.166 -52.834 -59.499 -72.501s-55 -34.667 -89 -45
s-70.667 -15.5 -110 -15.5c-88.667 0 -158.334 24.5 -209.001 73.5s-76 113.167 -76 192.5zM343.998 -11.9951l895 1542l143 -82l-897 -1542zM1198 238.005v550h145v-428h166v230h148v-230h106v-122h-106v-238h-148v238h-311z" />
    <glyph glyph-name="questiondown" unicode="&#xbf;" horiz-adv-x="1032" 
d="M90 369c0 52 7.83301 97.3291 23.5 135.996s34.834 72.334 57.501 101.001s47 53.667 73 75s49 39.333 69 54c32.667 24.667 60 46.5 82 65.5s39.167 39.833 51.5 62.5s20.833 48.334 25.5 77.001s7 65.667 7 111h180c0 -49.333 -3.33301 -93.166 -10 -131.499
s-16.834 -72.5 -30.501 -102.5s-32.167 -57.667 -55.5 -83s-51.333 -49.333 -84 -72l-72.5 -54.5c-23.667 -18.333 -45.5 -39.166 -65.5 -62.499s-35.833 -49 -47.5 -77s-17.5 -60.333 -17.5 -97c0 -74 23.667 -130.167 71 -168.5s107 -57.5 179 -57.5
c82 0 148 24.333 198 73s75 118 75 208h186c0 -69.333 -12 -132 -36 -188s-56.333 -103.167 -97 -141.5s-89 -67.833 -145 -88.5s-116.333 -31 -181 -31c-61.333 0 -118.333 9.33301 -171 28s-98.667 44.667 -138 78s-70.333 74.333 -93 123s-34 103 -34 163zM418 1315
c0 40.667 14.667 75.6689 44 105.002s65 44 107 44s77.167 -14.667 105.5 -44s42.5 -64.333 42.5 -105s-14 -75.834 -42 -105.501s-63.333 -44.5 -106 -44.5c-42 0 -77.667 14.667 -107 44s-44 64.666 -44 105.999z" />
    <glyph glyph-name="Agrave" unicode="&#xc0;" horiz-adv-x="1144" 
d="M10 0l494 1434h135l496 -1434h-197l-76 219h-581l-74 -219h-197zM309 1815l86 141l510 -281l-86 -141zM338 389h467l-232 739z" />
    <glyph glyph-name="Aacute" unicode="&#xc1;" horiz-adv-x="1144" 
d="M10 0l494 1434h135l496 -1434h-197l-76 219h-581l-74 -219h-197zM276 1645l510 280l84 -139l-510 -281zM338 389h467l-232 739z" />
    <glyph glyph-name="Acircumflex" unicode="&#xc2;" horiz-adv-x="1144" 
d="M10 0l494 1434h135l496 -1434h-197l-76 219h-581l-74 -219h-197zM205 1663l366 297l371 -297l-111 -125l-258 209l-256 -207zM338 389h467l-232 739z" />
    <glyph glyph-name="Atilde" unicode="&#xc3;" horiz-adv-x="1144" 
d="M10 0l494 1434h135l496 -1434h-197l-76 219h-581l-74 -219h-197zM213 1747c30 19.333 55.6689 33.998 77.002 43.998s40.166 17.833 56.499 23.5s30.666 8.83398 42.999 9.50098s23.833 1 34.5 1c15.333 0 36.166 -2.83301 62.499 -8.5s53.833 -12.167 82.5 -19.5
s57 -13.833 85 -19.5s51.667 -8.5 71 -8.5c13.333 0 30 3.5 50 10.5s54 22.167 102 45.5l69 -115c-52 -39.333 -95.333 -63.166 -130 -71.499s-59.667 -12.5 -75 -12.5c-22 0 -46.167 2.66699 -72.5 8s-53.166 11.5 -80.499 18.5s-54 13.167 -80 18.5s-48.667 8 -68 8
c-22 0 -44.5 -4 -67.5 -12s-50.167 -20.333 -81.5 -37zM338.002 388.998h467l-232 739z" />
    <glyph glyph-name="Adieresis" unicode="&#xc4;" horiz-adv-x="1144" 
d="M10 0l494 1434h135l496 -1434h-197l-76 219h-581l-74 -219h-197zM197 1726c0 39.333 13.667 73.5 41 102.5s60.666 43.5 99.999 43.5s73.333 -14.333 102 -43s43 -63 43 -103c0 -39.333 -14.333 -72.666 -43 -99.999s-62.667 -41 -102 -41s-72.666 13.667 -99.999 41
s-41 60.666 -41 99.999zM338 389h467l-232 739zM666 1726c0 39.333 14 73.5 42 102.5s61.667 43.5 101 43.5s73 -14.333 101 -43s42 -63 42 -103c0 -39.333 -14 -72.666 -42 -99.999s-61.667 -41 -101 -41s-73 13.667 -101 41s-42 60.666 -42 99.999z" />
    <glyph glyph-name="Aring" unicode="&#xc5;" horiz-adv-x="1144" 
d="M10 0l494 1434h135l496 -1434h-197l-76 219h-581l-74 -219h-197zM322 1747c0 34 6.33398 66.335 19.001 97.002s30.667 57.667 54 81s50 41.5 80 54.5s62.667 19.5 98 19.5c34 0 66.5 -6.83301 97.5 -20.5s58 -31.834 81 -54.501s41 -49.334 54 -80.001
s19.5 -63 19.5 -97s-6.5 -66.333 -19.5 -97s-31 -57.334 -54 -80.001s-49.833 -40.834 -80.5 -54.501s-63.334 -20.5 -98.001 -20.5c-35.333 0 -68 6.83301 -98 20.5s-56.667 31.834 -80 54.501s-41.333 49.334 -54 80.001s-19 63 -19 97zM338.001 389.002h467l-232 739z
M453.001 1747c0 -31.333 11.5 -58.999 34.5 -82.999s51.5 -36 85.5 -36c32.667 0 60.667 12 84 36s35 52.333 35 85s-11.333 61 -34 85s-51 36 -85 36s-62.5 -12.333 -85.5 -37s-34.5 -53.334 -34.5 -86.001z" />
    <glyph glyph-name="AE" unicode="&#xc6;" horiz-adv-x="1771" 
d="M4 0l707 1434h903v-168h-617v-469h617v-168h-617v-461h617v-168h-805v221h-494l-106 -221h-205zM395 389h414v856z" />
    <glyph glyph-name="Ccedilla" unicode="&#xc7;" horiz-adv-x="1587" 
d="M84 719c0 96.667 16.3301 190.166 48.9971 280.499s80.5 169.833 143.5 238.5s140.5 123.834 232.5 165.501s197.333 62.5 316 62.5c96.667 0 184.334 -14 263.001 -42s147 -65.833 205 -113.5s105.167 -104.334 141.5 -170.001s60.5 -135.167 72.5 -208.5h-196
c-10.667 52 -29 100.5 -55 145.5s-59.5 83.833 -100.5 116.5s-88.5 58.167 -142.5 76.5s-114.667 27.5 -182 27.5c-88.667 0 -167.334 -16 -236.001 -48s-126.667 -75 -174 -129s-83.666 -115.833 -108.999 -185.5s-38 -141.834 -38 -216.501
c0 -79.333 13.667 -154.166 41 -224.499s65.666 -132.166 114.999 -185.499s108.5 -95.666 177.5 -126.999s145.833 -47 230.5 -47c58.667 0 113.167 7.83301 163.5 23.5s95.333 37.167 135 64.5s73.5 59.833 101.5 97.5s49.667 78.167 65 121.5h204
c-18 -65.333 -46 -126 -84 -182s-84.667 -105.167 -140 -147.5s-118.5 -76.166 -189.5 -101.499s-147.5 -39.333 -229.5 -42h-16v-84c20.667 24.667 50 37 88 37c20.667 0 40.834 -4 60.501 -12s37.667 -19.5 54 -34.5s29.333 -33.167 39 -54.5s14.5 -45.666 14.5 -72.999
c0 -24.667 -4.5 -48.834 -13.5 -72.501s-22 -44.834 -39 -63.501s-37.833 -33.5 -62.5 -44.5s-52 -16.5 -82 -16.5c-16.667 0 -35.5 2.5 -56.5 7.5s-41.667 13.667 -62 26s-38.333 29.666 -54 51.999s-26.5 51.5 -32.5 87.5h109c10.667 -50.667 40 -76 88 -76
c28.667 0 51.834 9.16699 69.501 27.5s26.5 41.166 26.5 68.499c0 28.667 -8.83301 51.5 -26.5 68.5s-40.167 25.5 -67.5 25.5c-15.333 0 -29.666 -3.33301 -42.999 -10s-25 -19.667 -35 -39h-92v184c-102.667 12 -193.834 40.333 -273.501 85s-147.167 100.5 -202.5 167.5
s-97.666 142.833 -126.999 227.5s-44 173.334 -44 266.001z" />
    <glyph glyph-name="Egrave" unicode="&#xc8;" horiz-adv-x="1114" 
d="M160 0v1434h805v-168h-619v-469h619v-168h-619v-461h619v-168h-805zM297 1788l84 139l510 -280l-84 -140z" />
    <glyph glyph-name="Eacute" unicode="&#xc9;" horiz-adv-x="1114" 
d="M160 0v1434h805v-168h-619v-469h619v-168h-619v-461h619v-168h-805zM270 1675l510 281l86 -141l-510 -281z" />
    <glyph glyph-name="Ecircumflex" unicode="&#xca;" horiz-adv-x="1114" 
d="M160 0v1434h805v-168h-619v-469h619v-168h-619v-461h619v-168h-805zM201 1663l366 297l371 -297l-111 -125l-258 209l-256 -207z" />
    <glyph glyph-name="Edieresis" unicode="&#xcb;" horiz-adv-x="1114" 
d="M160 0v1434h805v-168h-619v-469h619v-168h-619v-461h619v-168h-805zM207 1726c0 39.333 14.001 73.5 42.001 102.5s61.667 43.5 101 43.5s73.166 -14.333 101.499 -43s42.5 -63 42.5 -103c0 -39.333 -14 -72.666 -42 -99.999s-62 -41 -102 -41
c-39.333 0 -73 13.667 -101 41s-42 60.666 -42 99.999zM678.001 1726c0 39.333 13.667 73.5 41 102.5s60.666 43.5 99.999 43.5s73.5 -14.333 102.5 -43s43.5 -63 43.5 -103c0 -39.333 -14.333 -72.666 -43 -99.999s-63 -41 -103 -41c-39.333 0 -72.666 13.667 -99.999 41
s-41 60.666 -41 99.999z" />
    <glyph glyph-name="Igrave" unicode="&#xcc;" horiz-adv-x="512" 
d="M-41 1786l86 139l510 -280l-86 -140zM160 0v1434h192v-1434h-192z" />
    <glyph glyph-name="Iacute" unicode="&#xcd;" horiz-adv-x="512" 
d="M-41 1645l510 280l86 -139l-510 -281zM160 0v1434h192v-1434h-192z" />
    <glyph glyph-name="Icircumflex" unicode="&#xce;" horiz-adv-x="512" 
d="M-113 1663l369 297l371 -297l-111 -125l-258 209l-256 -207zM160 0v1434h192v-1434h-192z" />
    <glyph glyph-name="Idieresis" unicode="&#xcf;" horiz-adv-x="512" 
d="M-102 1726c0 39.333 14 73.5 42 102.5s61.667 43.5 101 43.5s73 -14.333 101 -43s42 -63 42 -103c0 -39.333 -14 -72.666 -42 -99.999s-61.667 -41 -101 -41c-40.667 0 -74.667 13.667 -102 41s-41 60.666 -41 99.999zM160 0v1434h192v-1434h-192zM367 1726
c0 39.333 14 73.5 42 102.5s61.667 43.5 101 43.5s73 -14.333 101 -43s42 -63 42 -103c0 -39.333 -14 -72.666 -42 -99.999s-61.667 -41 -101 -41s-73 13.667 -101 41s-42 60.666 -42 99.999z" />
    <glyph glyph-name="Eth" unicode="&#xd0;" horiz-adv-x="1427" 
d="M-76 639v158h236v637h442c117.333 0 222.166 -20.5 314.499 -61.5s170.166 -95 233.499 -162s111.833 -143.5 145.5 -229.5s50.5 -174 50.5 -264s-16.833 -178 -50.5 -264s-82.167 -162.5 -145.5 -229.5s-141.166 -121 -233.499 -162s-197.166 -61.5 -314.499 -61.5h-442
v639h-236zM346 168l256 0.00195312c87.333 0 165.5 15.667 234.5 47s126.667 72.666 173 123.999s81.833 109.666 106.5 174.999s37 133 37 203c0 69.333 -12.333 136.833 -37 202.5s-60.167 124 -106.5 175s-104 92.333 -173 124s-147.167 47.5 -234.5 47.5h-256v-469h248
v-158h-248v-471z" />
    <glyph glyph-name="Ntilde" unicode="&#xd1;" horiz-adv-x="1357" 
d="M160 0v1434h207l645 -1108v1108h186v-1434h-207l-645 1108v-1108h-186zM299 1747c30 19.333 55.6689 33.998 77.002 43.998s40.166 17.833 56.499 23.5s30.666 8.83398 42.999 9.50098s23.833 1 34.5 1c15.333 0 36.166 -2.83301 62.499 -8.5s53.833 -12.167 82.5 -19.5
s57 -13.833 85 -19.5s51.667 -8.5 71 -8.5c13.333 0 30 3.5 50 10.5s54 22.167 102 45.5l69 -115c-52 -39.333 -95.333 -63.166 -130 -71.499s-59.667 -12.5 -75 -12.5c-22 0 -46.167 2.66699 -72.5 8s-53.166 11.5 -80.499 18.5s-54 13.167 -80 18.5s-48.667 8 -68 8
c-22 0 -44.5 -4 -67.5 -12s-50.167 -20.333 -81.5 -37z" />
    <glyph glyph-name="Ograve" unicode="&#xd2;" horiz-adv-x="1644" 
d="M84 717c0 96.667 17 190.167 51 280.5s82.833 170.166 146.5 239.499s141.167 124.833 232.5 166.5s194.333 62.5 309 62.5s217.834 -20.833 309.501 -62.5s169.167 -97.167 232.5 -166.5s112.166 -149.166 146.499 -239.499s51.5 -183.833 51.5 -280.5
s-17.167 -190.167 -51.5 -280.5s-83.166 -170.333 -146.499 -240s-140.833 -125.334 -232.5 -167.001s-194.834 -62.5 -309.501 -62.5s-217.667 20.833 -309 62.5s-168.833 97.334 -232.5 167.001s-112.5 149.5 -146.5 239.5s-51 183.667 -51 281zM279 717
c0 -75.333 12.5 -147.833 37.5 -217.5s61.167 -131.5 108.5 -185.5s104.333 -97.333 171 -130s142.334 -49 227.001 -49c83.333 0 158.833 16.333 226.5 49s124.667 76 171 130s82.166 115.833 107.499 185.5s38 142.167 38 217.5s-12.667 148 -38 218
s-61.166 132 -107.499 186s-103.333 97 -171 129s-143.167 48 -226.5 48c-84.667 0 -160.334 -16 -227.001 -48s-123.667 -75 -171 -129s-83.5 -116.167 -108.5 -186.5s-37.5 -142.833 -37.5 -217.5zM551 1815l86 141l510 -281l-86 -141z" />
    <glyph glyph-name="Oacute" unicode="&#xd3;" horiz-adv-x="1644" 
d="M84 717c0 96.667 17 190.167 51 280.5s82.833 170.166 146.5 239.499s141.167 124.833 232.5 166.5s194.333 62.5 309 62.5s217.834 -20.833 309.501 -62.5s169.167 -97.167 232.5 -166.5s112.166 -149.166 146.499 -239.499s51.5 -183.833 51.5 -280.5
s-17.167 -190.167 -51.5 -280.5s-83.166 -170.333 -146.499 -240s-140.833 -125.334 -232.5 -167.001s-194.834 -62.5 -309.501 -62.5s-217.667 20.833 -309 62.5s-168.833 97.334 -232.5 167.001s-112.5 149.5 -146.5 239.5s-51 183.667 -51 281zM279 717
c0 -75.333 12.5 -147.833 37.5 -217.5s61.167 -131.5 108.5 -185.5s104.333 -97.333 171 -130s142.334 -49 227.001 -49c83.333 0 158.833 16.333 226.5 49s124.667 76 171 130s82.166 115.833 107.499 185.5s38 142.167 38 217.5s-12.667 148 -38 218
s-61.166 132 -107.499 186s-103.333 97 -171 129s-143.167 48 -226.5 48c-84.667 0 -160.334 -16 -227.001 -48s-123.667 -75 -171 -129s-83.5 -116.167 -108.5 -186.5s-37.5 -142.833 -37.5 -217.5zM492 1675l509 281l86 -141l-509 -281z" />
    <glyph glyph-name="Ocircumflex" unicode="&#xd4;" horiz-adv-x="1644" 
d="M84 717c0 96.667 17 190.167 51 280.5s82.833 170.166 146.5 239.499s141.167 124.833 232.5 166.5s194.333 62.5 309 62.5s217.834 -20.833 309.501 -62.5s169.167 -97.167 232.5 -166.5s112.166 -149.166 146.499 -239.499s51.5 -183.833 51.5 -280.5
s-17.167 -190.167 -51.5 -280.5s-83.166 -170.333 -146.499 -240s-140.833 -125.334 -232.5 -167.001s-194.834 -62.5 -309.501 -62.5s-217.667 20.833 -309 62.5s-168.833 97.334 -232.5 167.001s-112.5 149.5 -146.5 239.5s-51 183.667 -51 281zM279 717
c0 -75.333 12.5 -147.833 37.5 -217.5s61.167 -131.5 108.5 -185.5s104.333 -97.333 171 -130s142.334 -49 227.001 -49c83.333 0 158.833 16.333 226.5 49s124.667 76 171 130s82.166 115.833 107.499 185.5s38 142.167 38 217.5s-12.667 148 -38 218
s-61.166 132 -107.499 186s-103.333 97 -171 129s-143.167 48 -226.5 48c-84.667 0 -160.334 -16 -227.001 -48s-123.667 -75 -171 -129s-83.5 -116.167 -108.5 -186.5s-37.5 -142.833 -37.5 -217.5zM455 1663l368 297l369 -297l-111 -125l-258 209l-256 -207z" />
    <glyph glyph-name="Otilde" unicode="&#xd5;" horiz-adv-x="1644" 
d="M84 717c0 96.667 17 190.167 51 280.5s82.833 170.166 146.5 239.499s141.167 124.833 232.5 166.5s194.333 62.5 309 62.5s217.834 -20.833 309.501 -62.5s169.167 -97.167 232.5 -166.5s112.166 -149.166 146.499 -239.499s51.5 -183.833 51.5 -280.5
s-17.167 -190.167 -51.5 -280.5s-83.166 -170.333 -146.499 -240s-140.833 -125.334 -232.5 -167.001s-194.834 -62.5 -309.501 -62.5s-217.667 20.833 -309 62.5s-168.833 97.334 -232.5 167.001s-112.5 149.5 -146.5 239.5s-51 183.667 -51 281zM279 717
c0 -75.333 12.5 -147.833 37.5 -217.5s61.167 -131.5 108.5 -185.5s104.333 -97.333 171 -130s142.334 -49 227.001 -49c83.333 0 158.833 16.333 226.5 49s124.667 76 171 130s82.166 115.833 107.499 185.5s38 142.167 38 217.5s-12.667 148 -38 218
s-61.166 132 -107.499 186s-103.333 97 -171 129s-143.167 48 -226.5 48c-84.667 0 -160.334 -16 -227.001 -48s-123.667 -75 -171 -129s-83.5 -116.167 -108.5 -186.5s-37.5 -142.833 -37.5 -217.5zM455 1747c30 19.333 55.5029 33.998 76.5029 43.998
s39.667 17.833 56 23.5s30.666 8.83398 42.999 9.50098s24.166 1 35.499 1c15.333 0 36.166 -2.83301 62.499 -8.5s53.833 -12.167 82.5 -19.5s57 -13.833 85 -19.5s51.667 -8.5 71 -8.5c13.333 0 30 3.5 50 10.5s53.667 22.167 101 45.5l70 -115
c-52 -39.333 -95.333 -63.166 -130 -71.499s-59.667 -12.5 -75 -12.5c-22 0 -46.333 2.66699 -73 8s-53.667 11.5 -81 18.5s-53.833 13.167 -79.5 18.5s-48.167 8 -67.5 8c-22 0 -44.5 -4 -67.5 -12s-50.5 -20.333 -82.5 -37z" />
    <glyph glyph-name="Odieresis" unicode="&#xd6;" horiz-adv-x="1644" 
d="M84 717c0 96.667 17 190.167 51 280.5s82.833 170.166 146.5 239.499s141.167 124.833 232.5 166.5s194.333 62.5 309 62.5s217.834 -20.833 309.501 -62.5s169.167 -97.167 232.5 -166.5s112.166 -149.166 146.499 -239.499s51.5 -183.833 51.5 -280.5
s-17.167 -190.167 -51.5 -280.5s-83.166 -170.333 -146.499 -240s-140.833 -125.334 -232.5 -167.001s-194.834 -62.5 -309.501 -62.5s-217.667 20.833 -309 62.5s-168.833 97.334 -232.5 167.001s-112.5 149.5 -146.5 239.5s-51 183.667 -51 281zM279 717
c0 -75.333 12.5 -147.833 37.5 -217.5s61.167 -131.5 108.5 -185.5s104.333 -97.333 171 -130s142.334 -49 227.001 -49c83.333 0 158.833 16.333 226.5 49s124.667 76 171 130s82.166 115.833 107.499 185.5s38 142.167 38 217.5s-12.667 148 -38 218
s-61.166 132 -107.499 186s-103.333 97 -171 129s-143.167 48 -226.5 48c-84.667 0 -160.334 -16 -227.001 -48s-123.667 -75 -171 -129s-83.5 -116 -108.5 -186s-37.5 -142.667 -37.5 -218zM444 1726c0 39.333 14.001 73.5 42.001 102.5s62 43.5 102 43.5
c39.333 0 73 -14.333 101 -43s42 -63 42 -103c0 -39.333 -14 -72.666 -42 -99.999s-61.667 -41 -101 -41c-40.667 0 -74.834 13.667 -102.501 41s-41.5 60.666 -41.5 99.999zM913.001 1726c0 39.333 13.999 73.5 41.999 102.5s62 43.5 102 43.5c39.333 0 73 -14.333 101 -43
s42 -63 42 -103c0 -39.333 -14 -72.666 -42 -99.999s-61.667 -41 -101 -41s-73.166 13.667 -101.499 41s-42.5 60.666 -42.5 99.999z" />
    <glyph glyph-name="multiply" unicode="&#xd7;" horiz-adv-x="1177" 
d="M233 354l234 236l-227 229l112 113l230 -230l235 238l127 -125l-237 -237l231 -232l-115 -110l-229 229l-236 -236z" />
    <glyph glyph-name="Oslash" unicode="&#xd8;" horiz-adv-x="1644" 
d="M84 717c0 98 16.9971 192.165 50.9971 282.498s82.833 169.833 146.5 238.5s140.834 123.834 231.501 165.501s192.667 62.5 306 62.5c75.333 0 145.666 -9.33301 210.999 -28l78 178l160 -68l-76 -176c58.667 -32.667 110.834 -72.5 156.501 -119.5
s84.5 -99.167 116.5 -156.5s56.333 -118.166 73 -182.499s25 -129.833 25 -196.5c0 -96.667 -17.167 -190.167 -51.5 -280.5s-83.166 -170.333 -146.499 -240s-141.166 -125.334 -233.499 -167.001s-195.833 -62.5 -310.5 -62.5c-80.667 0 -153.667 11 -219 33l-67 -164
l-160 66l67 164c-57.333 32.667 -108.166 72.834 -152.499 120.501s-81.833 99.5 -112.5 155.5s-53.834 116 -69.501 180s-23.5 129 -23.5 195zM278.997 716.998c0 -96.667 20.334 -187.832 61.001 -273.499s98.667 -154.834 174 -207.501l449 1044
c-44 12 -90.667 18 -140 18c-84.667 0 -160.334 -16 -227.001 -48s-123.667 -75 -171 -129s-83.5 -116 -108.5 -186s-37.5 -142.667 -37.5 -218zM669.998 158c48.667 -15.333 99.668 -23 153.001 -23c83.333 0 158.833 16.333 226.5 49s124.667 76 171 130
s82.166 115.833 107.499 185.5s38 141.5 38 215.5c0 98 -21.5 190.667 -64.5 278s-103.5 157 -181.5 209z" />
    <glyph glyph-name="Ugrave" unicode="&#xd9;" horiz-adv-x="1288" 
d="M145 465l0.00195312 969.002h187v-969c0 -44 7.16699 -86 21.5 -126s35.166 -75.167 62.499 -105.5s60 -54.333 98 -72s81 -26.5 129 -26.5c46.667 0 89.334 8.83301 128.001 26.5s71.667 41.167 99 70.5s48.5 64.166 63.5 104.499s22.5 83.166 22.5 128.499v969h187
v-969c0 -68 -12 -132.167 -36 -192.5s-57.5 -113 -100.5 -158s-95.5 -80.833 -157.5 -107.5s-130.667 -40 -206 -40c-76.667 0 -145.334 13.333 -206.001 40s-112.834 62.5 -156.501 107.5s-77.167 97.5 -100.5 157.5s-35 124.333 -35 193zM369.002 1815l86 141l510 -281
l-86 -141z" />
    <glyph glyph-name="Uacute" unicode="&#xda;" horiz-adv-x="1288" 
d="M145 465l0.00195312 969.002h187v-969c0 -44 7.16699 -86 21.5 -126s35.166 -75.167 62.499 -105.5s60 -54.333 98 -72s81 -26.5 129 -26.5c46.667 0 89.334 8.83301 128.001 26.5s71.667 41.167 99 70.5s48.5 64.166 63.5 104.499s22.5 83.166 22.5 128.499v969h187
v-969c0 -68 -12 -132.167 -36 -192.5s-57.5 -113 -100.5 -158s-95.5 -80.833 -157.5 -107.5s-130.667 -40 -206 -40c-76.667 0 -145.334 13.333 -206.001 40s-112.834 62.5 -156.501 107.5s-77.167 97.5 -100.5 157.5s-35 124.333 -35 193zM309.002 1675l510 281l84 -141
l-510 -281z" />
    <glyph glyph-name="Ucircumflex" unicode="&#xdb;" horiz-adv-x="1288" 
d="M145 465l0.00195312 969.002h187v-969c0 -44 7.16699 -86 21.5 -126s35.166 -75.167 62.499 -105.5s60 -54.333 98 -72s81 -26.5 129 -26.5c46.667 0 89.334 8.83301 128.001 26.5s71.667 41.167 99 70.5s48.5 64.166 63.5 104.499s22.5 83.166 22.5 128.499v969h187
v-969c0 -68 -12 -132.167 -36 -192.5s-57.5 -113 -100.5 -158s-95.5 -80.833 -157.5 -107.5s-130.667 -40 -206 -40c-76.667 0 -145.334 13.333 -206.001 40s-112.834 62.5 -156.501 107.5s-77.167 97.5 -100.5 157.5s-35 124.333 -35 193zM268.002 1665l367 297l371 -297
l-111 -125l-258 207l-256 -207z" />
    <glyph glyph-name="Udieresis" unicode="&#xdc;" horiz-adv-x="1288" 
d="M145 465l0.00195312 969.002h187v-969c0 -44 7.16699 -86 21.5 -126s35.166 -75.167 62.499 -105.5s60 -54.333 98 -72s81 -26.5 129 -26.5c46.667 0 89.334 8.83301 128.001 26.5s71.667 41.167 99 70.5s48.5 64.166 63.5 104.499s22.5 83.166 22.5 128.499v969h187
v-969c0 -68 -12 -132.167 -36 -192.5s-57.5 -113 -100.5 -158s-95.5 -80.833 -157.5 -107.5s-130.667 -40 -206 -40c-76.667 0 -145.334 13.333 -206.001 40s-112.834 62.5 -156.501 107.5s-77.167 97.5 -100.5 157.5s-35 124.333 -35 193zM264.002 1726
c0 39.333 14.001 73.5 42.001 102.5s62 43.5 102 43.5c39.333 0 73 -14.333 101 -43s42 -63 42 -103c0 -39.333 -14 -72.666 -42 -99.999s-61.667 -41 -101 -41c-40.667 0 -74.834 13.667 -102.501 41s-41.5 60.666 -41.5 99.999zM733.003 1726
c0 39.333 13.999 73.5 41.999 102.5s62 43.5 102 43.5c39.333 0 73 -14.333 101 -43s42 -63 42 -103c0 -39.333 -14 -72.666 -42 -99.999s-61.667 -41 -101 -41s-73.166 13.667 -101.499 41s-42.5 60.666 -42.5 99.999z" />
    <glyph glyph-name="Yacute" unicode="&#xdd;" horiz-adv-x="1193" 
d="M20 1434h218l419 -670l338 670h205l-721 -1434h-205l287 569zM375 1665l510 281l86 -142l-510 -280z" />
    <glyph glyph-name="Thorn" unicode="&#xde;" horiz-adv-x="1024" 
d="M160 0v1434h168v-271h159c75.333 0 142.333 -12.667 201 -38s108.167 -59 148.5 -101s71.166 -90.667 92.499 -146s32 -112.333 32 -171s-10.667 -115.334 -32 -170.001s-52.166 -103.167 -92.499 -145.5s-89.833 -76.166 -148.5 -101.499s-125.667 -38 -201 -38h-159
v-252h-168zM328 401h159c48 0 91.167 8.66699 129.5 26s70.5 40 96.5 68s45.833 60.333 59.5 97s20.5 75 20.5 115c0 39.333 -6.83301 77.5 -20.5 114.5s-33.5 69.833 -59.5 98.5s-58.167 51.5 -96.5 68.5s-81.5 25.5 -129.5 25.5h-159v-613z" />
    <glyph glyph-name="germandbls" unicode="&#xdf;" horiz-adv-x="1150" 
d="M145 0l0.00488281 1030c0 62.667 10.667 120.334 32 173.001s51.166 98.167 89.499 136.5s84.333 67.666 138 87.999s113.5 30.5 179.5 30.5c61.333 0 118.666 -9.16699 171.999 -27.5s100 -44.666 140 -78.999s71.667 -75.666 95 -123.999s35 -102.5 35 -162.5
c0 -82 -21.5 -150 -64.5 -204s-101.5 -91.667 -175.5 -113c78 -23.333 143.333 -64.666 196 -123.999s79 -137 79 -233c0 -66.667 -13.333 -126 -40 -178s-61.834 -95.333 -105.501 -130s-93.834 -61.334 -150.501 -80.001s-114.334 -28 -173.001 -28
c-34 0 -65.667 2.5 -95 7.5s-52.333 10.833 -69 17.5v156c26 -6.66699 54 -11.834 84 -15.501s56 -5.5 78 -5.5c38 0 74.833 5.83301 110.5 17.5s66.834 28.834 93.501 51.501s48.167 49.667 64.5 81s24.5 67.333 24.5 108c0 32.667 -5.83301 65.5 -17.5 98.5
s-29.834 62.333 -54.501 88s-55.667 46.834 -93 63.501s-81.333 25 -132 25h-88v159h82c46.667 0 87 6.5 121 19.5s61.833 30.833 83.5 53.5s37.667 48 48 76s15.5 57.667 15.5 89c0 36.667 -6.83301 69.334 -20.5 98.001s-32.167 53.334 -55.5 74.001
s-51 36.334 -83 47.001s-66.333 16 -103 16c-82 0 -146.5 -24.833 -193.5 -74.5s-70.5 -114.834 -70.5 -195.501v-1030h-177z" />
    <glyph glyph-name="agrave" unicode="&#xe0;" horiz-adv-x="1222" 
d="M84 465c0 65.333 11.6699 127.668 35.0029 187.001s56.166 111.666 98.499 156.999s91.833 80.833 148.5 106.5s119 38.5 187 38.5c79.333 0 147.666 -17.333 204.999 -52s100.333 -78.667 129 -132v160h176v-930h-176v162c-28.667 -53.333 -71.667 -97.5 -129 -132.5
s-126.333 -52.5 -207 -52.5c-68 0 -130.333 13 -187 39s-105.834 61.5 -147.501 106.5s-74.167 97 -97.5 156s-35 121.167 -35 186.5zM260.003 465.002c0 -45.333 7.5 -87.6641 22.5 -126.997s36.167 -73.833 63.5 -103.5s60 -53.334 98 -71.001s81 -26.5 129 -26.5
s91.167 8.83301 129.5 26.5s71.166 41.334 98.499 71.001s48.5 64.167 63.5 103.5s22.5 81.666 22.5 126.999s-7.5 87.666 -22.5 126.999s-36.167 74 -63.5 104s-60.166 54 -98.499 72s-81.5 27 -129.5 27s-91 -9 -129 -27s-70.667 -42 -98 -72s-48.5 -64.833 -63.5 -104.5
s-22.5 -81.834 -22.5 -126.501zM270.003 1311l86 139l510 -281l-86 -139z" />
    <glyph glyph-name="aacute" unicode="&#xe1;" horiz-adv-x="1222" 
d="M84 465c0 65.333 11.6699 127.668 35.0029 187.001s56.166 111.666 98.499 156.999s91.833 80.833 148.5 106.5s119 38.5 187 38.5c79.333 0 147.666 -17.333 204.999 -52s100.333 -78.667 129 -132v160h176v-930h-176v162c-28.667 -53.333 -71.667 -97.5 -129 -132.5
s-126.333 -52.5 -207 -52.5c-68 0 -130.333 13 -187 39s-105.834 61.5 -147.501 106.5s-74.167 97 -97.5 156s-35 121.167 -35 186.5zM225.003 1169l510 281l86 -139l-510 -281zM260.003 465.002c0 -45.333 7.5 -87.6641 22.5 -126.997s36.167 -73.833 63.5 -103.5
s60 -53.334 98 -71.001s81 -26.5 129 -26.5s91.167 8.83301 129.5 26.5s71.166 41.334 98.499 71.001s48.5 64.167 63.5 103.5s22.5 81.666 22.5 126.999s-7.5 87.666 -22.5 126.999s-36.167 74 -63.5 104s-60.166 54 -98.499 72s-81.5 27 -129.5 27s-91 -9 -129 -27
s-70.667 -42 -98 -72s-48.5 -64.833 -63.5 -104.5s-22.5 -81.834 -22.5 -126.501z" />
    <glyph glyph-name="acircumflex" unicode="&#xe2;" horiz-adv-x="1222" 
d="M84 465c0 65.333 11.6699 127.668 35.0029 187.001s56.166 111.666 98.499 156.999s91.833 80.833 148.5 106.5s119 38.5 187 38.5c79.333 0 147.666 -17.333 204.999 -52s100.333 -78.667 129 -132v160h176v-930h-176v162c-28.667 -53.333 -71.667 -97.5 -129 -132.5
s-126.333 -52.5 -207 -52.5c-68 0 -130.333 13 -187 39s-105.834 61.5 -147.501 106.5s-74.167 97 -97.5 156s-35 121.167 -35 186.5zM205.003 1198l366 297l371 -297l-111 -125l-258 207l-256 -207zM260.003 465.002c0 -45.333 7.5 -87.6641 22.5 -126.997
s36.167 -73.833 63.5 -103.5s60 -53.334 98 -71.001s81 -26.5 129 -26.5s91.167 8.83301 129.5 26.5s71.166 41.334 98.499 71.001s48.5 64.167 63.5 103.5s22.5 81.666 22.5 126.999s-7.5 87.666 -22.5 126.999s-36.167 74 -63.5 104s-60.166 54 -98.499 72
s-81.5 27 -129.5 27s-91 -9 -129 -27s-70.667 -42 -98 -72s-48.5 -64.833 -63.5 -104.5s-22.5 -81.834 -22.5 -126.501z" />
    <glyph glyph-name="atilde" unicode="&#xe3;" horiz-adv-x="1222" 
d="M84 465c0 65.333 11.6699 127.668 35.0029 187.001s56.166 111.666 98.499 156.999s91.833 80.833 148.5 106.5s119 38.5 187 38.5c79.333 0 147.666 -17.333 204.999 -52s100.333 -78.667 129 -132v160h176v-930h-176v162c-28.667 -53.333 -71.667 -97.5 -129 -132.5
s-126.333 -52.5 -207 -52.5c-68 0 -130.333 13 -187 39s-105.834 61.5 -147.501 106.5s-74.167 97 -97.5 156s-35 121.167 -35 186.5zM213.003 1333c30 19.333 55.6689 34.166 77.002 44.499s40.166 18.166 56.499 23.499s30.666 8.33301 42.999 9s23.833 1 34.5 1
c15.333 0 36.166 -2.66699 62.499 -8s53.833 -11.833 82.5 -19.5s57 -14.167 85 -19.5s51.667 -8 71 -8c13.333 0 30 3.33301 50 10s54 21.667 102 45l69 -115c-31.333 -23.333 -63 -43.166 -95 -59.499s-68 -24.5 -108 -24.5c-23.333 0 -48.5 2.83301 -75.5 8.5
s-54.167 11.834 -81.5 18.501l-79 18.5c-25.333 5.66699 -47.666 8.5 -66.999 8.5c-22 0 -44.5 -4.16699 -67.5 -12.5s-50.167 -21.5 -81.5 -39.5zM260.005 465.002c0 -45.333 7.5 -87.6641 22.5 -126.997s36.167 -73.833 63.5 -103.5s60 -53.334 98 -71.001
s81 -26.5 129 -26.5s91.167 8.83301 129.5 26.5s71.166 41.334 98.499 71.001s48.5 64.167 63.5 103.5s22.5 81.666 22.5 126.999s-7.5 87.666 -22.5 126.999s-36.167 74 -63.5 104s-60.166 54 -98.499 72s-81.5 27 -129.5 27s-91 -9 -129 -27s-70.667 -42 -98 -72
s-48.5 -64.833 -63.5 -104.5s-22.5 -81.834 -22.5 -126.501z" />
    <glyph glyph-name="adieresis" unicode="&#xe4;" horiz-adv-x="1222" 
d="M84 465c0 65.333 11.6699 127.668 35.0029 187.001s56.166 111.666 98.499 156.999s91.833 80.833 148.5 106.5s119 38.5 187 38.5c79.333 0 147.666 -17.333 204.999 -52s100.333 -78.667 129 -132v160h176v-930h-176v162c-28.667 -53.333 -71.667 -97.5 -129 -132.5
s-126.333 -52.5 -207 -52.5c-68 0 -130.333 13 -187 39s-105.834 61.5 -147.501 106.5s-74.167 97 -97.5 156s-35 121.167 -35 186.5zM190.003 1249c0 39.333 13.999 73.167 41.999 101.5s62 42.5 102 42.5c39.333 0 73 -14 101 -42s42 -62 42 -102
c0 -39.333 -14 -73 -42 -101s-61.667 -42 -101 -42s-73.166 14 -101.499 42s-42.5 61.667 -42.5 101zM260.002 465.003c0 -45.333 7.50195 -87.666 22.502 -126.999s36.167 -73.833 63.5 -103.5s60.166 -53.334 98.499 -71.001s81.166 -26.5 128.499 -26.5
c48 0 91.167 8.83301 129.5 26.5s71.166 41.334 98.499 71.001s48.5 64.167 63.5 103.5s22.5 81.666 22.5 126.999s-7.5 87.666 -22.5 126.999s-36.167 74 -63.5 104s-60.166 54 -98.499 72s-81.5 27 -129.5 27s-91 -9 -129 -27s-70.667 -42 -98 -72
s-48.5 -64.667 -63.5 -104s-22.5 -81.666 -22.5 -126.999zM662.004 1249c0 39.333 13.833 73.167 41.5 101.5s61.5 42.5 101.5 42.5c39.333 0 73 -14 101 -42s42 -62 42 -102c0 -39.333 -14 -73 -42 -101s-61.667 -42 -101 -42s-73 14 -101 42s-42 61.667 -42 101z" />
    <glyph glyph-name="aring" unicode="&#xe5;" horiz-adv-x="1222" 
d="M84 465c0 65.333 11.6699 127.668 35.0029 187.001s56.166 111.666 98.499 156.999s91.833 80.833 148.5 106.5s119 38.5 187 38.5c79.333 0 147.666 -17.333 204.999 -52s100.333 -78.667 129 -132v160h176v-930h-176v162c-28.667 -53.333 -71.667 -97.5 -129 -132.5
s-126.333 -52.5 -207 -52.5c-68 0 -130.333 13 -187 39s-105.834 61.5 -147.501 106.5s-74.167 97 -97.5 156s-35 121.167 -35 186.5zM260.003 465.002c0 -45.333 7.5 -87.6641 22.5 -126.997s36.167 -73.833 63.5 -103.5s60 -53.334 98 -71.001s81 -26.5 129 -26.5
s91.167 8.83301 129.5 26.5s71.166 41.334 98.499 71.001s48.5 64.167 63.5 103.5s22.5 81.666 22.5 126.999s-7.5 87.666 -22.5 126.999s-36.167 74 -63.5 104s-60.166 54 -98.499 72s-81.5 27 -129.5 27s-91 -9 -129 -27s-70.667 -42 -98 -72s-48.5 -64.833 -63.5 -104.5
s-22.5 -81.834 -22.5 -126.501zM340.003 1284c0 34 6.5 66.335 19.5 97.002s31.167 57.667 54.5 81s50 41.5 80 54.5s62.667 19.5 98 19.5c34 0 66.333 -6.83301 97 -20.5s57.667 -31.834 81 -54.501s41.5 -49.334 54.5 -80.001s19.5 -63 19.5 -97s-6.5 -66.333 -19.5 -97
s-31.167 -57.334 -54.5 -80.001s-50.333 -40.834 -81 -54.501s-63 -20.5 -97 -20.5c-35.333 0 -68 6.83301 -98 20.5s-56.667 31.834 -80 54.501s-41.5 49.334 -54.5 80.001s-19.5 63 -19.5 97zM473.003 1286.01c0 -32.667 11.667 -61 35 -85s51.333 -36 84 -36
c34 0 62.667 12 86 36s35 52.333 35 85s-11.667 61 -35 85s-52 36 -86 36s-62.333 -12.333 -85 -37s-34 -52.667 -34 -84z" />
    <glyph glyph-name="ae" unicode="&#xe6;" horiz-adv-x="1871" 
d="M84 465c0 65.333 11.6709 127.668 35.0039 187.001s56.166 111.666 98.499 156.999s91.833 80.833 148.5 106.5s119 38.5 187 38.5c79.333 0 147.666 -17.333 204.999 -52s100.333 -78.667 129 -132v160h176v-82c34 32.667 74.167 58.5 120.5 77.5
s98.833 28.5 157.5 28.5c61.333 0 118.333 -10.5 171 -31.5s98.5 -50.667 137.5 -89s69.833 -83 92.5 -134s34 -105.833 34 -164.5c0 -13.333 -0.333008 -29.666 -1 -48.999s-3.33398 -42 -8.00098 -68h-700c1.33301 -86 24.833 -156 70.5 -210s115.834 -81 210.501 -81
c70.667 0 124.167 14.667 160.5 44s61.833 63.666 76.5 102.999h180c-8 -38 -22.833 -74.667 -44.5 -110s-50.334 -67 -86.001 -95s-77 -50.333 -124 -67s-99.833 -25 -158.5 -25c-69.333 0 -127.333 10.667 -174 32s-85 46.333 -115 75v-84h-176v162
c-28.667 -53.333 -71.667 -97.5 -129 -132.5s-126.333 -52.5 -207 -52.5c-68 0 -130.333 13 -187 39s-105.834 61.5 -147.501 106.5s-74.167 97 -97.5 156s-35 121.167 -35 186.5zM260.004 465.002c0 -45.333 7.50098 -87.665 22.501 -126.998s36.167 -73.833 63.5 -103.5
s60 -53.334 98 -71.001s81 -26.5 129 -26.5s91.167 8.83301 129.5 26.5s71.166 41.334 98.499 71.001s48.5 64.167 63.5 103.5s22.5 81.666 22.5 126.999s-7.5 88 -22.5 128s-36.5 75 -64.5 105s-61.5 53.667 -100.5 71s-81.833 26 -128.5 26c-48 0 -91 -9 -129 -27
s-70.333 -42 -97 -72s-47.5 -64.833 -62.5 -104.5s-22.5 -81.834 -22.5 -126.501zM1069 553.003h533c0 75.333 -25 135.833 -75 181.5s-114 68.5 -192 68.5c-74 0 -136.167 -21.833 -186.5 -65.5s-76.833 -105.167 -79.5 -184.5z" />
    <glyph glyph-name="ccedilla" unicode="&#xe7;" horiz-adv-x="1083" 
d="M88 465c0 62.667 9.83496 123.331 29.502 181.998s49 110.834 88 156.501s88.167 82.167 147.5 109.5s128.666 41 207.999 41c69.333 0 130 -10.167 182 -30.5s95.833 -47.5 131.5 -81.5s63 -72.5 82 -115.5s30.5 -87.833 34.5 -134.5h-178
c-6.66699 57.333 -30.167 105.5 -70.5 144.5s-99.5 58.5 -177.5 58.5c-52 0 -96.667 -9 -134 -27s-68.333 -42.333 -93 -73s-42.834 -65.834 -54.501 -105.501s-17.5 -81.167 -17.5 -124.5c0 -44 5.83301 -85.667 17.5 -125s29.834 -74.166 54.501 -104.499
s56 -54.333 94 -72s83.667 -26.5 137 -26.5c74 0 129.833 16.5 167.5 49.5s63.834 77.167 78.501 132.5h178c-6.66699 -45.333 -20.167 -88.666 -40.5 -129.999s-48.333 -77.333 -84 -108s-78.334 -55.667 -128.001 -75s-106.834 -29 -171.501 -29v-122
c19.333 27.333 49.333 41 90 41c20.667 0 41 -4.16699 61 -12.5s38.167 -20 54.5 -35s29.166 -33.5 38.499 -55.5s14 -46.667 14 -74c0 -26 -4.33301 -50.833 -13 -74.5s-21.5 -44.667 -38.5 -63s-37.5 -33 -61.5 -44s-51 -16.5 -81 -16.5c-15.333 0 -33.833 2 -55.5 6
s-43.5 12.5 -65.5 25.5s-41.167 31.167 -57.5 54.5s-27.166 54 -32.499 92h108c5.33301 -24.667 16 -44.5 32 -59.5s36.333 -22.5 61 -22.5c28.667 0 51.834 9.5 69.501 28.5s26.5 42.167 26.5 69.5c0 28.667 -8.83301 51.667 -26.5 69s-40.167 26 -67.5 26
c-15.333 0 -29.833 -3.5 -43.5 -10.5s-25.834 -20.833 -36.501 -41.5h-92v230c-61.333 12 -115 33 -161 63s-84 66.5 -114 109.5s-52.5 90.5 -67.5 142.5s-22.5 106 -22.5 162z" />
    <glyph glyph-name="egrave" unicode="&#xe8;" horiz-adv-x="1075" 
d="M88 469c0 69.333 10.668 133.501 32.001 192.501s51.333 110.333 90 154s85.667 77.667 141 102s117.333 36.5 186 36.5c64 0 123 -10.5 177 -31.5s100.333 -50.667 139 -89s69 -83 91 -134s33 -105.833 33 -164.5c0 -13.333 -0.333008 -29.666 -1 -48.999s-3 -42 -7 -68
h-699c0 -39.333 5.5 -76.5 16.5 -111.5s27.833 -65.833 50.5 -92.5s51.667 -47.834 87 -63.501s77.666 -23.5 126.999 -23.5c70.667 0 124.167 14.667 160.5 44s61.833 63.666 76.5 102.999h181c-8 -39.333 -23.333 -76.666 -46 -111.999s-51.5 -66.666 -86.5 -93.999
s-76.667 -49.333 -125 -66s-101.833 -25 -160.5 -25c-78 0 -146 13.667 -204 41s-106.167 63.666 -144.5 108.999s-67 97.666 -86 156.999s-28.5 121 -28.5 185zM272.001 553.001h533c0 76.667 -24.5 137.5 -73.5 182.5s-112.5 67.5 -190.5 67.5
c-74 0 -136.667 -21.167 -188 -63.5s-78.333 -104.5 -81 -186.5zM287.001 1311l84 139l510 -281l-84 -139z" />
    <glyph glyph-name="eacute" unicode="&#xe9;" horiz-adv-x="1075" 
d="M88 469c0 69.333 10.668 133.501 32.001 192.501s51.333 110.333 90 154s85.667 77.667 141 102s117.333 36.5 186 36.5c64 0 123 -10.5 177 -31.5s100.333 -50.667 139 -89s69 -83 91 -134s33 -105.833 33 -164.5c0 -13.333 -0.333008 -29.666 -1 -48.999s-3 -42 -7 -68
h-699c0 -39.333 5.5 -76.5 16.5 -111.5s27.833 -65.833 50.5 -92.5s51.667 -47.834 87 -63.501s77.666 -23.5 126.999 -23.5c70.667 0 124.167 14.667 160.5 44s61.833 63.666 76.5 102.999h181c-8 -39.333 -23.333 -76.666 -46 -111.999s-51.5 -66.666 -86.5 -93.999
s-76.667 -49.333 -125 -66s-101.833 -25 -160.5 -25c-78 0 -146 13.667 -204 41s-106.167 63.666 -144.5 108.999s-67 97.666 -86 156.999s-28.5 121 -28.5 185zM231.001 1169l510 281l84 -139l-510 -281zM272.001 553.001h533c0 76.667 -24.5 137.5 -73.5 182.5
s-112.5 67.5 -190.5 67.5c-74 0 -136.667 -21.167 -188 -63.5s-78.333 -104.5 -81 -186.5z" />
    <glyph glyph-name="ecircumflex" unicode="&#xea;" horiz-adv-x="1075" 
d="M88 469c0 69.333 10.668 133.501 32.001 192.501s51.333 110.333 90 154s85.667 77.667 141 102s117.333 36.5 186 36.5c64 0 123 -10.5 177 -31.5s100.333 -50.667 139 -89s69 -83 91 -134s33 -105.833 33 -164.5c0 -13.333 -0.333008 -29.666 -1 -48.999s-3 -42 -7 -68
h-699c0 -39.333 5.5 -76.5 16.5 -111.5s27.833 -65.833 50.5 -92.5s51.667 -47.834 87 -63.501s77.666 -23.5 126.999 -23.5c70.667 0 124.167 14.667 160.5 44s61.833 63.666 76.5 102.999h181c-8 -39.333 -23.333 -76.666 -46 -111.999s-51.5 -66.666 -86.5 -93.999
s-76.667 -49.333 -125 -66s-101.833 -25 -160.5 -25c-78 0 -146 13.667 -204 41s-106.167 63.666 -144.5 108.999s-67 97.666 -86 156.999s-28.5 121 -28.5 185zM176.001 1198l367 297l370 -297l-110 -125l-258 207l-256 -207zM272.001 553.001h533
c0 76.667 -24.5 137.5 -73.5 182.5s-112.5 67.5 -190.5 67.5c-74 0 -136.667 -21.167 -188 -63.5s-78.333 -104.5 -81 -186.5z" />
    <glyph glyph-name="edieresis" unicode="&#xeb;" horiz-adv-x="1075" 
d="M88 469c0 69.333 10.668 133.501 32.001 192.501s51.333 110.333 90 154s85.667 77.667 141 102s117.333 36.5 186 36.5c64 0 123 -10.5 177 -31.5s100.333 -50.667 139 -89s69 -83 91 -134s33 -105.833 33 -164.5c0 -13.333 -0.333008 -29.666 -1 -48.999s-3 -42 -7 -68
h-699c0 -39.333 5.5 -76.5 16.5 -111.5s27.833 -65.833 50.5 -92.5s51.667 -47.834 87 -63.501s77.666 -23.5 126.999 -23.5c70.667 0 124.167 14.667 160.5 44s61.833 63.666 76.5 102.999h181c-8 -39.333 -23.333 -76.666 -46 -111.999s-51.5 -66.666 -86.5 -93.999
s-76.667 -49.333 -125 -66s-101.833 -25 -160.5 -25c-78 0 -146 13.667 -204 41s-106.167 63.666 -144.5 108.999s-67 97.666 -86 156.999s-28.5 121 -28.5 185zM166.001 1249c0 39.333 13.667 73.167 41 101.5s60.666 42.5 99.999 42.5s73.5 -14 102.5 -42
s43.5 -62 43.5 -102c0 -39.333 -14.333 -73 -43 -101s-63 -42 -103 -42c-39.333 0 -72.666 13.667 -99.999 41s-41 61.333 -41 102zM272.001 553.002h533c0 76.667 -24.5 137.5 -73.5 182.5s-112.5 67.5 -190.5 67.5c-74 0 -136.667 -21.167 -188 -63.5
s-78.333 -104.5 -81 -186.5zM635.001 1249c0 39.333 14.001 73.167 42.001 101.5s61.667 42.5 101 42.5s73.166 -14 101.499 -42s42.5 -62 42.5 -102c0 -39.333 -14 -73 -42 -101s-62 -42 -102 -42c-39.333 0 -73 14 -101 42s-42 61.667 -42 101z" />
    <glyph glyph-name="igrave" unicode="&#xec;" horiz-adv-x="565" 
d="M-14 1341l84 140l510 -281l-84 -139zM195 0v930h176v-930h-176z" />
    <glyph glyph-name="iacute" unicode="&#xed;" horiz-adv-x="565" 
d="M-14 1200l510 281l84 -140l-510 -280zM193 0v930h178v-930h-178z" />
    <glyph glyph-name="icircumflex" unicode="&#xee;" horiz-adv-x="565" 
d="M-86 1198l369 297l368 -297l-110 -125l-258 207l-256 -207zM195 0v930h178v-930h-178z" />
    <glyph glyph-name="idieresis" unicode="&#xef;" horiz-adv-x="565" 
d="M-96 1249c0 39.333 14 73.167 42 101.5s61.667 42.5 101 42.5s73.5 -14 102.5 -42s43.5 -62 43.5 -102c0 -39.333 -14.5 -73 -43.5 -101s-63.167 -42 -102.5 -42s-73 14 -101 42s-42 61.667 -42 101zM176 0.000976562v930h178v-930h-178zM375 1249
c0 39.333 14.001 73.167 42.001 101.5s61.667 42.5 101 42.5s73.166 -14 101.499 -42s42.5 -62 42.5 -102c0 -39.333 -14 -73 -42 -101s-62 -42 -102 -42c-39.333 0 -73 14 -101 42s-42 61.667 -42 101z" />
    <glyph glyph-name="eth" unicode="&#xf0;" 
d="M90 465c0 65.333 11.998 127.669 35.998 187.002s57.167 111.666 99.5 156.999s92.833 80.833 151.5 106.5s122.667 38.5 192 38.5c19.333 0 36.166 -1.33301 50.499 -4s26.833 -9.33398 37.5 -20.001l-94 153l-231 -122l-70 133l217 118l-135 222h215l80 -136l180 97
l72 -135l-170 -91l250 -401c30 -48 53.833 -96.167 71.5 -144.5s26.5 -101.833 26.5 -160.5c0 -65.333 -11.667 -127.5 -35 -186.5s-56.166 -110.667 -98.499 -155s-93.666 -79.5 -153.999 -105.5s-127.5 -39 -201.5 -39s-141.333 13 -202 39s-112.167 61.5 -154.5 106.5
s-75.166 97 -98.499 156s-35 121.167 -35 186.5zM265.998 465.003c0 -45.333 7.49805 -87.6641 22.498 -126.997s36.167 -73.833 63.5 -103.5s60.166 -53.334 98.499 -71.001s81.5 -26.5 129.5 -26.5s91 8.83301 129 26.5s70.667 41.334 98 71.001s48.5 64.167 63.5 103.5
s22.5 81.666 22.5 126.999s-7.5 87.666 -22.5 126.999s-36.167 74 -63.5 104s-60.166 54 -98.499 72s-81.166 27 -128.499 27c-48 0 -91.167 -9 -129.5 -27s-71.166 -42 -98.499 -72s-48.5 -64.833 -63.5 -104.5s-22.5 -81.834 -22.5 -126.501z" />
    <glyph glyph-name="ntilde" unicode="&#xf1;" 
d="M160 0v929.997h178v-164c27.333 57.333 68.666 103 123.999 137s124 51 206 51c60 0 113.167 -10.167 159.5 -30.5s85.166 -51.166 116.499 -92.499c26 -35.333 44.5 -74.833 55.5 -118.5s16.5 -98.167 16.5 -163.5v-549h-178v494c0 42 -4.16699 81.833 -12.5 119.5
s-21.666 69.834 -39.999 96.501s-42.5 47.834 -72.5 63.501s-66.333 23.5 -109 23.5c-45.333 0 -84.666 -9 -117.999 -27s-60.833 -41.667 -82.5 -71s-38 -63 -49 -101s-16.5 -77.667 -16.5 -119v-479h-178zM213 1333c30 19.333 55.668 34.167 77.001 44.5
s40.166 18.166 56.499 23.499s30.666 8.33301 42.999 9s23.833 1 34.5 1c15.333 0 36.166 -2.66699 62.499 -8s53.833 -11.833 82.5 -19.5s57 -14.167 85 -19.5s51.667 -8 71 -8c13.333 0 30 3.33301 50 10s54 21.667 102 45l71 -115
c-30 -20.667 -61.333 -39.834 -94 -57.501s-69.667 -26.5 -111 -26.5c-23.333 0 -48.166 2.83301 -74.499 8.5s-53.166 11.834 -80.499 18.501s-54 12.834 -80 18.501s-48.667 8.5 -68 8.5c-22 0 -44.167 -4.16699 -66.5 -12.5s-49.833 -21.5 -82.5 -39.5z" />
    <glyph glyph-name="ograve" unicode="&#xf2;" horiz-adv-x="1146" 
d="M84 465c0 65.333 11.666 127.666 34.999 186.999s56.166 111.666 98.499 156.999s93.833 80.833 154.5 106.5s127.667 38.5 201 38.5c74 0 141 -12.833 201 -38.5s111.5 -61.167 154.5 -106.5s76.167 -97.666 99.5 -156.999s35 -121.666 35 -186.999
s-11.667 -127.5 -35 -186.5s-56.166 -111 -98.499 -156s-93.833 -80.5 -154.5 -106.5s-128 -39 -202 -39c-75.333 0 -142.833 13 -202.5 39s-110.667 61.5 -153 106.5s-75.166 97 -98.499 156s-35 121.167 -35 186.5zM259.999 465c0 -45.333 7.5 -87.6641 22.5 -126.997
s36.167 -73.833 63.5 -103.5s60 -53.334 98 -71.001s81 -26.5 129 -26.5s91.167 8.83301 129.5 26.5s71.166 41.334 98.499 71.001s48.5 64.167 63.5 103.5s22.5 81.666 22.5 126.999s-7.5 87.666 -22.5 126.999s-36.167 74 -63.5 104s-60.166 54 -98.499 72
s-81.5 27 -129.5 27s-91 -9 -129 -27s-70.667 -42 -98 -72s-48.5 -64.833 -63.5 -104.5s-22.5 -81.834 -22.5 -126.501zM290.999 1311l84 139l510 -281l-84 -139z" />
    <glyph glyph-name="oacute" unicode="&#xf3;" horiz-adv-x="1146" 
d="M84 465c0 65.333 11.666 127.666 34.999 186.999s56.166 111.666 98.499 156.999s93.833 80.833 154.5 106.5s127.667 38.5 201 38.5c74 0 141 -12.833 201 -38.5s111.5 -61.167 154.5 -106.5s76.167 -97.666 99.5 -156.999s35 -121.666 35 -186.999
s-11.667 -127.5 -35 -186.5s-56.166 -111 -98.499 -156s-93.833 -80.5 -154.5 -106.5s-128 -39 -202 -39c-75.333 0 -142.833 13 -202.5 39s-110.667 61.5 -153 106.5s-75.166 97 -98.499 156s-35 121.167 -35 186.5zM230.999 1169l510 281l84 -139l-510 -281zM259.999 465
c0 -45.333 7.5 -87.6641 22.5 -126.997s36.167 -73.833 63.5 -103.5s60 -53.334 98 -71.001s81 -26.5 129 -26.5s91.167 8.83301 129.5 26.5s71.166 41.334 98.499 71.001s48.5 64.167 63.5 103.5s22.5 81.666 22.5 126.999s-7.5 87.666 -22.5 126.999s-36.167 74 -63.5 104
s-60.166 54 -98.499 72s-81.5 27 -129.5 27s-91 -9 -129 -27s-70.667 -42 -98 -72s-48.5 -64.833 -63.5 -104.5s-22.5 -81.834 -22.5 -126.501z" />
    <glyph glyph-name="ocircumflex" unicode="&#xf4;" horiz-adv-x="1146" 
d="M84 465c0 65.333 11.666 127.666 34.999 186.999s56.166 111.666 98.499 156.999s93.833 80.833 154.5 106.5s127.667 38.5 201 38.5c74 0 141 -12.833 201 -38.5s111.5 -61.167 154.5 -106.5s76.167 -97.666 99.5 -156.999s35 -121.666 35 -186.999
s-11.667 -127.5 -35 -186.5s-56.166 -111 -98.499 -156s-93.833 -80.5 -154.5 -106.5s-128 -39 -202 -39c-75.333 0 -142.833 13 -202.5 39s-110.667 61.5 -153 106.5s-75.166 97 -98.499 156s-35 121.167 -35 186.5zM206.999 1198l366 297l371 -297l-110 -125l-259 207
l-256 -205zM259.999 465c0 -45.333 7.5 -87.6641 22.5 -126.997s36.167 -73.833 63.5 -103.5s60 -53.334 98 -71.001s81 -26.5 129 -26.5s91.167 8.83301 129.5 26.5s71.166 41.334 98.499 71.001s48.5 64.167 63.5 103.5s22.5 81.666 22.5 126.999
s-7.5 87.666 -22.5 126.999s-36.167 74 -63.5 104s-60.166 54 -98.499 72s-81.5 27 -129.5 27s-91 -9 -129 -27s-70.667 -42 -98 -72s-48.5 -64.833 -63.5 -104.5s-22.5 -81.834 -22.5 -126.501z" />
    <glyph glyph-name="otilde" unicode="&#xf5;" horiz-adv-x="1146" 
d="M84 465c0 65.333 11.666 127.666 34.999 186.999s56.166 111.666 98.499 156.999s93.833 80.833 154.5 106.5s127.667 38.5 201 38.5c74 0 141 -12.833 201 -38.5s111.5 -61.167 154.5 -106.5s76.167 -97.666 99.5 -156.999s35 -121.666 35 -186.999
s-11.667 -127.5 -35 -186.5s-56.166 -111 -98.499 -156s-93.833 -80.5 -154.5 -106.5s-128 -39 -202 -39c-75.333 0 -142.833 13 -202.5 39s-110.667 61.5 -153 106.5s-75.166 97 -98.499 156s-35 121.167 -35 186.5zM192.999 1294c30 19.333 55.5 34.168 76.5 44.501
s39.667 18.166 56 23.499s30.666 8.33301 42.999 9s23.833 1 34.5 1c15.333 0 36.333 -2.66699 63 -8s54.334 -11.833 83.001 -19.5s57 -14.167 85 -19.5s51.667 -8 71 -8c13.333 0 29.833 3.33301 49.5 10s53.5 21.667 101.5 45l72 -115
c-30 -20.667 -61.5 -39.667 -94.5 -57s-69.167 -26 -108.5 -26c-23.333 0 -48.333 2.66699 -75 8s-54 11.333 -82 18l-79.5 18.5c-25 5.66699 -47.167 8.5 -66.5 8.5c-22 0 -44.667 -4.16699 -68 -12.5s-51.333 -20.5 -84 -36.5zM259.999 465.002
c0 -45.333 7.5 -87.6641 22.5 -126.997s36.167 -73.833 63.5 -103.5s60 -53.334 98 -71.001s81 -26.5 129 -26.5s91.167 8.83301 129.5 26.5s71.166 41.334 98.499 71.001s48.5 64.167 63.5 103.5s22.5 81.666 22.5 126.999s-7.5 87.666 -22.5 126.999s-36.167 74 -63.5 104
s-60.166 54 -98.499 72s-81.5 27 -129.5 27s-91 -9 -129 -27s-70.667 -42 -98 -72s-48.5 -64.833 -63.5 -104.5s-22.5 -81.834 -22.5 -126.501z" />
    <glyph glyph-name="odieresis" unicode="&#xf6;" horiz-adv-x="1146" 
d="M84 465c0 65.333 11.666 127.666 34.999 186.999s56.166 111.666 98.499 156.999s93.833 80.833 154.5 106.5s127.667 38.5 201 38.5c74 0 141 -12.833 201 -38.5s111.5 -61.167 154.5 -106.5s76.167 -97.666 99.5 -156.999s35 -121.666 35 -186.999
s-11.667 -127.5 -35 -186.5s-56.166 -111 -98.499 -156s-93.833 -80.5 -154.5 -106.5s-128 -39 -202 -39c-75.333 0 -142.833 13 -202.5 39s-110.667 61.5 -153 106.5s-75.166 97 -98.499 156s-35 121.167 -35 186.5zM194.999 1249c0 39.333 14 73.167 42 101.5
s61.667 42.5 101 42.5s73 -14 101 -42s42 -62 42 -102c0 -39.333 -14 -73 -42 -101s-61.667 -42 -101 -42s-73 14 -101 42s-42 61.667 -42 101zM259.999 465.001c0 -45.333 7.5 -87.6641 22.5 -126.997s36.167 -73.833 63.5 -103.5s60 -53.334 98 -71.001
s81 -26.5 129 -26.5s91.167 8.83301 129.5 26.5s71.166 41.334 98.499 71.001s48.5 64.167 63.5 103.5s22.5 81.666 22.5 126.999s-7.5 87.666 -22.5 126.999s-36.167 74 -63.5 104s-60.166 54 -98.499 72s-81.5 27 -129.5 27s-91 -9 -129 -27s-70.667 -42 -98 -72
s-48.5 -64.833 -63.5 -104.5s-22.5 -81.834 -22.5 -126.501zM665.999 1249c0 39.333 13.667 73.167 41 101.5s60.666 42.5 99.999 42.5s73.333 -14 102 -42s43 -62 43 -102c0 -39.333 -14.333 -73 -43 -101s-62.667 -42 -102 -42s-72.666 14 -99.999 42s-41 61.667 -41 101z
" />
    <glyph glyph-name="divide" unicode="&#xf7;" horiz-adv-x="1177" 
d="M176 401v158h828v-158h-828zM446 174c0 39.333 13.999 73 41.999 101s62 42 102 42c39.333 0 73 -14 101 -42s42 -61.667 42 -101s-14 -73 -42 -101s-61.667 -42 -101 -42s-73.166 14 -101.499 42s-42.5 61.667 -42.5 101zM445.999 805c0 39.333 13.999 73 41.999 101
s62 42 102 42c39.333 0 73 -14 101 -42s42 -61.667 42 -101s-14 -73 -42 -101s-61.667 -42 -101 -42s-73.166 14 -101.499 42s-42.5 61.667 -42.5 101z" />
    <glyph glyph-name="oslash" unicode="&#xf8;" horiz-adv-x="1146" 
d="M84 465c0 65.333 11.6738 127.668 35.0068 187.001s56.166 111.666 98.499 156.999s93.166 80.833 152.499 106.5s125 38.5 197 38.5c19.333 0 37.166 -1 53.499 -3s36.166 -5 59.499 -9l65 154l152 -66l-63 -147c72.667 -44 129 -102.833 169 -176.5
s60 -154.167 60 -241.5c0 -65.333 -11.667 -127.5 -35 -186.5s-56.5 -111 -99.5 -156s-94.167 -80.5 -153.5 -106.5s-126 -39 -200 -39c-24.667 0 -46.834 1.5 -66.501 4.5s-38.834 7.16699 -57.501 12.5l-68 -158l-152 66l66 153
c-66.667 44 -118.834 101.833 -156.501 173.5s-56.5 150.5 -56.5 236.5zM260.007 465.002c0 -49.333 9.16699 -95.501 27.5 -138.501s44.833 -79.5 79.5 -109.5l247 574c-6.66699 2.66699 -13.667 4 -21 4h-22c-48 0 -91 -9 -129 -27s-70.333 -42 -97 -72
s-47.5 -64.667 -62.5 -104s-22.5 -81.666 -22.5 -126.999zM516.007 143.001c16 -4 35 -6.00098 57 -6.00098c48 0 91.167 8.83301 129.5 26.5s71.166 41.334 98.499 71.001s48.5 64.167 63.5 103.5s22.5 81 22.5 125c0 53.333 -10.667 102.5 -32 147.5
s-51.666 81.833 -90.999 110.5z" />
    <glyph glyph-name="ugrave" unicode="&#xf9;" 
d="M141 381l0.00195312 549.002h178v-492c0 -44 4.16699 -84.333 12.5 -121s21.666 -68.334 39.999 -95.001s42.166 -47.834 71.499 -63.501s65.333 -23.5 108 -23.5c45.333 0 85 8.5 119 25.5s61.833 40.167 83.5 69.5s38 63.166 49 101.499s16.5 78.833 16.5 121.5v477
h178v-930h-178v166c-27.333 -57.333 -69 -103.166 -125 -137.499s-125 -51.5 -207 -51.5c-58.667 0 -111.5 10 -158.5 30s-86.167 50.333 -117.5 91c-26 35.333 -44.167 75 -54.5 119s-15.5 98.667 -15.5 164zM283.002 1311l86 139l510 -281l-86 -139z" />
    <glyph glyph-name="uacute" unicode="&#xfa;" 
d="M141 381l0.00195312 549.002h178v-492c0 -44 4.16699 -84.333 12.5 -121s21.666 -68.334 39.999 -95.001s42.166 -47.834 71.499 -63.501s65.333 -23.5 108 -23.5c45.333 0 85 8.5 119 25.5s61.833 40.167 83.5 69.5s38 63.166 49 101.499s16.5 78.833 16.5 121.5v477
h178v-930h-178v166c-27.333 -57.333 -69 -103.166 -125 -137.499s-125 -51.5 -207 -51.5c-58.667 0 -111.5 10 -158.5 30s-86.167 50.333 -117.5 91c-26 35.333 -44.167 75 -54.5 119s-15.5 98.667 -15.5 164zM274.002 1169l510 281l84 -139l-510 -281z" />
    <glyph glyph-name="ucircumflex" unicode="&#xfb;" 
d="M141 381l0.00195312 549.002h178v-492c0 -44 4.16699 -84.333 12.5 -121s21.666 -68.334 39.999 -95.001s42.166 -47.834 71.499 -63.501s65.333 -23.5 108 -23.5c45.333 0 85 8.5 119 25.5s61.833 40.167 83.5 69.5s38 63.166 49 101.499s16.5 78.833 16.5 121.5v477
h178v-930h-178v166c-27.333 -57.333 -69 -103.166 -125 -137.499s-125 -51.5 -207 -51.5c-58.667 0 -111.5 10 -158.5 30s-86.167 50.333 -117.5 91c-26 35.333 -44.167 75 -54.5 119s-15.5 98.667 -15.5 164zM199.002 1198l366 297l371 -297l-111 -125l-258 207l-256 -207z
" />
    <glyph glyph-name="udieresis" unicode="&#xfc;" 
d="M141 381l0.00195312 549.002h178v-492c0 -44 4.16699 -84.333 12.5 -121s21.666 -68.334 39.999 -95.001s42.166 -47.834 71.499 -63.501s65.333 -23.5 108 -23.5c45.333 0 85 8.5 119 25.5s61.833 40.167 83.5 69.5s38 63.166 49 101.499s16.5 78.833 16.5 121.5v477
h178v-930h-178v166c-27.333 -57.333 -69 -103.166 -125 -137.499s-125 -51.5 -207 -51.5c-58.667 0 -111.5 10 -158.5 30s-86.167 50.333 -117.5 91c-26 35.333 -44.167 75 -54.5 119s-15.5 98.667 -15.5 164zM193.002 1249c0 39.333 13.833 73.167 41.5 101.5
s61.5 42.5 101.5 42.5c39.333 0 73 -14 101 -42s42 -62 42 -102c0 -39.333 -14 -73 -42 -101s-61.667 -42 -101 -42s-73 14 -101 42s-42 61.667 -42 101zM664.002 1249c0 39.333 13.499 73.167 40.499 101.5s60.5 42.5 100.5 42.5c39.333 0 73.333 -14 102 -42
s43 -62 43 -102c0 -39.333 -14.333 -73 -43 -101s-62.667 -42 -102 -42s-72.666 14 -99.999 42s-41 61.667 -41 101z" />
    <glyph glyph-name="yacute" unicode="&#xfd;" horiz-adv-x="1173" 
d="M143 -121h174.002c2.66699 -74 23.5 -133.5 62.5 -178.5s105.833 -67.5 200.5 -67.5c87.333 0 152.833 23 196.5 69s65.5 123.333 65.5 232v232c-28.667 -57.333 -70.334 -103.166 -125.001 -137.499s-123.667 -51.5 -207 -51.5c-64 0 -119 10.333 -165 31
s-83.333 50 -112 88c-26 35.333 -44 75.333 -54 120s-15 101.667 -15 171v543h178v-488c0 -44 3.83301 -84.667 11.5 -122s20.334 -69.666 38.001 -96.999s41.167 -48.833 70.5 -64.5s66.333 -23.5 111 -23.5c46.667 0 87 8.5 121 25.5s62 40.167 84 69.5
s38.167 63.166 48.5 101.499s15.5 78.833 15.5 121.5v477h178v-996c0 -82 -10.667 -151.833 -32 -209.5s-51 -105 -89 -142s-84 -64 -138 -81s-113.667 -25.5 -179 -25.5c-76.667 0 -142.334 10.167 -197.001 30.5s-99.334 48.666 -134.001 84.999s-61 79 -79 128
s-27.667 102.167 -29 159.5zM295.002 1169l510 281l86 -139l-510 -281z" />
    <glyph glyph-name="thorn" unicode="&#xfe;" horiz-adv-x="1216" 
d="M160 -504l0.00195312 1938h178v-664c28.667 53.333 71.334 97.333 128.001 132s125.334 52 206.001 52c66.667 0 128.667 -12.833 186 -38.5s107.166 -61.167 149.499 -106.5s75.166 -97.666 98.499 -156.999s35 -121.666 35 -186.999s-11.667 -127.5 -35 -186.5
s-55.833 -110.667 -97.5 -155s-91.167 -79.833 -148.5 -106.5s-120 -40 -188 -40c-80.667 0 -149.334 17.5 -206.001 52.5s-99.334 79.167 -128.001 132.5v-666h-178zM338.002 464.998c0 -45.333 7.5 -87.668 22.5 -127.001s36.167 -74.166 63.5 -104.499s60 -54 98 -71
s81 -25.5 129 -25.5s91.167 8.83301 129.5 26.5s71.166 41.667 98.499 72s48.166 65.166 62.499 104.499s21.5 81 21.5 125s-7.16699 86 -21.5 126s-35.166 75 -62.499 105s-60.166 54 -98.499 72s-81.5 27 -129.5 27s-91 -9 -129 -27s-70.667 -41.667 -98 -71
s-48.5 -64.166 -63.5 -104.499s-22.5 -82.833 -22.5 -127.5z" />
    <glyph glyph-name="ydieresis" unicode="&#xff;" horiz-adv-x="1173" 
d="M143 -121h174.002c2.66699 -74 23.5 -133.5 62.5 -178.5s105.833 -67.5 200.5 -67.5c87.333 0 152.833 23 196.5 69s65.5 123.333 65.5 232v232c-28.667 -57.333 -70.334 -103.166 -125.001 -137.499s-123.667 -51.5 -207 -51.5c-64 0 -119 10.333 -165 31
s-83.333 50 -112 88c-26 35.333 -44 75.333 -54 120s-15 101.667 -15 171v543h178v-488c0 -44 3.83301 -84.667 11.5 -122s20.334 -69.666 38.001 -96.999s41.167 -48.833 70.5 -64.5s66.333 -23.5 111 -23.5c46.667 0 87 8.5 121 25.5s62 40.167 84 69.5
s38.167 63.166 48.5 101.499s15.5 78.833 15.5 121.5v477h178v-996c0 -82 -10.667 -151.833 -32 -209.5s-51 -105 -89 -142s-84 -64 -138 -81s-113.667 -25.5 -179 -25.5c-76.667 0 -142.334 10.167 -197.001 30.5s-99.334 48.666 -134.001 84.999s-61 79 -79 128
s-27.667 102.167 -29 159.5zM233.002 1247c0 39.333 13.332 72.333 39.999 99s59.334 40 98.001 40c38 0 70.333 -13.167 97 -39.5s40 -59.5 40 -99.5c0 -38 -13.333 -70 -40 -96s-59 -39 -97 -39s-70.5 13 -97.5 39s-40.5 58 -40.5 96zM705.001 1247
c0 39.333 12.832 72.333 38.499 99s57.834 40 96.501 40c39.333 0 72.333 -13.167 99 -39.5s40 -59.5 40 -99.5c0 -38 -13.333 -70 -40 -96s-59.667 -39 -99 -39c-38 0 -70 13 -96 39s-39 58 -39 96z" />
    <glyph glyph-name="Amacron" unicode="&#x100;" horiz-adv-x="1144" 
d="M10 0l494 1434h135l496 -1434h-197l-76 219h-581l-74 -219h-197zM205 1642v158h733v-158h-733zM338 389h467l-232 739z" />
    <glyph glyph-name="amacron" unicode="&#x101;" horiz-adv-x="1222" 
d="M84 465c0 65.333 11.6699 127.668 35.0029 187.001s56.166 111.666 98.499 156.999s91.833 80.833 148.5 106.5s119 38.5 187 38.5c79.333 0 147.666 -17.333 204.999 -52s100.333 -78.667 129 -132v160h176v-930h-176v162c-28.667 -53.333 -71.667 -97.5 -129 -132.5
s-126.333 -52.5 -207 -52.5c-68 0 -130.333 13 -187 39s-105.834 61.5 -147.501 106.5s-74.167 97 -97.5 156s-35 121.167 -35 186.5zM195.003 1169v160h733v-160h-733zM260.003 465.002c0 -45.333 7.5 -87.6641 22.5 -126.997s36.167 -73.833 63.5 -103.5
s60 -53.334 98 -71.001s81 -26.5 129 -26.5s91.167 8.83301 129.5 26.5s71.166 41.334 98.499 71.001s48.5 64.167 63.5 103.5s22.5 81.666 22.5 126.999s-7.5 87.666 -22.5 126.999s-36.167 74 -63.5 104s-60.166 54 -98.499 72s-81.5 27 -129.5 27s-91 -9 -129 -27
s-70.667 -42 -98 -72s-48.5 -64.833 -63.5 -104.5s-22.5 -81.834 -22.5 -126.501z" />
    <glyph glyph-name="Abreve" unicode="&#x102;" horiz-adv-x="1144" 
d="M10 0l494 1434h135l496 -1434h-197l-76 219h-581l-74 -219h-197zM158 1825l168.001 0.000976562c15.333 -48 44.333 -85 87 -111s94.667 -39 156 -39c64 0 118 13.667 162 41s72.667 63.666 86 108.999h168c-5.33301 -45.333 -20.333 -86.666 -45 -123.999
s-55.667 -69.666 -93 -96.999s-80 -48.5 -128 -63.5s-97.333 -22.5 -148 -22.5c-52 0 -101.167 7.5 -147.5 22.5s-87.833 36.167 -124.5 63.5s-67.334 59.666 -92.001 96.999s-41 78.666 -49 123.999zM338.001 389.001h467l-232 739z" />
    <glyph glyph-name="abreve" unicode="&#x103;" horiz-adv-x="1222" 
d="M84 465c0 65.333 11.6699 127.668 35.0029 187.001s56.166 111.666 98.499 156.999s91.833 80.833 148.5 106.5s119 38.5 187 38.5c79.333 0 147.666 -17.333 204.999 -52s100.333 -78.667 129 -132v160h176v-930h-176v162c-28.667 -53.333 -71.667 -97.5 -129 -132.5
s-126.333 -52.5 -207 -52.5c-68 0 -130.333 13 -187 39s-105.834 61.5 -147.501 106.5s-74.167 97 -97.5 156s-35 121.167 -35 186.5zM139.003 1434l168.002 -0.000976562c16.667 -48 45.834 -85 87.501 -111s93.167 -39 154.5 -39c64 0 118.167 13.333 162.5 40
s73.5 63.334 87.5 110.001h168c-5.33301 -45.333 -20.333 -86.833 -45 -124.5s-55.834 -70.5 -93.501 -98.5s-80.334 -49.5 -128.001 -64.5s-96.834 -22.5 -147.501 -22.5c-52 0 -101.167 7.83301 -147.5 23.5s-88 37.167 -125 64.5s-67.667 59.833 -92 97.5
s-40.833 79.167 -49.5 124.5zM260.005 465.001c0 -45.333 7.5 -87.6641 22.5 -126.997s36.167 -73.833 63.5 -103.5s60 -53.334 98 -71.001s81 -26.5 129 -26.5s91.167 8.83301 129.5 26.5s71.166 41.334 98.499 71.001s48.5 64.167 63.5 103.5s22.5 81.666 22.5 126.999
s-7.5 87.666 -22.5 126.999s-36.167 74 -63.5 104s-60.166 54 -98.499 72s-81.5 27 -129.5 27s-91 -9 -129 -27s-70.667 -42 -98 -72s-48.5 -64.833 -63.5 -104.5s-22.5 -81.834 -22.5 -126.501z" />
    <glyph glyph-name="Aogonek" unicode="&#x104;" horiz-adv-x="1144" 
d="M10 0l494 1434h135l496 -1434h-66c-34 -23.333 -63.333 -49 -88 -77s-37 -61.667 -37 -101c0 -32.667 10.333 -61 31 -85s52 -36 94 -36c18 0 38.5 2.33301 61.5 7s44.167 11.334 63.5 20.001v-131c-22 -6.66699 -49.333 -13.5 -82 -20.5s-66 -10.5 -100 -10.5
c-79.333 0 -138.833 19.5 -178.5 58.5s-59.5 85.5 -59.5 139.5c0 44 13.333 84.5 40 121.5s68 75.167 124 114.5l-76 219h-581l-74 -219h-197zM338 388.999h467l-232 739z" />
    <glyph glyph-name="aogonek" unicode="&#x105;" horiz-adv-x="1222" 
d="M84 465c0 65.333 11.6719 127.667 35.0049 187s56.166 111.666 98.499 156.999s91.833 80.833 148.5 106.5s119 38.5 187 38.5c79.333 0 147.666 -17.333 204.999 -52s100.333 -78.667 129 -132v160h176v-930h-47c-32.667 -23.333 -61.334 -49 -86.001 -77
s-37 -61.667 -37 -101c0 -32.667 10.167 -61 30.5 -85s51.166 -36 92.499 -36c18 0 38.833 2.33301 62.5 7s45.167 11.334 64.5 20.001v-131c-22 -6.66699 -49.333 -13.5 -82 -20.5s-66 -10.5 -100 -10.5c-79.333 0 -138.833 19.5 -178.5 58.5s-59.5 85.5 -59.5 139.5
c0 44 13.333 84.5 40 121.5s68 75.167 124 114.5v162c-28.667 -53.333 -71.667 -97.5 -129 -132.5s-126.333 -52.5 -207 -52.5c-68 0 -130.333 13 -187 39s-105.834 61.5 -147.501 106.5s-74.167 97 -97.5 156s-35 121.167 -35 186.5zM260.005 465.001
c0 -45.333 7.5 -87.6641 22.5 -126.997s36.167 -73.833 63.5 -103.5s60 -53.334 98 -71.001s81 -26.5 129 -26.5s91.167 8.83301 129.5 26.5s71.166 41.334 98.499 71.001s48.5 64.167 63.5 103.5s22.5 81.666 22.5 126.999s-7.5 87.666 -22.5 126.999s-36.167 74 -63.5 104
s-60.166 54 -98.499 72s-81.5 27 -129.5 27s-91 -9 -129 -27s-70.667 -42 -98 -72s-48.5 -64.833 -63.5 -104.5s-22.5 -81.834 -22.5 -126.501z" />
    <glyph glyph-name="Cacute" unicode="&#x106;" horiz-adv-x="1587" 
d="M84 719c0 98 16.332 192.165 48.999 282.498s80.834 169.833 144.501 238.5s141.167 123.5 232.5 164.5s196.333 61.5 315 61.5c96.667 0 184.334 -14 263.001 -42s147 -65.833 205 -113.5s105.167 -104.334 141.5 -170.001s60.5 -135.167 72.5 -208.5h-196
c-10.667 52 -29 100.5 -55 145.5s-59.5 83.833 -100.5 116.5s-88.5 58.167 -142.5 76.5s-114.667 27.5 -182 27.5c-88.667 0 -167.334 -16 -236.001 -48s-126.667 -75 -174 -129s-83.666 -115.833 -108.999 -185.5s-38 -141.834 -38 -216.501
c0 -79.333 13.667 -154.166 41 -224.499s65.666 -132.166 114.999 -185.499s108.5 -95.666 177.5 -126.999s145.833 -47 230.5 -47c58.667 0 113.167 7.83301 163.5 23.5s95.333 37.167 135 64.5s73.5 59.833 101.5 97.5s49.667 78.167 65 121.5h204
c-18 -65.333 -46.333 -126.666 -85 -183.999s-87 -107.5 -145 -150.5s-124.5 -77.167 -199.5 -102.5s-157.833 -38 -248.5 -38c-114.667 0 -218 20.5 -310 61.5s-170.167 95.667 -234.5 164s-113.833 147.833 -148.5 238.5s-52 186.667 -52 288zM505.999 1675l510 281
l86 -141l-510 -281z" />
    <glyph glyph-name="cacute" unicode="&#x107;" horiz-adv-x="1083" 
d="M88 465c0 62.667 9.83105 123.33 29.498 181.997s49 110.834 88 156.501s88.167 82.167 147.5 109.5s128.666 41 207.999 41c69.333 0 130 -10.167 182 -30.5s95.833 -47.5 131.5 -81.5s63 -72.5 82 -115.5s30.5 -87.833 34.5 -134.5h-178
c-6.66699 57.333 -30.167 105.5 -70.5 144.5s-99.5 58.5 -177.5 58.5c-52 0 -96.667 -9 -134 -27s-68.333 -42.333 -93 -73s-42.834 -65.834 -54.501 -105.501s-17.5 -81.167 -17.5 -124.5c0 -44 5.83301 -85.667 17.5 -125s29.834 -74.166 54.501 -104.499
s56 -54.333 94 -72s83.667 -26.5 137 -26.5c74 0 129.833 16.5 167.5 49.5s63.834 77.167 78.501 132.5h178c-6.66699 -45.333 -20.167 -88.666 -40.5 -129.999s-48.666 -77.666 -84.999 -108.999s-79.666 -56.333 -129.999 -75s-108.5 -28 -174.5 -28
c-80.667 0 -150.667 13.667 -210 41s-108.5 63.666 -147.5 108.999s-68.333 97.333 -88 156s-29.5 119.334 -29.5 182.001zM243.998 1126l510 281l84 -139l-510 -281z" />
    <glyph glyph-name="Ccircumflex" unicode="&#x108;" horiz-adv-x="1587" 
d="M84 719c0 98 16.332 192.165 48.999 282.498s80.834 169.833 144.501 238.5s141.167 123.5 232.5 164.5s196.333 61.5 315 61.5c96.667 0 184.334 -14 263.001 -42s147 -65.833 205 -113.5s105.167 -104.334 141.5 -170.001s60.5 -135.167 72.5 -208.5h-196
c-10.667 52 -29 100.5 -55 145.5s-59.5 83.833 -100.5 116.5s-88.5 58.167 -142.5 76.5s-114.667 27.5 -182 27.5c-88.667 0 -167.334 -16 -236.001 -48s-126.667 -75 -174 -129s-83.666 -115.833 -108.999 -185.5s-38 -141.834 -38 -216.501
c0 -79.333 13.667 -154.166 41 -224.499s65.666 -132.166 114.999 -185.499s108.5 -95.666 177.5 -126.999s145.833 -47 230.5 -47c58.667 0 113.167 7.83301 163.5 23.5s95.333 37.167 135 64.5s73.5 59.833 101.5 97.5s49.667 78.167 65 121.5h204
c-18 -65.333 -46.333 -126.666 -85 -183.999s-87 -107.5 -145 -150.5s-124.5 -77.167 -199.5 -102.5s-157.833 -38 -248.5 -38c-114.667 0 -218 20.5 -310 61.5s-170.167 95.667 -234.5 164s-113.833 147.833 -148.5 238.5s-52 186.667 -52 288zM443.999 1665l369 297
l369 -297l-111 -125l-258 207l-256 -205z" />
    <glyph glyph-name="ccircumflex" unicode="&#x109;" horiz-adv-x="1083" 
d="M88 465c0 62.667 9.83105 123.33 29.498 181.997s49 110.834 88 156.501s88.167 82.167 147.5 109.5s128.666 41 207.999 41c69.333 0 130 -10.167 182 -30.5s95.833 -47.5 131.5 -81.5s63 -72.5 82 -115.5s30.5 -87.833 34.5 -134.5h-178
c-6.66699 57.333 -30.167 105.5 -70.5 144.5s-99.5 58.5 -177.5 58.5c-52 0 -96.667 -9 -134 -27s-68.333 -42.333 -93 -73s-42.834 -65.834 -54.501 -105.501s-17.5 -81.167 -17.5 -124.5c0 -44 5.83301 -85.667 17.5 -125s29.834 -74.166 54.501 -104.499
s56 -54.333 94 -72s83.667 -26.5 137 -26.5c74 0 129.833 16.5 167.5 49.5s63.834 77.167 78.501 132.5h178c-6.66699 -45.333 -20.167 -88.666 -40.5 -129.999s-48.666 -77.666 -84.999 -108.999s-79.666 -56.333 -129.999 -75s-108.5 -28 -174.5 -28
c-80.667 0 -150.667 13.667 -210 41s-108.5 63.666 -147.5 108.999s-68.333 97.333 -88 156s-29.5 119.334 -29.5 182.001zM175.998 1198l369 297l368 -297l-110 -125l-258 207l-256 -207z" />
    <glyph glyph-name="Cdotaccent" unicode="&#x10a;" horiz-adv-x="1587" 
d="M84 719c0 98 16.332 192.165 48.999 282.498s80.834 169.833 144.501 238.5s141.167 123.5 232.5 164.5s196.333 61.5 315 61.5c96.667 0 184.334 -14 263.001 -42s147 -65.833 205 -113.5s105.167 -104.334 141.5 -170.001s60.5 -135.167 72.5 -208.5h-196
c-10.667 52 -29 100.5 -55 145.5s-59.5 83.833 -100.5 116.5s-88.5 58.167 -142.5 76.5s-114.667 27.5 -182 27.5c-88.667 0 -167.334 -16 -236.001 -48s-126.667 -75 -174 -129s-83.666 -115.833 -108.999 -185.5s-38 -141.834 -38 -216.501
c0 -79.333 13.667 -154.166 41 -224.499s65.666 -132.166 114.999 -185.499s108.5 -95.666 177.5 -126.999s145.833 -47 230.5 -47c58.667 0 113.167 7.83301 163.5 23.5s95.333 37.167 135 64.5s73.5 59.833 101.5 97.5s49.667 78.167 65 121.5h204
c-18 -65.333 -46.333 -126.666 -85 -183.999s-87 -107.5 -145 -150.5s-124.5 -77.167 -199.5 -102.5s-157.833 -38 -248.5 -38c-114.667 0 -218 20.5 -310 61.5s-170.167 95.667 -234.5 164s-113.833 147.833 -148.5 238.5s-52 186.667 -52 288zM667.999 1743
c0 39.333 13.667 72.998 41 100.998s60.666 42 99.999 42s73.333 -14 102 -42s43 -61.667 43 -101s-14.333 -73.166 -43 -101.499s-62.667 -42.5 -102 -42.5s-72.666 13.833 -99.999 41.5s-41 61.834 -41 102.501z" />
    <glyph glyph-name="cdotaccent" unicode="&#x10b;" horiz-adv-x="1083" 
d="M88 465c0 62.667 9.83105 123.33 29.498 181.997s49 110.834 88 156.501s88.167 82.167 147.5 109.5s128.666 41 207.999 41c69.333 0 130 -10.167 182 -30.5s95.833 -47.5 131.5 -81.5s63 -72.5 82 -115.5s30.5 -87.833 34.5 -134.5h-178
c-6.66699 57.333 -30.167 105.5 -70.5 144.5s-99.5 58.5 -177.5 58.5c-52 0 -96.667 -9 -134 -27s-68.333 -42.333 -93 -73s-42.834 -65.834 -54.501 -105.501s-17.5 -81.167 -17.5 -124.5c0 -44 5.83301 -85.667 17.5 -125s29.834 -74.166 54.501 -104.499
s56 -54.333 94 -72s83.667 -26.5 137 -26.5c74 0 129.833 16.5 167.5 49.5s63.834 77.167 78.501 132.5h178c-6.66699 -45.333 -20.167 -88.666 -40.5 -129.999s-48.666 -77.666 -84.999 -108.999s-79.666 -56.333 -129.999 -75s-108.5 -28 -174.5 -28
c-80.667 0 -150.667 13.667 -210 41s-108.5 63.666 -147.5 108.999s-68.333 97.333 -88 156s-29.5 119.334 -29.5 182.001zM411.998 1247c0 39.333 14 73.167 42 101.5s61.667 42.5 101 42.5s73 -14 101 -42s42 -62 42 -102c0 -39.333 -14 -73 -42 -101
s-61.667 -42 -101 -42s-73 14 -101 42s-42 61.667 -42 101z" />
    <glyph glyph-name="Ccaron" unicode="&#x10c;" horiz-adv-x="1587" 
d="M84 719c0 98 16.332 192.165 48.999 282.498s80.834 169.833 144.501 238.5s141.167 123.5 232.5 164.5s196.333 61.5 315 61.5c96.667 0 184.334 -14 263.001 -42s147 -65.833 205 -113.5s105.167 -104.334 141.5 -170.001s60.5 -135.167 72.5 -208.5h-196
c-10.667 52 -29 100.5 -55 145.5s-59.5 83.833 -100.5 116.5s-88.5 58.167 -142.5 76.5s-114.667 27.5 -182 27.5c-88.667 0 -167.334 -16 -236.001 -48s-126.667 -75 -174 -129s-83.666 -115.833 -108.999 -185.5s-38 -141.834 -38 -216.501
c0 -79.333 13.667 -154.166 41 -224.499s65.666 -132.166 114.999 -185.499s108.5 -95.666 177.5 -126.999s145.833 -47 230.5 -47c58.667 0 113.167 7.83301 163.5 23.5s95.333 37.167 135 64.5s73.5 59.833 101.5 97.5s49.667 78.167 65 121.5h204
c-18 -65.333 -46.333 -126.666 -85 -183.999s-87 -107.5 -145 -150.5s-124.5 -77.167 -199.5 -102.5s-157.833 -38 -248.5 -38c-114.667 0 -218 20.5 -310 61.5s-170.167 95.667 -234.5 164s-113.833 147.833 -148.5 238.5s-52 186.667 -52 288zM470.999 1837l96 123
l230 -215l233 215l96 -123l-329 -297z" />
    <glyph glyph-name="ccaron" unicode="&#x10d;" horiz-adv-x="1083" 
d="M88 465c0 62.667 9.83105 123.33 29.498 181.997s49 110.834 88 156.501s88.167 82.167 147.5 109.5s128.666 41 207.999 41c69.333 0 130 -10.167 182 -30.5s95.833 -47.5 131.5 -81.5s63 -72.5 82 -115.5s30.5 -87.833 34.5 -134.5h-178
c-6.66699 57.333 -30.167 105.5 -70.5 144.5s-99.5 58.5 -177.5 58.5c-52 0 -96.667 -9 -134 -27s-68.333 -42.333 -93 -73s-42.834 -65.834 -54.501 -105.501s-17.5 -81.167 -17.5 -124.5c0 -44 5.83301 -85.667 17.5 -125s29.834 -74.166 54.501 -104.499
s56 -54.333 94 -72s83.667 -26.5 137 -26.5c74 0 129.833 16.5 167.5 49.5s63.834 77.167 78.501 132.5h178c-6.66699 -45.333 -20.167 -88.666 -40.5 -129.999s-48.666 -77.666 -84.999 -108.999s-79.666 -56.333 -129.999 -75s-108.5 -28 -174.5 -28
c-80.667 0 -150.667 13.667 -210 41s-108.5 63.666 -147.5 108.999s-68.333 97.333 -88 156s-29.5 119.334 -29.5 182.001zM226.998 1370l97 125l229 -217l233 217l97 -125l-330 -297z" />
    <glyph glyph-name="Dcaron" unicode="&#x10e;" horiz-adv-x="1427" 
d="M160 0v1434h442c118.667 0 224.167 -20.5 316.5 -61.5s170.166 -95 233.499 -162s111.5 -143.5 144.5 -229.5s49.5 -174 49.5 -264s-16.5 -178 -49.5 -264s-81.167 -162.5 -144.5 -229.5s-141.166 -121 -233.499 -162s-197.833 -61.5 -316.5 -61.5h-442zM346 168
l256 0.00195312c87.333 0 165.5 15.667 234.5 47s126.667 72.666 173 123.999s81.833 109.666 106.5 174.999s37 133 37 203c0 69.333 -12.333 136.833 -37 202.5s-60.167 124 -106.5 175s-104 92.333 -173 124s-147.167 47.5 -234.5 47.5h-256v-1098zM354 1837l97 123
l229 -215l233 215l97 -123l-330 -297z" />
    <glyph glyph-name="dcaron" unicode="&#x10f;" horiz-adv-x="1478" 
d="M84 465c0 65.333 11.6699 127.668 35.0029 187.001s56.166 111.666 98.499 156.999s91.833 80.833 148.5 106.5s119 38.5 187 38.5c79.333 0 147.666 -17.333 204.999 -52s100.333 -78.667 129 -132v664h176v-1434h-176v162c-28.667 -53.333 -71.667 -97.5 -129 -132.5
s-126.333 -52.5 -207 -52.5c-68 0 -130.333 13 -187 39s-105.834 61.5 -147.501 106.5s-74.167 97 -97.5 156s-35 121.167 -35 186.5zM260.003 465.002c0 -45.333 7.5 -87.6641 22.5 -126.997s36.167 -73.833 63.5 -103.5s60 -53.334 98 -71.001s81 -26.5 129 -26.5
s91.167 8.83301 129.5 26.5s71.166 41.334 98.499 71.001s48.5 64.167 63.5 103.5s22.5 81.666 22.5 126.999s-7.5 87.666 -22.5 126.999s-36.167 74 -63.5 104s-60.166 54 -98.499 72s-81.5 27 -129.5 27s-91 -9 -129 -27s-70.667 -42 -98 -72s-48.5 -64.833 -63.5 -104.5
s-22.5 -81.834 -22.5 -126.501zM1174 1352c0 39.333 13.167 72.333 39.5 99s61.5 40 105.5 40c48 0 86.667 -18.5 116 -55.5s44 -90.833 44 -161.5c0 -94 -26.667 -163.667 -80 -209s-125 -68 -215 -68v86c39.333 0 70 5.5 92 16.5s39 26.167 51 45.5
c12 18 19.833 34 23.5 48s5.5 26.667 5.5 38c-6.66699 -9.33301 -23.667 -14 -51 -14c-38 0 -69.333 13 -94 39s-37 58 -37 96z" />
    <glyph glyph-name="Dcroat" unicode="&#x110;" horiz-adv-x="1427" 
d="M-111 641v160h271v633h442c118.667 0 224.167 -20.5 316.5 -61.5s170.166 -95 233.499 -162s111.5 -143.5 144.5 -229.5s49.5 -174 49.5 -264s-16.5 -178 -49.5 -264s-81.167 -162.5 -144.5 -229.5s-141.166 -121 -233.499 -162s-197.833 -61.5 -316.5 -61.5h-442v641
h-271zM346 168l256 0.00195312c87.333 0 165.5 15.667 234.5 47s126.667 72.666 173 123.999s81.833 109.666 106.5 174.999s37 133 37 203c0 69.333 -12.333 136.833 -37 202.5s-60.167 124 -106.5 175s-104 92.333 -173 124s-147.167 47.5 -234.5 47.5h-256v-465h279v-160
h-279v-473z" />
    <glyph glyph-name="dcroat" unicode="&#x111;" horiz-adv-x="1222" 
d="M84 465c0 65.333 11.6699 127.668 35.0029 187.001s56.166 111.666 98.499 156.999s91.833 80.833 148.5 106.5s119 38.5 187 38.5c79.333 0 147.666 -17.333 204.999 -52s100.333 -78.667 129 -132v307h-197v160h197v197h176v-197h106v-160h-106v-1077h-176v162
c-28.667 -53.333 -71.667 -97.5 -129 -132.5s-126.333 -52.5 -207 -52.5c-68 0 -130.333 13 -187 39s-105.834 61.5 -147.501 106.5s-74.167 97 -97.5 156s-35 121.167 -35 186.5zM260.003 465.002c0 -45.333 7.5 -87.6641 22.5 -126.997s36.167 -73.833 63.5 -103.5
s60 -53.334 98 -71.001s81 -26.5 129 -26.5s91.167 8.83301 129.5 26.5s71.166 41.334 98.499 71.001s48.5 64.167 63.5 103.5s22.5 81.666 22.5 126.999s-7.5 87.666 -22.5 126.999s-36.167 74 -63.5 104s-60.166 54 -98.499 72s-81.5 27 -129.5 27s-91 -9 -129 -27
s-70.667 -42 -98 -72s-48.5 -64.833 -63.5 -104.5s-22.5 -81.834 -22.5 -126.501z" />
    <glyph glyph-name="Emacron" unicode="&#x112;" horiz-adv-x="1114" 
d="M160 0v1434h805v-168h-619v-469h619v-168h-619v-461h619v-168h-805zM190 1642v158h734v-158h-734z" />
    <glyph glyph-name="emacron" unicode="&#x113;" horiz-adv-x="1075" 
d="M88 469c0 69.333 10.668 133.501 32.001 192.501s51.333 110.333 90 154s85.667 77.667 141 102s117.333 36.5 186 36.5c64 0 123 -10.5 177 -31.5s100.333 -50.667 139 -89s69 -83 91 -134s33 -105.833 33 -164.5c0 -13.333 -0.333008 -29.666 -1 -48.999s-3 -42 -7 -68
h-699c0 -39.333 5.5 -76.5 16.5 -111.5s27.833 -65.833 50.5 -92.5s51.667 -47.834 87 -63.501s77.666 -23.5 126.999 -23.5c70.667 0 124.167 14.667 160.5 44s61.833 63.666 76.5 102.999h181c-8 -39.333 -23.333 -76.666 -46 -111.999s-51.5 -66.666 -86.5 -93.999
s-76.667 -49.333 -125 -66s-101.833 -25 -160.5 -25c-78 0 -146 13.667 -204 41s-106.167 63.666 -144.5 108.999s-67 97.666 -86 156.999s-28.5 121 -28.5 185zM172.001 1227v159h733v-159h-733zM272.001 553.001h533c0 76.667 -24.5 137.5 -73.5 182.5
s-112.5 67.5 -190.5 67.5c-74 0 -136.667 -21.167 -188 -63.5s-78.333 -104.5 -81 -186.5z" />
    <glyph glyph-name="Ebreve" unicode="&#x114;" horiz-adv-x="1114" 
d="M143 1825h168.004c16.667 -48 46.167 -85 88.5 -111s94.166 -39 155.499 -39c62.667 0 116.167 13.333 160.5 40s73.5 63.334 87.5 110.001h168c-5.33301 -45.333 -20.333 -86.666 -45 -123.999s-55.834 -70 -93.501 -98s-80.334 -49.5 -128.001 -64.5
s-96.834 -22.5 -147.501 -22.5c-52 0 -101.167 7.83301 -147.5 23.5s-88 37.167 -125 64.5s-67.667 59.666 -92 96.999s-40.833 78.666 -49.5 123.999zM160.004 0v1434h805v-168h-619v-469h619v-168h-619v-461h619v-168h-805z" />
    <glyph glyph-name="ebreve" unicode="&#x115;" horiz-adv-x="1075" 
d="M88 469c0 69.333 10.668 133.501 32.001 192.501s51.333 110.333 90 154s85.667 77.667 141 102s117.333 36.5 186 36.5c64 0 123 -10.5 177 -31.5s100.333 -50.667 139 -89s69 -83 91 -134s33 -105.833 33 -164.5c0 -13.333 -0.333008 -29.666 -1 -48.999s-3 -42 -7 -68
h-699c0 -39.333 5.5 -76.5 16.5 -111.5s27.833 -65.833 50.5 -92.5s51.667 -47.834 87 -63.501s77.666 -23.5 126.999 -23.5c70.667 0 124.167 14.667 160.5 44s61.833 63.666 76.5 102.999h181c-8 -39.333 -23.333 -76.666 -46 -111.999s-51.5 -66.666 -86.5 -93.999
s-76.667 -49.333 -125 -66s-101.833 -25 -160.5 -25c-78 0 -146 13.667 -204 41s-106.167 63.666 -144.5 108.999s-67 97.666 -86 156.999s-28.5 121 -28.5 185zM127.001 1434l168.001 -0.000976562c16.667 -48 45.667 -85 87 -111s93 -39 155 -39
c64 0 118.167 13.333 162.5 40s73.166 63.334 86.499 110.001h168c-5.33301 -45.333 -20.333 -86.833 -45 -124.5s-55.667 -70.5 -93 -98.5s-80 -49.5 -128 -64.5s-97 -22.5 -147 -22.5c-52 0 -101.167 7.83301 -147.5 23.5s-88 37.167 -125 64.5s-67.833 59.833 -92.5 97.5
s-41 79.167 -49 124.5zM272.002 553h533c0 76.667 -24.5 137.5 -73.5 182.5s-112.5 67.5 -190.5 67.5c-74 0 -136.667 -21.167 -188 -63.5s-78.333 -104.5 -81 -186.5z" />
    <glyph glyph-name="Edotaccent" unicode="&#x116;" horiz-adv-x="1114" 
d="M160 0v1434h805v-168h-619v-469h619v-168h-619v-461h619v-168h-805zM414 1743c0 39.333 14 73 42 101s61.667 42 101 42s73 -14 101 -42s42 -61.667 42 -101s-14 -73.166 -42 -101.499s-61.667 -42.5 -101 -42.5s-73 14.167 -101 42.5s-42 62.166 -42 101.499z" />
    <glyph glyph-name="edotaccent" unicode="&#x117;" horiz-adv-x="1075" 
d="M88 469c0 69.333 10.668 133.501 32.001 192.501s51.333 110.333 90 154s85.667 77.667 141 102s117.333 36.5 186 36.5c64 0 123 -10.5 177 -31.5s100.333 -50.667 139 -89s69 -83 91 -134s33 -105.833 33 -164.5c0 -13.333 -0.333008 -29.666 -1 -48.999s-3 -42 -7 -68
h-699c0 -39.333 5.5 -76.5 16.5 -111.5s27.833 -65.833 50.5 -92.5s51.667 -47.834 87 -63.501s77.666 -23.5 126.999 -23.5c70.667 0 124.167 14.667 160.5 44s61.833 63.666 76.5 102.999h181c-8 -39.333 -23.333 -76.666 -46 -111.999s-51.5 -66.666 -86.5 -93.999
s-76.667 -49.333 -125 -66s-101.833 -25 -160.5 -25c-78 0 -146 13.667 -204 41s-106.167 63.666 -144.5 108.999s-67 97.666 -86 156.999s-28.5 121 -28.5 185zM272.001 553.001h533c0 76.667 -24.5 137.5 -73.5 182.5s-112.5 67.5 -190.5 67.5
c-74 0 -136.667 -21.167 -188 -63.5s-78.333 -104.5 -81 -186.5zM397.001 1247c0 39.333 13.999 73.167 41.999 101.5s62 42.5 102 42.5c39.333 0 73 -14 101 -42s42 -62 42 -102c0 -39.333 -14 -73 -42 -101s-61.667 -42 -101 -42s-73.166 14 -101.499 42
s-42.5 61.667 -42.5 101z" />
    <glyph glyph-name="Eogonek" unicode="&#x118;" horiz-adv-x="1114" 
d="M160 0l-0.00195312 1434h805v-168h-619v-469h619v-168h-619v-461h619v-168c-32.667 -23.333 -61.334 -49 -86.001 -77s-37 -61.667 -37 -101c0 -32.667 9.83301 -61 29.5 -85s50.834 -36 93.501 -36c18 0 38.5 2.33301 61.5 7s44.833 11.334 65.5 20.001l-2 -131
c-22 -6.66699 -49 -13.5 -81 -20.5s-65.333 -10.5 -100 -10.5c-79.333 0 -138.666 19.5 -177.999 58.5s-59 85.5 -59 139.5c0 44 13.333 84.5 40 121.5s67.334 75.167 122.001 114.5h-674z" />
    <glyph glyph-name="eogonek" unicode="&#x119;" horiz-adv-x="1075" 
d="M88 469c0 69.333 10.3311 133.499 30.998 192.499s50.334 110.333 89.001 154s85.667 77.667 141 102s118 36.5 188 36.5c64 0 123 -10.5 177 -31.5s100.333 -50.667 139 -89s69 -83 91 -134s33 -105.833 33 -164.5c0 -13.333 -0.333008 -29.666 -1 -48.999
s-3 -42 -7 -68h-699c0 -39.333 5.5 -76.5 16.5 -111.5s27.833 -65.833 50.5 -92.5s51.667 -47.834 87 -63.501s77.666 -23.5 126.999 -23.5c70.667 0 124.167 14.667 160.5 44s61.833 63.666 76.5 102.999h181c-15.333 -72.667 -53.666 -137.167 -114.999 -193.5
s-142.666 -89.833 -243.999 -100.5c-27.333 -20.667 -50.166 -44 -68.499 -70s-27.5 -55.333 -27.5 -88s10.167 -61 30.5 -85s51.166 -36 92.499 -36c18 0 38.833 2.33301 62.5 7s45.167 11.334 64.5 20.001l-2 -131c-22 -6.66699 -49 -13.5 -81 -20.5s-65 -10.5 -99 -10.5
c-80.667 0 -140.5 19.5 -179.5 58.5s-58.5 85.5 -58.5 139.5c0 40.667 11.333 78.5 34 113.5s57 70.5 103 106.5c-65.333 8 -122.5 26.333 -171.5 55s-90 64.834 -123 108.501s-57.667 93.167 -74 148.5s-24.5 113 -24.5 173zM271.998 552.999h533
c0 76.667 -24.5 137.5 -73.5 182.5s-112.5 67.5 -190.5 67.5c-74 0 -136.667 -21.167 -188 -63.5s-78.333 -104.5 -81 -186.5z" />
    <glyph glyph-name="Ecaron" unicode="&#x11a;" horiz-adv-x="1114" 
d="M160 0v1434h805v-168h-619v-469h619v-168h-619v-461h619v-168h-805zM229 1837l95 123l231 -215l231 215l99 -123l-330 -297z" />
    <glyph glyph-name="ecaron" unicode="&#x11b;" horiz-adv-x="1075" 
d="M88 469c0 69.333 10.668 133.501 32.001 192.501s51.333 110.333 90 154s85.667 77.667 141 102s117.333 36.5 186 36.5c64 0 123 -10.5 177 -31.5s100.333 -50.667 139 -89s69 -83 91 -134s33 -105.833 33 -164.5c0 -13.333 -0.333008 -29.666 -1 -48.999s-3 -42 -7 -68
h-699c0 -39.333 5.5 -76.5 16.5 -111.5s27.833 -65.833 50.5 -92.5s51.667 -47.834 87 -63.501s77.666 -23.5 126.999 -23.5c70.667 0 124.167 14.667 160.5 44s61.833 63.666 76.5 102.999h181c-8 -39.333 -23.333 -76.666 -46 -111.999s-51.5 -66.666 -86.5 -93.999
s-76.667 -49.333 -125 -66s-101.833 -25 -160.5 -25c-78 0 -146 13.667 -204 41s-106.167 63.666 -144.5 108.999s-67 97.666 -86 156.999s-28.5 121 -28.5 185zM211.001 1370l96 125l230 -217l233 217l96 -125l-329 -297zM272.001 553.001h533
c0 76.667 -24.5 137.5 -73.5 182.5s-112.5 67.5 -190.5 67.5c-74 0 -136.667 -21.167 -188 -63.5s-78.333 -104.5 -81 -186.5z" />
    <glyph glyph-name="Gcircumflex" unicode="&#x11c;" horiz-adv-x="1712" 
d="M84 711c0 98 16.998 192.832 50.998 284.499s82.5 172.167 145.5 241.5s139.5 124.833 229.5 166.5s191 62.5 303 62.5c82 0 157.833 -11.167 227.5 -33.5s131.167 -53 184.5 -92s96.666 -84.833 129.999 -137.5s54.666 -109 63.999 -169h-188
c-9.33301 36.667 -26 71.167 -50 103.5s-53.833 60.333 -89.5 84s-76.667 42.334 -123 56.001s-96.833 20.5 -151.5 20.5c-84.667 0 -160.5 -16 -227.5 -48s-124 -75.333 -171 -130s-82.833 -117.167 -107.5 -187.5s-37 -143.5 -37 -219.5c0 -74 12 -145.833 36 -215.5
s59.5 -131.5 106.5 -185.5s105.667 -97 176 -129s151.5 -48 243.5 -48c70.667 0 133.334 10 188.001 30s101.834 47 141.501 81s71 74.5 94 121.5s38.833 98.5 47.5 154.5h-338v168h690v-168h-154c-13.333 -82 -38.166 -157 -74.499 -225s-83.166 -126.667 -140.499 -176
s-124.5 -87.333 -201.5 -114s-163.5 -40 -259.5 -40c-121.333 0 -228 20.833 -320 62.5s-169.833 97 -233.5 166s-111.5 148.167 -143.5 237.5s-48 182 -48 278zM450.998 1669l368 297l369 -297l-111 -125l-258 209l-256 -207z" />
    <glyph glyph-name="gcircumflex" unicode="&#x11d;" horiz-adv-x="1218" 
d="M84 465c0 65.333 11.6719 127.671 35.0049 187.004s56.166 111.666 98.499 156.999s91.833 80.833 148.5 106.5s119 38.5 187 38.5c79.333 0 147.666 -17.333 204.999 -52s100.333 -78.667 129 -132v160h176v-989c0 -83.333 -11.667 -154.333 -35 -213
s-56.166 -106.834 -98.499 -144.501s-92.833 -65 -151.5 -82s-123.334 -25.5 -194.001 -25.5c-88.667 0 -163.5 11.833 -224.5 35.5s-110.167 54.667 -147.5 93s-65 81.666 -83 129.999s-29 97.166 -33 146.499h180c2.66699 -32.667 10.167 -64 22.5 -94
s30.166 -56.333 53.499 -79s53.5 -40.834 90.5 -54.501s82.167 -20.5 135.5 -20.5c46.667 0 88.667 5.83301 126 17.5s69.666 29.834 96.999 54.501s48.5 56.5 63.5 95.5s22.5 85.833 22.5 140.5v221c-28.667 -53.333 -71.667 -97.5 -129 -132.5s-126.333 -52.5 -207 -52.5
c-68 0 -130.333 13 -187 39s-105.834 61.5 -147.501 106.5s-74.167 97 -97.5 156s-35 121.167 -35 186.5zM193.005 1198l368 297l369 -297l-111 -125l-258 207l-256 -207zM260.005 465.005c0 -45.333 7.50195 -87.6641 22.502 -126.997s36.167 -73.833 63.5 -103.5
s60.166 -53.334 98.499 -71.001s81.166 -26.5 128.499 -26.5c48 0 91.167 8.83301 129.5 26.5s71.166 41.334 98.499 71.001s48.5 64.167 63.5 103.5s22.5 81.666 22.5 126.999s-7.5 87.666 -22.5 126.999s-36.167 74 -63.5 104s-60.166 54 -98.499 72s-81.5 27 -129.5 27
s-91 -9 -129 -27s-70.667 -42 -98 -72s-48.5 -64.833 -63.5 -104.5s-22.5 -81.834 -22.5 -126.501z" />
    <glyph glyph-name="Gbreve" unicode="&#x11e;" horiz-adv-x="1712" 
d="M84 711c0 98 16.998 192.832 50.998 284.499s82.5 172.167 145.5 241.5s139.5 124.833 229.5 166.5s191 62.5 303 62.5c82 0 157.833 -11.167 227.5 -33.5s131.167 -53 184.5 -92s96.666 -84.833 129.999 -137.5s54.666 -109 63.999 -169h-188
c-9.33301 36.667 -26 71.167 -50 103.5s-53.833 60.333 -89.5 84s-76.667 42.334 -123 56.001s-96.833 20.5 -151.5 20.5c-84.667 0 -160.5 -16 -227.5 -48s-124 -75.333 -171 -130s-82.833 -117.167 -107.5 -187.5s-37 -143.5 -37 -219.5c0 -74 12 -145.833 36 -215.5
s59.5 -131.5 106.5 -185.5s105.667 -97 176 -129s151.5 -48 243.5 -48c70.667 0 133.334 10 188.001 30s101.834 47 141.501 81s71 74.5 94 121.5s38.833 98.5 47.5 154.5h-338v168h690v-168h-154c-13.333 -82 -38.166 -157 -74.499 -225s-83.166 -126.667 -140.499 -176
s-124.5 -87.333 -201.5 -114s-163.5 -40 -259.5 -40c-121.333 0 -228 20.833 -320 62.5s-169.833 97 -233.5 166s-111.5 148.167 -143.5 237.5s-48 182 -48 278zM405.998 1827h165.003c16.667 -48 46.5 -85 89.5 -111s95.167 -39 156.5 -39
c62.667 0 115.834 13.333 159.501 40s72.5 63.334 86.5 110.001h170c-5.33301 -45.333 -20.333 -86.666 -45 -123.999s-55.834 -70 -93.501 -98s-80.334 -49.5 -128.001 -64.5s-96.834 -22.5 -147.501 -22.5c-52 0 -101.167 7.83301 -147.5 23.5s-87.833 37.167 -124.5 64.5
s-67.334 59.666 -92.001 96.999s-41 78.666 -49 123.999z" />
    <glyph glyph-name="gbreve" unicode="&#x11f;" horiz-adv-x="1218" 
d="M84 465c0 65.333 11.6719 127.671 35.0049 187.004s56.166 111.666 98.499 156.999s91.833 80.833 148.5 106.5s119 38.5 187 38.5c79.333 0 147.666 -17.333 204.999 -52s100.333 -78.667 129 -132v160h176v-989c0 -83.333 -11.667 -154.333 -35 -213
s-56.166 -106.834 -98.499 -144.501s-92.833 -65 -151.5 -82s-123.334 -25.5 -194.001 -25.5c-88.667 0 -163.5 11.833 -224.5 35.5s-110.167 54.667 -147.5 93s-65 81.666 -83 129.999s-29 97.166 -33 146.499h180c2.66699 -32.667 10.167 -64 22.5 -94
s30.166 -56.333 53.499 -79s53.5 -40.834 90.5 -54.501s82.167 -20.5 135.5 -20.5c46.667 0 88.667 5.83301 126 17.5s69.666 29.834 96.999 54.501s48.5 56.5 63.5 95.5s22.5 85.833 22.5 140.5v221c-28.667 -53.333 -71.667 -97.5 -129 -132.5s-126.333 -52.5 -207 -52.5
c-68 0 -130.333 13 -187 39s-105.834 61.5 -147.501 106.5s-74.167 97 -97.5 156s-35 121.167 -35 186.5zM147.005 1434l168.004 -0.000976562c16.667 -48 46.167 -85 88.5 -111s94.166 -39 155.499 -39c62.667 0 116.167 13.333 160.5 40s73.5 63.334 87.5 110.001h168
c-5.33301 -45.333 -20.333 -86.833 -45 -124.5s-55.834 -70.5 -93.501 -98.5s-80.334 -49.5 -128.001 -64.5s-96.834 -22.5 -147.501 -22.5c-52 0 -101.167 7.83301 -147.5 23.5s-88 37.167 -125 64.5s-67.667 59.833 -92 97.5s-40.833 79.167 -49.5 124.5zM260.009 465.004
c0 -45.333 7.50195 -87.6641 22.502 -126.997s36.167 -73.833 63.5 -103.5s60.166 -53.334 98.499 -71.001s81.166 -26.5 128.499 -26.5c48 0 91.167 8.83301 129.5 26.5s71.166 41.334 98.499 71.001s48.5 64.167 63.5 103.5s22.5 81.666 22.5 126.999
s-7.5 87.666 -22.5 126.999s-36.167 74 -63.5 104s-60.166 54 -98.499 72s-81.5 27 -129.5 27s-91 -9 -129 -27s-70.667 -42 -98 -72s-48.5 -64.833 -63.5 -104.5s-22.5 -81.834 -22.5 -126.501z" />
    <glyph glyph-name="Gdotaccent" unicode="&#x120;" horiz-adv-x="1712" 
d="M84 711c0 98 16.998 192.832 50.998 284.499s82.5 172.167 145.5 241.5s139.5 124.833 229.5 166.5s191 62.5 303 62.5c82 0 157.833 -11.167 227.5 -33.5s131.167 -53 184.5 -92s96.666 -84.833 129.999 -137.5s54.666 -109 63.999 -169h-188
c-9.33301 36.667 -26 71.167 -50 103.5s-53.833 60.333 -89.5 84s-76.667 42.334 -123 56.001s-96.833 20.5 -151.5 20.5c-84.667 0 -160.5 -16 -227.5 -48s-124 -75.333 -171 -130s-82.833 -117.167 -107.5 -187.5s-37 -143.5 -37 -219.5c0 -74 12 -145.833 36 -215.5
s59.5 -131.5 106.5 -185.5s105.667 -97 176 -129s151.5 -48 243.5 -48c70.667 0 133.334 10 188.001 30s101.834 47 141.501 81s71 74.5 94 121.5s38.833 98.5 47.5 154.5h-338v168h690v-168h-154c-13.333 -82 -38.166 -157 -74.499 -225s-83.166 -126.667 -140.499 -176
s-124.5 -87.333 -201.5 -114s-163.5 -40 -259.5 -40c-121.333 0 -228 20.833 -320 62.5s-169.833 97 -233.5 166s-111.5 148.167 -143.5 237.5s-48 182 -48 278zM675.998 1743c0 39.333 14.001 73 42.001 101s61.667 42 101 42s73.166 -14 101.499 -42
s42.5 -61.667 42.5 -101s-14 -73.166 -42 -101.499s-62 -42.5 -102 -42.5c-39.333 0 -73 14.167 -101 42.5s-42 62.166 -42 101.499z" />
    <glyph glyph-name="gdotaccent" unicode="&#x121;" horiz-adv-x="1218" 
d="M84 465c0 65.333 11.6719 127.671 35.0049 187.004s56.166 111.666 98.499 156.999s91.833 80.833 148.5 106.5s119 38.5 187 38.5c79.333 0 147.666 -17.333 204.999 -52s100.333 -78.667 129 -132v160h176v-989c0 -83.333 -11.667 -154.333 -35 -213
s-56.166 -106.834 -98.499 -144.501s-92.833 -65 -151.5 -82s-123.334 -25.5 -194.001 -25.5c-88.667 0 -163.5 11.833 -224.5 35.5s-110.167 54.667 -147.5 93s-65 81.666 -83 129.999s-29 97.166 -33 146.499h180c2.66699 -32.667 10.167 -64 22.5 -94
s30.166 -56.333 53.499 -79s53.5 -40.834 90.5 -54.501s82.167 -20.5 135.5 -20.5c46.667 0 88.667 5.83301 126 17.5s69.666 29.834 96.999 54.501s48.5 56.5 63.5 95.5s22.5 85.833 22.5 140.5v221c-28.667 -53.333 -71.667 -97.5 -129 -132.5s-126.333 -52.5 -207 -52.5
c-68 0 -130.333 13 -187 39s-105.834 61.5 -147.501 106.5s-74.167 97 -97.5 156s-35 121.167 -35 186.5zM260.005 465.005c0 -45.333 7.50195 -87.6641 22.502 -126.997s36.167 -73.833 63.5 -103.5s60.166 -53.334 98.499 -71.001s81.166 -26.5 128.499 -26.5
c48 0 91.167 8.83301 129.5 26.5s71.166 41.334 98.499 71.001s48.5 64.167 63.5 103.5s22.5 81.666 22.5 126.999s-7.5 87.666 -22.5 126.999s-36.167 74 -63.5 104s-60.166 54 -98.499 72s-81.5 27 -129.5 27s-91 -9 -129 -27s-70.667 -42 -98 -72
s-48.5 -64.833 -63.5 -104.5s-22.5 -81.834 -22.5 -126.501zM408.007 1247.01c0 39.333 14 73.167 42 101.5s61.667 42.5 101 42.5s73 -14 101 -42s42 -62 42 -102c0 -39.333 -14 -73 -42 -101s-61.667 -42 -101 -42s-73 14 -101 42s-42 61.667 -42 101z" />
    <glyph glyph-name="Gcommaaccent" unicode="&#x122;" horiz-adv-x="1712" 
d="M84 711c0 98 16.998 192.832 50.998 284.499s82.5 172.167 145.5 241.5s139.5 124.833 229.5 166.5s191 62.5 303 62.5c82 0 157.833 -11.167 227.5 -33.5s131.167 -53 184.5 -92s96.666 -84.833 129.999 -137.5s54.666 -109 63.999 -169h-188
c-9.33301 36.667 -26 71.167 -50 103.5s-53.833 60.333 -89.5 84s-76.667 42.334 -123 56.001s-96.833 20.5 -151.5 20.5c-84.667 0 -160.5 -16 -227.5 -48s-124 -75.333 -171 -130s-82.833 -117.167 -107.5 -187.5s-37 -143.5 -37 -219.5c0 -74 12 -145.833 36 -215.5
s59.5 -131.5 106.5 -185.5s105.667 -97 176 -129s151.5 -48 243.5 -48c70.667 0 133.334 10 188.001 30s101.834 47 141.501 81s71 74.5 94 121.5s38.833 98.5 47.5 154.5h-338v168h690v-168h-154c-13.333 -82 -38.166 -157 -74.499 -225s-83.166 -126.667 -140.499 -176
s-124.5 -87.333 -201.5 -114s-163.5 -40 -259.5 -40c-121.333 0 -228 20.833 -320 62.5s-169.833 97 -233.5 166s-111.5 148.167 -143.5 237.5s-48 182 -48 278zM701.998 -174.001c0 31.333 11.001 58.333 33.001 81s50.667 34 86 34s66.666 -14 93.999 -42
s41 -74.333 41 -139c0 -78 -21.833 -135.667 -65.5 -173s-103.5 -56 -179.5 -56v74c27.333 0 50.833 3.33301 70.5 10s35.5 19 47.5 37c9.33301 13.333 15.5 25.833 18.5 37.5s5.16699 23.167 6.5 34.5c-8 -8 -22.333 -12.333 -43 -13c-31.333 0 -57.333 11.333 -78 34
s-31 49.667 -31 81z" />
    <glyph glyph-name="gcommaaccent" unicode="&#x123;" horiz-adv-x="1218" 
d="M84 465c0 65.333 11.6719 127.671 35.0049 187.004s56.166 111.666 98.499 156.999s91.833 80.833 148.5 106.5s119 38.5 187 38.5c79.333 0 147.666 -17.333 204.999 -52s100.333 -78.667 129 -132v160h176v-989c0 -83.333 -11.667 -154.333 -35 -213
s-56.166 -106.834 -98.499 -144.501s-92.833 -65 -151.5 -82s-123.334 -25.5 -194.001 -25.5c-88.667 0 -163.5 11.833 -224.5 35.5s-110.167 54.667 -147.5 93s-65 81.666 -83 129.999s-29 97.166 -33 146.499h180c2.66699 -32.667 10.167 -64 22.5 -94
s30.166 -56.333 53.499 -79s53.5 -40.834 90.5 -54.501s82.167 -20.5 135.5 -20.5c46.667 0 88.667 5.83301 126 17.5s69.666 29.834 96.999 54.501s48.5 56.5 63.5 95.5s22.5 85.833 22.5 140.5v221c-28.667 -53.333 -71.667 -97.5 -129 -132.5s-126.333 -52.5 -207 -52.5
c-68 0 -130.333 13 -187 39s-105.834 61.5 -147.501 106.5s-74.167 97 -97.5 156s-35 121.167 -35 186.5zM260.005 465.005c0 -45.333 7.5 -87.6641 22.5 -126.997s36.167 -73.833 63.5 -103.5s60 -53.334 98 -71.001s81 -26.5 129 -26.5s91.167 8.83301 129.5 26.5
s71.166 41.334 98.499 71.001s48.5 64.167 63.5 103.5s22.5 81.666 22.5 126.999s-7.5 87.666 -22.5 126.999s-36.167 74 -63.5 104s-60.166 54 -98.499 72s-81.5 27 -129.5 27s-91 -9 -129 -27s-70.667 -42 -98 -72s-48.5 -64.833 -63.5 -104.5
s-22.5 -81.834 -22.5 -126.501zM393.005 1303.01c0 91.333 25.6689 160.166 77.002 206.499s124 69.5 218 69.5v-86c-46.667 0 -79.5 -7.16699 -98.5 -21.5s-33.167 -28.166 -42.5 -41.499c-10.667 -16.667 -17.834 -30.5 -21.501 -41.5s-6.83398 -25.167 -9.50098 -42.5
c10.667 8 27.667 12 51 12c38 0 69.667 -13 95 -39s38 -58 38 -96s-13.167 -70.833 -39.5 -98.5s-61.5 -41.5 -105.5 -41.5c-48 0 -87 18.833 -117 56.5s-45 92.167 -45 163.5z" />
    <glyph glyph-name="Hcircumflex" unicode="&#x124;" horiz-adv-x="1359" 
d="M160 0v1434h186v-637h668v637h186v-1434h-186v629h-668v-629h-186zM311 1665l369 297l369 -297l-111 -125l-258 207l-256 -205z" />
    <glyph glyph-name="hcircumflex" unicode="&#x125;" 
d="M160 0v1434h178v-668c27.333 57.333 68.666 103 123.999 137s124 51 206 51c60 0 113.167 -10.167 159.5 -30.5s85.166 -51.166 116.499 -92.499c26 -35.333 44.5 -74.833 55.5 -118.5s16.5 -98.167 16.5 -163.5v-549h-178v494c0 42 -4.16699 81.833 -12.5 119.5
s-21.666 69.834 -39.999 96.501s-42.5 47.834 -72.5 63.501s-66.333 23.5 -109 23.5c-45.333 0 -84.666 -9 -117.999 -27s-60.833 -41.667 -82.5 -71s-38 -63 -49 -101s-16.5 -77.667 -16.5 -119v-479h-178zM258 1665l369 297l368 -297l-110 -125l-258 207l-256 -205z" />
    <glyph glyph-name="Hbar" unicode="&#x126;" horiz-adv-x="1359" 
d="M160 0v1434h186v-248h668v248h186v-1434h-186v629h-668v-629h-186zM346 797h668v229h-668v-229z" />
    <glyph glyph-name="hbar" unicode="&#x127;" 
d="M0 1077v159.997h160v197h178v-197h395v-160h-395v-311c27.333 57.333 68.666 103 123.999 137s124 51 206 51c60 0 113.167 -10.167 159.5 -30.5s85.166 -51.166 116.499 -92.499c26 -35.333 44.5 -74.833 55.5 -118.5s16.5 -98.167 16.5 -163.5v-549h-178v494
c0 42 -4.16699 81.833 -12.5 119.5s-21.666 69.834 -39.999 96.501s-42.5 47.834 -72.5 63.501s-66.333 23.5 -109 23.5c-45.333 0 -84.666 -9 -117.999 -27s-60.833 -41.667 -82.5 -71s-38 -63 -49 -101s-16.5 -77.667 -16.5 -119v-479h-178v1077h-160z" />
    <glyph glyph-name="Itilde" unicode="&#x128;" horiz-adv-x="512" 
d="M-111 1745c30 19.333 55.668 33.999 77.001 43.999s40.166 17.833 56.499 23.5s30.666 8.83398 42.999 9.50098s23.833 1 34.5 1c15.333 0 36.333 -2.83301 63 -8.5s54.334 -12.167 83.001 -19.5s57 -13.833 85 -19.5s51.333 -8.5 70 -8.5c13.333 0 30 3.5 50 10.5
s54 22.167 102 45.5l72 -117c-53.333 -39.333 -97.166 -63.166 -131.499 -71.499s-58.833 -12.5 -73.5 -12.5c-22 0 -46.333 2.66699 -73 8s-54 11.833 -82 19.5s-54.667 14.167 -80 19.5s-47.333 8 -66 8c-23.333 0 -46.333 -4.33301 -69 -13
s-50.334 -21.334 -83.001 -38.001zM160.001 -0.000976562v1434h192v-1434h-192z" />
    <glyph glyph-name="itilde" unicode="&#x129;" horiz-adv-x="565" 
d="M-84 1272c30 19.333 55.6689 33.998 77.002 43.998s40.166 17.833 56.499 23.5s30.666 8.83398 42.999 9.50098s23.833 1 34.5 1c15.333 0 36.166 -2.83301 62.499 -8.5s53.833 -12.167 82.5 -19.5s57 -13.833 85 -19.5s51.667 -8.5 71 -8.5c13.333 0 30 3.5 50 10.5
s54 22.167 102 45.5l69 -115c-52 -39.333 -95.333 -63.166 -130 -71.499s-59.667 -12.5 -75 -12.5c-22 0 -46.167 2.66699 -72.5 8s-53.166 11.5 -80.499 18.5s-54 13.167 -80 18.5s-48.667 8 -68 8c-22 0 -44.5 -4 -67.5 -12s-50.167 -20.333 -81.5 -37z
M195.002 -0.00195312v930h176v-930h-176z" />
    <glyph glyph-name="Imacron" unicode="&#x12a;" horiz-adv-x="512" 
d="M-111 1642v158h736v-158h-736zM160 0v1434h192v-1434h-192z" />
    <glyph glyph-name="imacron" unicode="&#x12b;" horiz-adv-x="565" 
d="M-84 1167v160h733v-160h-733zM199 0v930h178v-930h-178z" />
    <glyph glyph-name="Ibreve" unicode="&#x12c;" horiz-adv-x="512" 
d="M-158 1825l168.003 0.000976562c16.667 -48 46.5 -85 89.5 -111s94.5 -39 154.5 -39c64 0 117.833 13.667 161.5 41s72.5 63.666 86.5 108.999h170c-5.33301 -45.333 -20.333 -86.666 -45 -123.999s-55.834 -69.666 -93.501 -96.999s-80.334 -48.5 -128.001 -63.5
s-96.834 -22.5 -147.501 -22.5c-52 0 -101.5 7.5 -148.5 22.5s-89 36.167 -126 63.5s-67.667 59.666 -92 96.999s-40.833 78.666 -49.5 123.999zM160.003 0.000976562v1434h192v-1434h-192z" />
    <glyph glyph-name="ibreve" unicode="&#x12d;" horiz-adv-x="565" 
d="M-131 1434l168.001 -0.000976562c16.667 -48 46 -85 88 -111s94 -39 156 -39c62.667 0 116.167 13.333 160.5 40s73.166 63.334 86.499 110.001h168c-5.33301 -45.333 -20.333 -86.833 -45 -124.5s-55.667 -70.5 -93 -98.5s-80 -49.5 -128 -64.5s-97 -22.5 -147 -22.5
c-52 0 -101.167 7.83301 -147.5 23.5s-88 37.167 -125 64.5s-67.833 59.833 -92.5 97.5s-41 79.167 -49 124.5zM195.001 -0.000976562v930h178v-930h-178z" />
    <glyph glyph-name="Iogonek" unicode="&#x12e;" horiz-adv-x="512" 
d="M-2 -236c0 44 13.332 84.499 39.999 121.499s67.334 75.167 122.001 114.5v1434h192v-1434h-61c-32.667 -23.333 -61.334 -49 -86.001 -77s-37 -61.667 -37 -101c0 -32.667 9.83301 -61 29.5 -85s50.834 -36 93.501 -36c18 0 38.167 2.33301 60.5 7
s43.833 11.334 64.5 20.001v-131c-22 -6.66699 -49 -13.5 -81 -20.5s-65 -10.5 -99 -10.5c-79.333 0 -138.833 19.5 -178.5 58.5s-59.5 85.5 -59.5 139.5z" />
    <glyph glyph-name="iogonek" unicode="&#x12f;" horiz-adv-x="565" 
d="M66 -236c0 44 13.166 84.499 39.499 121.499s67.5 75.167 123.5 114.5v930h177v-930h-48c-32.667 -23.333 -61.167 -49 -85.5 -77s-36.5 -61.667 -36.5 -101c0 -32.667 10.167 -61 30.5 -85s50.833 -36 91.5 -36c18 0 39 2.33301 63 7s45.333 11.334 64 20.001v-131
c-22 -6.66699 -49.333 -13.5 -82 -20.5s-66 -10.5 -100 -10.5c-79.333 0 -138.666 19.5 -177.999 58.5s-59 85.5 -59 139.5zM173.999 1282c0 39.333 14.001 73.333 42.001 102s61.667 43 101 43s73.166 -14.333 101.499 -43s42.5 -62.667 42.5 -102s-14 -72.666 -42 -99.999
s-62 -41 -102 -41c-39.333 0 -73 13.667 -101 41s-42 60.666 -42 99.999z" />
    <glyph glyph-name="Idotaccent" unicode="&#x130;" horiz-adv-x="512" 
d="M113 1743c0 39.333 14 73 42 101s61.667 42 101 42s73 -14 101 -42s42 -61.667 42 -101s-14 -73.166 -42 -101.499s-61.667 -42.5 -101 -42.5s-73 14.167 -101 42.5s-42 62.166 -42 101.499zM160 0v1434h192v-1434h-192z" />
    <glyph glyph-name="dotlessi" unicode="&#x131;" horiz-adv-x="471" 
d="M147 0v930h179v-930h-179z" />
    <glyph glyph-name="IJ" unicode="&#x132;" horiz-adv-x="1609" 
d="M160 0v1434h192v-1434h-192zM541 455l188.001 -0.00195312c0 -96.667 25 -174.167 75 -232.5s118 -87.5 204 -87.5s152.5 29.333 199.5 88s70.5 136 70.5 232v979h188v-979c0 -69.333 -10.5 -134.166 -31.5 -194.499s-51.333 -112 -91 -155
s-87.834 -76.833 -144.501 -101.5s-120.334 -37 -191.001 -37c-72.667 0 -137.667 12.333 -195 37s-106.166 58.834 -146.499 102.501s-71.333 95.167 -93 154.5s-32.5 124 -32.5 194z" />
    <glyph glyph-name="ij" unicode="&#x133;" horiz-adv-x="1126" 
d="M139 1282c0 39.333 13.999 73.333 41.999 102s62 43 102 43c39.333 0 73 -14.333 101 -43s42 -62.667 42 -102s-14 -72.666 -42 -99.999s-61.667 -41 -101 -41s-73.166 13.667 -101.499 41s-42.5 60.666 -42.5 99.999zM194.999 0v930h176v-930h-176zM572.999 -348
c22 -6.66699 39.166 -11.168 51.499 -13.501s23.833 -3.5 34.5 -3.5c32.667 0 57.334 10 74.001 30s25 51.667 25 95v1170h178v-1180c0 -50.667 -5.5 -93.334 -16.5 -128.001s-26 -62.667 -45 -84s-41.5 -36.666 -67.5 -45.999s-54.667 -14 -86 -14
c-23.333 0 -49.333 2.33301 -78 7s-52 10.334 -70 17.001v150zM704.998 1282c0 39.333 13.833 73.333 41.5 102s61.5 43 101.5 43c39.333 0 73 -14.333 101 -43s42 -62.667 42 -102s-14 -72.666 -42 -99.999s-61.667 -41 -101 -41s-73 13.667 -101 41s-42 60.666 -42 99.999
z" />
    <glyph glyph-name="Jcircumflex" unicode="&#x134;" horiz-adv-x="1097" 
d="M29 455l186 -0.00195312c0 -95.333 25.333 -172.5 76 -231.5s119 -88.5 205 -88.5s152.5 29 199.5 87s70.5 135.667 70.5 233v979h186v-979c0 -69.333 -10.5 -134.166 -31.5 -194.499s-51 -112 -90 -155s-86.833 -76.833 -143.5 -101.5s-120.334 -37 -191.001 -37
c-72.667 0 -137.667 12.333 -195 37s-106.166 58.834 -146.499 102.501s-71.333 95.167 -93 154.5s-32.5 124 -32.5 194zM492 1663l368 297l369 -297l-111 -125l-258 209l-256 -207z" />
    <glyph glyph-name="jcircumflex" unicode="&#x135;" horiz-adv-x="561" 
d="M-82 1284l371 297l368 -297l-110 -125l-258 209l-256 -207zM10 -348c20.667 -6.66699 37.502 -11.168 50.502 -13.501s24.833 -3.5 35.5 -3.5c31.333 0 55.666 10 72.999 30s26 51.667 26 95v1170h176v-1180c0 -50.667 -5.5 -93.334 -16.5 -128.001s-26 -62.667 -45 -84
s-41.5 -36.666 -67.5 -45.999s-54.667 -14 -86 -14c-23.333 0 -49.333 2.33301 -78 7s-51.334 10.334 -68.001 17.001v150z" />
    <glyph glyph-name="Kcommaaccent" unicode="&#x136;" horiz-adv-x="1208" 
d="M160 0v1434h186v-652l602 652h236l-656 -717l656 -717h-236l-602 651v-651h-186zM498 -152c0 31.333 10.832 58.335 32.499 81.002s50.167 34 85.5 34c36.667 0 68.5 -14.333 95.5 -43s40.5 -74.334 40.5 -137.001c0 -75.333 -21.167 -132.333 -63.5 -171
s-103.166 -58 -182.499 -58v73c34 0 59.5 4.16699 76.5 12.5s31.167 19.833 42.5 34.5c9.33301 13.333 15.666 26 18.999 38s5 23.333 5 34c-8 -8 -22.333 -12 -43 -12c-31.333 0 -57.166 11.167 -77.499 33.5s-30.5 49.166 -30.5 80.499z" />
    <glyph glyph-name="kcommaaccent" unicode="&#x137;" horiz-adv-x="976" 
d="M160 0v1434h178v-928l389 424h225l-424 -465l424 -465h-225l-389 422v-422h-178zM373 -152c0 31.333 10.8311 58.335 32.498 81.002s50.5 34 86.5 34c36.667 0 68.334 -14.333 95.001 -43s40 -74.334 40 -137.001c0 -75.333 -21.167 -132.333 -63.5 -171
s-103.166 -58 -182.499 -58v73c34 0 59.5 4.16699 76.5 12.5s31.167 19.833 42.5 34.5c9.33301 13.333 15.666 26 18.999 38s5 23.333 5 34c-8 -8 -22.333 -12 -43 -12c-31.333 0 -57.166 11.167 -77.499 33.5s-30.5 49.166 -30.5 80.499z" />
    <glyph glyph-name="kgreenlandic" unicode="&#x138;" horiz-adv-x="976" 
d="M160 0v930h178v-424l389 424h225l-424 -465l424 -465h-225l-389 422v-422h-178z" />
    <glyph glyph-name="Lacute" unicode="&#x139;" horiz-adv-x="870" 
d="M14 1675l510 281l84 -141l-510 -281zM160 0v1434h186v-1266h469v-168h-655z" />
    <glyph glyph-name="lacute" unicode="&#x13a;" horiz-adv-x="497" 
d="M-49 1677l510 281l86 -139l-510 -281zM160 0v1434h178v-1434h-178z" />
    <glyph glyph-name="Lcommaaccent" unicode="&#x13b;" horiz-adv-x="870" 
d="M160 0v1434h186v-1266h469v-168h-655zM332 -152c0 31.333 10.834 58.333 32.501 81s50.5 34 86.5 34c38 0 70 -14.667 96 -44s39 -74.666 39 -135.999c0 -78 -21.833 -135.667 -65.5 -173s-103.834 -56 -180.501 -56v71c35.333 0 61.5 5.16699 78.5 15.5
s30.5 21.5 40.5 33.5c9.33301 13.333 15.666 26 18.999 38s5 23.333 5 34c-8 -8 -22.333 -12 -43 -12c-31.333 0 -57.166 11.167 -77.499 33.5s-30.5 49.166 -30.5 80.499z" />
    <glyph glyph-name="lcommaaccent" unicode="&#x13c;" horiz-adv-x="497" 
d="M125 -152c0 31.333 10.833 58.335 32.5 81.002s50.5 34 86.5 34c18 0 35 -3.33301 51 -10s30.5 -17.167 43.5 -31.5s23.333 -32.833 31 -55.5s11.5 -50.334 11.5 -83.001c0 -76.667 -21.5 -134 -64.5 -172s-103.5 -57 -181.5 -57v73c32.667 0 57.667 4.16699 75 12.5
s31.333 19.833 42 34.5c9.33301 13.333 15.666 26 18.999 38s5 23.333 5 34c-8 -8 -22.333 -12 -43 -12c-31.333 0 -57.166 11.167 -77.499 33.5s-30.5 49.166 -30.5 80.499zM160 0.00195312v1434h178v-1434h-178z" />
    <glyph glyph-name="Lcaron" unicode="&#x13d;" horiz-adv-x="870" 
d="M-78 1837l96 123l232 -215l231 215l99 -123l-330 -297zM160 0v1434h186v-1266h469v-168h-655z" />
    <glyph glyph-name="lcaron" unicode="&#x13e;" horiz-adv-x="753" 
d="M160 0v1434h178v-1434h-178zM446 1356c0 39.333 13.335 72.668 40.002 100.001s62 41 106 41c48 0 87 -18.833 117 -56.5s45 -91.834 45 -162.501c0 -91.333 -25.667 -160.333 -77 -207s-124 -70 -218 -70v86c39.333 0 69.666 5.83301 90.999 17.5s38 26.5 50 44.5
c10.667 15.333 18.167 30 22.5 44s7.16602 28 8.49902 42c-10.667 -8 -27.667 -12 -51 -12c-38 0 -69.833 12.667 -95.5 38s-38.5 57 -38.5 95z" />
    <glyph glyph-name="Ldot" unicode="&#x13f;" horiz-adv-x="870" 
d="M160 0v1434h186v-1266h469v-168h-655zM537 608c0 39.333 13.499 73.167 40.499 101.5s60.5 42.5 100.5 42.5c39.333 0 73.333 -14 102 -42s43 -62 43 -102c0 -39.333 -14.333 -73 -43 -101s-62.667 -42 -102 -42s-72.666 13.667 -99.999 41s-41 61.333 -41 102z" />
    <glyph glyph-name="ldot" unicode="&#x140;" horiz-adv-x="698" 
d="M160 0v1434h178v-1434h-178zM412 639c0 39.333 14 73.333 42 102s61.667 43 101 43s73 -14.333 101 -43s42 -62.667 42 -102s-14 -72.666 -42 -99.999s-61.667 -41 -101 -41s-73 13.667 -101 41s-42 60.666 -42 99.999z" />
    <glyph glyph-name="Lslash" unicode="&#x141;" horiz-adv-x="870" 
d="M59 506v172l101 45v711h186v-633l336 151v-172l-336 -151v-461h469v-168h-655v551z" />
    <glyph glyph-name="lslash" unicode="&#x142;" horiz-adv-x="497" 
d="M4 502v172l156 84v676h192v-574l166 88v-170l-166 -90v-688h-192v586z" />
    <glyph glyph-name="Nacute" unicode="&#x143;" horiz-adv-x="1357" 
d="M160 0v1434h207l645 -1108v1108h186v-1434h-207l-645 1108v-1108h-186zM385 1675l510 281l86 -141l-510 -281z" />
    <glyph glyph-name="nacute" unicode="&#x144;" 
d="M160 0v929.997h178v-164c27.333 57.333 68.666 103 123.999 137s124 51 206 51c60 0 113.167 -10.167 159.5 -30.5s85.166 -51.166 116.499 -92.499c26 -35.333 44.5 -74.833 55.5 -118.5s16.5 -98.167 16.5 -163.5v-549h-178v494c0 42 -4.16699 81.833 -12.5 119.5
s-21.666 69.834 -39.999 96.501s-42.5 47.834 -72.5 63.501s-66.333 23.5 -109 23.5c-45.333 0 -84.666 -9 -117.999 -27s-60.833 -41.667 -82.5 -71s-38 -63 -49 -101s-16.5 -77.667 -16.5 -119v-479h-178zM293 1169l510 281l84 -139l-510 -281z" />
    <glyph glyph-name="Ncommaaccent" unicode="&#x145;" horiz-adv-x="1357" 
d="M160 0v1434h207l645 -1108v1108h186v-1434h-207l-645 1108v-1108h-186zM561 -152c0 31.333 11.0029 58.333 33.0029 81s50.667 34 86 34c38 0 70 -14.667 96 -44s39 -74.666 39 -135.999c0 -78 -21.833 -135.667 -65.5 -173s-103.834 -56 -180.501 -56v71
c35.333 0 61.666 5.16699 78.999 15.5s30.666 21.5 39.999 33.5c9.33301 13.333 15.833 26 19.5 38s5.5 23.333 5.5 34c-8 -8 -22.333 -12 -43 -12c-31.333 0 -57.333 11.167 -78 33.5s-31 49.166 -31 80.499z" />
    <glyph glyph-name="ncommaaccent" unicode="&#x146;" 
d="M160 0v929.997h178v-164c27.333 57.333 68.666 103 123.999 137s124 51 206 51c60 0 113.167 -10.167 159.5 -30.5s85.166 -51.166 116.499 -92.499c26 -35.333 44.5 -74.833 55.5 -118.5s16.5 -98.167 16.5 -163.5v-549h-178v494c0 42 -4.16699 81.833 -12.5 119.5
s-21.666 69.834 -39.999 96.501s-42.5 47.834 -72.5 63.501s-66.333 23.5 -109 23.5c-45.333 0 -84.666 -9 -117.999 -27s-60.833 -41.667 -82.5 -71s-38 -63 -49 -101s-16.5 -77.667 -16.5 -119v-479h-178zM485 -152.003c0 31.333 11.001 58.334 33.001 81.001
s50.667 34 86 34s66.666 -14 93.999 -42s41 -74 41 -138c0 -78 -21.833 -135.667 -65.5 -173s-103.5 -56 -179.5 -56v73c27.333 0 50.833 3.5 70.5 10.5s35.5 19.167 47.5 36.5c9.33301 13.333 15.833 26 19.5 38s5.5 23.333 5.5 34c-8 -8 -22.333 -12 -43 -12
c-31.333 0 -57.333 11.167 -78 33.5s-31 49.166 -31 80.499z" />
    <glyph glyph-name="Ncaron" unicode="&#x147;" horiz-adv-x="1357" 
d="M160 0v1434h207l645 -1108v1108h186v-1434h-207l-645 1108v-1108h-186zM358 1837l97 123l229 -215l234 215l96 -123l-330 -297z" />
    <glyph glyph-name="ncaron" unicode="&#x148;" 
d="M160 0v929.997h178v-164c27.333 57.333 68.666 103 123.999 137s124 51 206 51c60 0 113.167 -10.167 159.5 -30.5s85.166 -51.166 116.499 -92.499c26 -35.333 44.5 -74.833 55.5 -118.5s16.5 -98.167 16.5 -163.5v-549h-178v494c0 42 -4.16699 81.833 -12.5 119.5
s-21.666 69.834 -39.999 96.501s-42.5 47.834 -72.5 63.501s-66.333 23.5 -109 23.5c-45.333 0 -84.666 -9 -117.999 -27s-60.833 -41.667 -82.5 -71s-38 -63 -49 -101s-16.5 -77.667 -16.5 -119v-479h-178zM285 1456l94 125l231 -217l232 217l98 -125l-330 -297z" />
    <glyph glyph-name="napostrophe" unicode="&#x149;" 
d="M137 1378c0 31.333 11.332 58.668 33.999 82.001s51.667 35 87 35s66.333 -14.333 93 -43s40 -74.334 40 -137.001c0 -75.333 -21.167 -132.833 -63.5 -172.5s-103.166 -59.5 -182.499 -59.5v74c27.333 0 51 3.5 71 10.5s36 19.167 48 36.5
c9.33301 13.333 15.833 26 19.5 38s5.5 23.333 5.5 34c-6.66699 -6.66699 -20.334 -10 -41.001 -10c-31.333 0 -57.666 10.833 -78.999 32.5s-32 48.167 -32 79.5zM159.999 0.00195312v929.997h178v-164c27.333 57.333 68.666 103 123.999 137s124 51 206 51
c60 0 113.167 -10.167 159.5 -30.5s85.166 -51.166 116.499 -92.499c26 -35.333 44.5 -74.833 55.5 -118.5s16.5 -98.167 16.5 -163.5v-549h-178v494c0 42 -4.16699 81.833 -12.5 119.5s-21.666 69.834 -39.999 96.501s-42.5 47.834 -72.5 63.501s-66.333 23.5 -109 23.5
c-45.333 0 -84.666 -9 -117.999 -27s-60.833 -41.667 -82.5 -71s-38 -63 -49 -101s-16.5 -77.667 -16.5 -119v-479h-178z" />
    <glyph glyph-name="Eng" unicode="&#x14a;" horiz-adv-x="1357" 
d="M160 0v1434h188l664 -1102v1102h186v-1471c0 -69.333 -10.5 -134.166 -31.5 -194.499s-51.333 -112 -91 -155s-87.5 -76.667 -143.5 -101s-119 -36.5 -189 -36.5c-78 0 -146.167 15 -204.5 45s-109.5 72.333 -153.5 127l123 119c31.333 -36.667 64.833 -66 100.5 -88
s79.167 -33 130.5 -33c86 0 153 28.667 201 86s72 134.333 72 231v35l-666 1110v-1108h-186z" />
    <glyph glyph-name="eng" unicode="&#x14b;" 
d="M160 0l0.00195312 929.998h178v-164c27.333 57.333 68.666 103 123.999 137s124 51 206 51c60 0 113.167 -10.167 159.5 -30.5s85.166 -51.166 116.499 -92.499c26 -35.333 44.5 -74.833 55.5 -118.5s16.5 -98.167 16.5 -163.5v-608c0 -66.667 -10 -128.5 -30 -185.5
s-48.667 -106.333 -86 -148s-83 -74 -137 -97s-114.333 -34.5 -181 -34.5c-75.333 0 -140.333 14 -195 42s-101.667 65 -141 111l114 113c31.333 -32.667 63.166 -58.667 95.499 -78s72.166 -29 119.499 -29c83.333 0 148 27.667 194 83s69 129.666 69 222.999v553
c0 42 -4.16699 81.833 -12.5 119.5s-21.666 69.834 -39.999 96.501s-42.5 47.834 -72.5 63.501s-66.333 23.5 -109 23.5c-45.333 0 -84.666 -9 -117.999 -27s-60.833 -41.667 -82.5 -71s-38 -63 -49 -101s-16.5 -77.667 -16.5 -119v-479h-178z" />
    <glyph glyph-name="Omacron" unicode="&#x14c;" horiz-adv-x="1644" 
d="M84 717c0 96.667 17 190.167 51 280.5s82.833 170.166 146.5 239.499s141.167 124.833 232.5 166.5s194.333 62.5 309 62.5s217.834 -20.833 309.501 -62.5s169.167 -97.167 232.5 -166.5s112.166 -149.166 146.499 -239.499s51.5 -183.833 51.5 -280.5
s-17.167 -190.167 -51.5 -280.5s-83.166 -170.333 -146.499 -240s-140.833 -125.334 -232.5 -167.001s-194.834 -62.5 -309.501 -62.5s-217.667 20.833 -309 62.5s-168.833 97.334 -232.5 167.001s-112.5 149.5 -146.5 239.5s-51 183.667 -51 281zM279 717
c0 -75.333 12.5 -147.833 37.5 -217.5s61.167 -131.5 108.5 -185.5s104.333 -97.333 171 -130s142.334 -49 227.001 -49c83.333 0 158.833 16.333 226.5 49s124.667 76 171 130s82.166 115.833 107.499 185.5s38 142.167 38 217.5s-12.667 148 -38 218
s-61.166 132 -107.499 186s-103.333 97 -171 129s-143.167 48 -226.5 48c-84.667 0 -160.334 -16 -227.001 -48s-123.667 -75 -171 -129s-83.5 -116.167 -108.5 -186.5s-37.5 -142.833 -37.5 -217.5zM457 1642v158h733v-158h-733z" />
    <glyph glyph-name="omacron" unicode="&#x14d;" horiz-adv-x="1146" 
d="M84 465c0 65.333 11.666 127.666 34.999 186.999s56.166 111.666 98.499 156.999s93.833 80.833 154.5 106.5s127.667 38.5 201 38.5c74 0 141 -12.833 201 -38.5s111.5 -61.167 154.5 -106.5s76.167 -97.666 99.5 -156.999s35 -121.666 35 -186.999
s-11.667 -127.5 -35 -186.5s-56.166 -111 -98.499 -156s-93.833 -80.5 -154.5 -106.5s-128 -39 -202 -39c-75.333 0 -142.833 13 -202.5 39s-110.667 61.5 -153 106.5s-75.166 97 -98.499 156s-35 121.167 -35 186.5zM206.999 1167v160h733v-160h-733zM259.999 465
c0 -45.333 7.5 -87.6641 22.5 -126.997s36.167 -73.833 63.5 -103.5s60 -53.334 98 -71.001s81 -26.5 129 -26.5s91.167 8.83301 129.5 26.5s71.166 41.334 98.499 71.001s48.5 64.167 63.5 103.5s22.5 81.666 22.5 126.999s-7.5 87.666 -22.5 126.999s-36.167 74 -63.5 104
s-60.166 54 -98.499 72s-81.5 27 -129.5 27s-91 -9 -129 -27s-70.667 -42 -98 -72s-48.5 -64.833 -63.5 -104.5s-22.5 -81.834 -22.5 -126.501z" />
    <glyph glyph-name="Obreve" unicode="&#x14e;" horiz-adv-x="1644" 
d="M84 717c0 96.667 17 190.167 51 280.5s82.833 170.166 146.5 239.499s141.167 124.833 232.5 166.5s194.333 62.5 309 62.5s217.834 -20.833 309.501 -62.5s169.167 -97.167 232.5 -166.5s112.166 -149.166 146.499 -239.499s51.5 -183.833 51.5 -280.5
s-17.167 -190.167 -51.5 -280.5s-83.166 -170.333 -146.499 -240s-140.833 -125.334 -232.5 -167.001s-194.834 -62.5 -309.501 -62.5s-217.667 20.833 -309 62.5s-168.833 97.334 -232.5 167.001s-112.5 149.5 -146.5 239.5s-51 183.667 -51 281zM279 717
c0 -75.333 12.5 -147.833 37.5 -217.5s61.167 -131.5 108.5 -185.5s104.333 -97.333 171 -130s142.334 -49 227.001 -49c83.333 0 158.833 16.333 226.5 49s124.667 76 171 130s82.166 115.833 107.499 185.5s38 142.167 38 217.5s-12.667 148 -38 218
s-61.166 132 -107.499 186s-103.333 97 -171 129s-143.167 48 -226.5 48c-84.667 0 -160.334 -16 -227.001 -48s-123.667 -75 -171 -129s-83.5 -116.167 -108.5 -186.5s-37.5 -142.833 -37.5 -217.5zM410 1825h165.004c16.667 -48 46.5 -85 89.5 -111s95.167 -39 156.5 -39
c62.667 0 116 13.333 160 40s72.667 63.334 86 110.001h170c-5.33301 -45.333 -20.333 -86.666 -45 -123.999s-55.834 -70 -93.501 -98s-80.334 -49.5 -128.001 -64.5s-96.834 -22.5 -147.501 -22.5c-52 0 -101.167 7.83301 -147.5 23.5s-87.833 37.167 -124.5 64.5
s-67.334 59.666 -92.001 96.999s-41 78.666 -49 123.999z" />
    <glyph glyph-name="obreve" unicode="&#x14f;" horiz-adv-x="1146" 
d="M84 465c0 65.333 11.666 127.666 34.999 186.999s56.166 111.666 98.499 156.999s93.833 80.833 154.5 106.5s127.667 38.5 201 38.5c74 0 141 -12.833 201 -38.5s111.5 -61.167 154.5 -106.5s76.167 -97.666 99.5 -156.999s35 -121.666 35 -186.999
s-11.667 -127.5 -35 -186.5s-56.166 -111 -98.499 -156s-93.833 -80.5 -154.5 -106.5s-128 -39 -202 -39c-75.333 0 -142.833 13 -202.5 39s-110.667 61.5 -153 106.5s-75.166 97 -98.499 156s-35 121.167 -35 186.5zM159.999 1434l168.001 -0.000976562
c15.333 -48 44 -85 86 -111s93.667 -39 155 -39c64 0 118.333 13.333 163 40s73.667 63.334 87 110.001h168c-5.33301 -45.333 -20.333 -86.833 -45 -124.5s-55.667 -70.5 -93 -98.5s-80 -49.5 -128 -64.5s-97.333 -22.5 -148 -22.5c-52 0 -101.167 7.83301 -147.5 23.5
s-87.833 37.167 -124.5 64.5s-67.334 59.833 -92.001 97.5s-41 79.167 -49 124.5zM260 464.999c0 -45.333 7.5 -87.6641 22.5 -126.997s36.167 -73.833 63.5 -103.5s60 -53.334 98 -71.001s81 -26.5 129 -26.5s91.167 8.83301 129.5 26.5s71.166 41.334 98.499 71.001
s48.5 64.167 63.5 103.5s22.5 81.666 22.5 126.999s-7.5 87.666 -22.5 126.999s-36.167 74 -63.5 104s-60.166 54 -98.499 72s-81.5 27 -129.5 27s-91 -9 -129 -27s-70.667 -42 -98 -72s-48.5 -64.833 -63.5 -104.5s-22.5 -81.834 -22.5 -126.501z" />
    <glyph glyph-name="Ohungarumlaut" unicode="&#x150;" horiz-adv-x="1644" 
d="M84 717c0 96.667 17 190.167 51 280.5s82.833 170.166 146.5 239.499s141.167 124.833 232.5 166.5s194.333 62.5 309 62.5s217.834 -20.833 309.501 -62.5s169.167 -97.167 232.5 -166.5s112.166 -149.166 146.499 -239.499s51.5 -183.833 51.5 -280.5
s-17.167 -190.167 -51.5 -280.5s-83.166 -170.333 -146.499 -240s-140.833 -125.334 -232.5 -167.001s-194.834 -62.5 -309.501 -62.5s-217.667 20.833 -309 62.5s-168.833 97.334 -232.5 167.001s-112.5 149.5 -146.5 239.5s-51 183.667 -51 281zM279 717
c0 -75.333 12.5 -147.833 37.5 -217.5s61.167 -131.5 108.5 -185.5s104.333 -97.333 171 -130s142.334 -49 227.001 -49c83.333 0 158.833 16.333 226.5 49s124.667 76 171 130s82.166 115.833 107.499 185.5s38 142.167 38 217.5s-12.667 148 -38 218
s-61.166 132 -107.499 186s-103.333 97 -171 129s-143.167 48 -226.5 48c-84.667 0 -160.334 -16 -227.001 -48s-123.667 -75 -171 -129s-83.5 -116.167 -108.5 -186.5s-37.5 -142.833 -37.5 -217.5zM483 1667l256 340l158 -78l-324 -309zM883 1667l256 340l157 -78
l-323 -311z" />
    <glyph glyph-name="ohungarumlaut" unicode="&#x151;" horiz-adv-x="1146" 
d="M84 465c0 65.333 11.666 127.666 34.999 186.999s56.166 111.666 98.499 156.999s93.833 80.833 154.5 106.5s127.667 38.5 201 38.5c74 0 141 -12.833 201 -38.5s111.5 -61.167 154.5 -106.5s76.167 -97.666 99.5 -156.999s35 -121.666 35 -186.999
s-11.667 -127.5 -35 -186.5s-56.166 -111 -98.499 -156s-93.833 -80.5 -154.5 -106.5s-128 -39 -202 -39c-75.333 0 -142.833 13 -202.5 39s-110.667 61.5 -153 106.5s-75.166 97 -98.499 156s-35 121.167 -35 186.5zM245.999 1137l256 340l157 -80l-323 -310zM259.999 465
c0 -45.333 7.50195 -87.666 22.502 -126.999s36.167 -73.833 63.5 -103.5s60.166 -53.334 98.499 -71.001s81.166 -26.5 128.499 -26.5c48 0 91.167 8.83301 129.5 26.5s71.166 41.334 98.499 71.001s48.5 64.167 63.5 103.5s22.5 81.666 22.5 126.999
s-7.5 87.666 -22.5 126.999s-36.167 74 -63.5 104s-60.166 54 -98.499 72s-81.5 27 -129.5 27s-91 -9 -129 -27s-70.667 -42 -98 -72s-48.5 -64.667 -63.5 -104s-22.5 -81.666 -22.5 -126.999zM645.001 1137l256 340l158 -80l-324 -310z" />
    <glyph glyph-name="OE" unicode="&#x152;" horiz-adv-x="2320" 
d="M84 715c0 96.667 16.999 189.997 50.999 279.997s82.833 169.833 146.5 239.5s140.834 125.334 231.501 167.001s192.667 62.5 306 62.5c124 0 231.833 -24.167 323.5 -72.5s166.834 -111.5 225.501 -189.5v232h803v-168h-617v-469h617v-168h-617v-461h617v-168h-803v225
c-58.667 -78 -133.667 -141.167 -225 -189.5s-199.333 -72.5 -324 -72.5c-113.333 0 -215.333 20.833 -306 62.5s-167.834 97.334 -231.501 167.001s-112.5 149.834 -146.5 240.501s-51 184.667 -51 282zM278.999 714.997c0 -75.333 12.5 -148.164 37.5 -218.497
s61.167 -132.5 108.5 -186.5s104.333 -97 171 -129s142.334 -48 227.001 -48c83.333 0 158.833 16 226.5 48s124.667 75 171 129s82.166 116.167 107.499 186.5s38 143.166 38 218.499s-12.667 147.666 -38 216.999s-61.166 131 -107.499 185s-103.333 97 -171 129
s-143.167 48 -226.5 48c-84.667 0 -160.334 -16 -227.001 -48s-123.667 -75 -171 -129s-83.5 -115.833 -108.5 -185.5s-37.5 -141.834 -37.5 -216.501z" />
    <glyph glyph-name="oe" unicode="&#x153;" horiz-adv-x="1871" 
d="M84 465c0 65.333 11.6689 127.667 35.002 187s56.166 111.666 98.499 156.999s93.5 80.833 153.5 106.5s126.667 38.5 200 38.5c88.667 0 166.5 -18.333 233.5 -55s121.167 -85.667 162.5 -147c38 65.333 89.833 115.333 155.5 150s137.834 52 216.501 52
c62.667 0 120.667 -10.5 174 -31.5s99.5 -50.667 138.5 -89s69.5 -83 91.5 -134s33 -105.833 33 -164.5c0 -13.333 -0.333008 -29.666 -1 -48.999s-3.33398 -42 -8.00098 -68h-700c0 -40.667 5.83301 -78.834 17.5 -114.501s29 -66.5 52 -92.5s52.333 -46.5 88 -61.5
s77.5 -22.5 125.5 -22.5c69.333 0 122.166 14.667 158.499 44s61.833 63.666 76.5 102.999h180c-8 -39.333 -23.167 -76.666 -45.5 -111.999s-51.333 -66.666 -87 -93.999s-77 -49.333 -124 -66s-99.833 -25 -158.5 -25c-91.333 0 -168.833 18.833 -232.5 56.5
s-113.167 86.5 -148.5 146.5c-39.333 -61.333 -92.833 -110.5 -160.5 -147.5s-146.834 -55.5 -237.501 -55.5c-74 0 -140.833 13 -200.5 39s-110.667 61.5 -153 106.5s-75.166 97 -98.499 156s-35 121.167 -35 186.5zM260.002 465.001c0 -45.333 7.5 -87.6631 22.5 -126.996
s36.167 -73.833 63.5 -103.5s60 -53.334 98 -71.001s81 -26.5 129 -26.5c46.667 0 89.167 8.5 127.5 25.5s71.5 40.167 99.5 69.5s49.5 64.166 64.5 104.499s22.5 83.166 22.5 128.499s-7.5 88 -22.5 128s-36.5 75 -64.5 105s-61.5 53.667 -100.5 71s-81.833 26 -128.5 26
c-48 0 -91 -9 -129 -27s-70.333 -42 -97 -72s-47.5 -64.833 -62.5 -104.5s-22.5 -81.834 -22.5 -126.501zM1069 553.004h533c0 76.667 -24.667 137.5 -74 182.5s-113 67.5 -191 67.5c-74 0 -136.5 -21.167 -187.5 -63.5s-77.833 -104.5 -80.5 -186.5z" />
    <glyph glyph-name="Racute" unicode="&#x154;" horiz-adv-x="1241" 
d="M160 0v1434h504c75.333 0 142.833 -13 202.5 -39s111 -61.5 154 -106.5s76.167 -97 99.5 -156s35 -121.167 35 -186.5c0 -52 -7.16699 -102.167 -21.5 -150.5s-35.5 -92.333 -63.5 -132s-61.5 -74.834 -100.5 -105.501s-82.833 -54.334 -131.5 -71.001l301 -487h-213
l-285 457h-295v-457h-186zM324 1675l510 281l84 -141l-510 -281zM346 627.002l318.001 0.000976562c46.667 0 88.667 8.5 126 25.5s69.333 39.833 96 68.5s47.167 62.5 61.5 101.5s21.5 80.167 21.5 123.5c0 42 -7.16699 82.5 -21.5 121.5s-34.833 73.167 -61.5 102.5
s-58.834 52.666 -96.501 69.999s-79.5 26 -125.5 26h-318v-639z" />
    <glyph glyph-name="racute" unicode="&#x155;" horiz-adv-x="747" 
d="M94 1200l510 281l86 -140l-510 -280zM160 0l-0.000976562 930h178v-182c24.667 58.667 65.667 106 123 142s120 54 188 54c34 0 62.667 -4.66699 86 -14v-164c-19.333 4 -34.666 6.66699 -45.999 8s-23.333 2 -36 2c-108 0 -187.5 -33.5 -238.5 -100.5
s-76.5 -156.167 -76.5 -267.5v-408h-178z" />
    <glyph glyph-name="Rcommaaccent" unicode="&#x156;" horiz-adv-x="1241" 
d="M160 0v1434h504c75.333 0 142.833 -13 202.5 -39s111 -61.5 154 -106.5s76.167 -97 99.5 -156s35 -121.167 35 -186.5c0 -52 -7.16699 -102.167 -21.5 -150.5s-35.5 -92.333 -63.5 -132s-61.5 -74.834 -100.5 -105.501s-82.833 -54.334 -131.5 -71.001l301 -487h-213
l-285 457h-295v-457h-186zM346 627.002l318.001 0.000976562c46.667 0 88.667 8.5 126 25.5s69.333 39.833 96 68.5s47.167 62.5 61.5 101.5s21.5 80.167 21.5 123.5c0 42 -7.16699 82.5 -21.5 121.5s-34.833 73.167 -61.5 102.5s-58.834 52.666 -96.501 69.999
s-79.5 26 -125.5 26h-318v-639zM498.001 -151.997c0 31.333 10.833 58.333 32.5 81s50.167 34 85.5 34c38 0 70.167 -14.667 96.5 -44s39.5 -74.666 39.5 -135.999c0 -78 -21.833 -135.667 -65.5 -173s-103.834 -56 -180.501 -56v71c52 0 88.833 10.667 110.5 32
s33.834 45.666 36.501 72.999c0 2.66699 -0.333008 6.33398 -1 11.001s-1.66699 6.33398 -3 5.00098c-4 -2.66699 -8.33301 -5.33398 -13 -8.00098s-14 -4 -28 -4c-31.333 0 -57.5 11.167 -78.5 33.5s-31.5 49.166 -31.5 80.499z" />
    <glyph glyph-name="rcommaaccent" unicode="&#x157;" horiz-adv-x="747" 
d="M125 -152c0 31.333 10.833 58.335 32.5 81.002s50.5 34 86.5 34c18 0 35 -3.33301 51 -10s30.5 -17.167 43.5 -31.5s23.333 -32.833 31 -55.5s11.5 -50.334 11.5 -83.001c0 -76.667 -21.5 -134 -64.5 -172s-103.5 -57 -181.5 -57v73c32.667 0 57.667 4.16699 75 12.5
s31.333 19.833 42 34.5c9.33301 13.333 15.666 26 18.999 38s5 23.333 5 34c-8 -8 -22.333 -12 -43 -12c-31.333 0 -57.166 11.167 -77.499 33.5s-30.5 49.166 -30.5 80.499zM160 0.00195312l-0.000976562 930h178v-182c24.667 58.667 65.667 106 123 142s120 54 188 54
c34 0 62.667 -4.66699 86 -14v-164c-19.333 4 -34.666 6.66699 -45.999 8s-23.333 2 -36 2c-108 0 -187.5 -33.5 -238.5 -100.5s-76.5 -156.167 -76.5 -267.5v-408h-178z" />
    <glyph glyph-name="Rcaron" unicode="&#x158;" horiz-adv-x="1241" 
d="M160 0v1434h504c75.333 0 142.833 -13 202.5 -39s111 -61.5 154 -106.5s76.167 -97 99.5 -156s35 -121.167 35 -186.5c0 -52 -7.16699 -102.167 -21.5 -150.5s-35.5 -92.333 -63.5 -132s-61.5 -74.834 -100.5 -105.501s-82.833 -54.334 -131.5 -71.001l301 -487h-213
l-285 457h-295v-457h-186zM260 1839l96 125l230 -215l233 215l96 -125l-329 -297zM346 627.002l318.001 0.000976562c46.667 0 88.667 8.5 126 25.5s69.333 39.833 96 68.5s47.167 62.5 61.5 101.5s21.5 80.167 21.5 123.5c0 42 -7.16699 82.5 -21.5 121.5
s-34.833 73.167 -61.5 102.5s-58.834 52.666 -96.501 69.999s-79.5 26 -125.5 26h-318v-639z" />
    <glyph glyph-name="rcaron" unicode="&#x159;" horiz-adv-x="747" 
d="M57 1458l97 123l229 -215l233 215l97 -123l-330 -297zM160 0l-0.000976562 930h178v-182c24.667 58.667 65.667 106 123 142s120 54 188 54c34 0 62.667 -4.66699 86 -14v-164c-19.333 4 -34.666 6.66699 -45.999 8s-23.333 2 -36 2c-108 0 -187.5 -33.5 -238.5 -100.5
s-76.5 -156.167 -76.5 -267.5v-408h-178z" />
    <glyph glyph-name="Sacute" unicode="&#x15a;" horiz-adv-x="1169" 
d="M92 457l187.003 0.000976562c0 -98 29.333 -176.167 88 -234.5s137 -87.5 235 -87.5c83.333 0 151.666 21.5 204.999 64.5s80 103.5 80 181.5c0 42 -8.16699 77 -24.5 105s-37.166 51.667 -62.499 71s-54.333 35.166 -87 47.499s-65.667 23.833 -99 34.5
c-61.333 19.333 -120.666 39.833 -177.999 61.5s-107.5 48.167 -150.5 79.5s-77.5 70 -103.5 116s-39 103 -39 171c0 64 11.667 121 35 171s54.833 91.667 94.5 125s86.5 58.833 140.5 76.5s111 26.5 171 26.5c66.667 0 128 -10.5 184 -31.5s104.167 -50.667 144.5 -89
s71.666 -84.5 93.999 -138.5s33.5 -113.667 33.5 -179h-186c-2.66699 86 -27.167 152.5 -73.5 199.5s-111.166 70.5 -194.499 70.5c-75.333 0 -136.833 -19 -184.5 -57s-71.5 -92 -71.5 -162c0 -36.667 7.16699 -68 21.5 -94s33.666 -48.167 57.999 -66.5
s52.666 -34 84.999 -47s66.166 -24.833 101.499 -35.5c58.667 -19.333 116.667 -40 174 -62s108.5 -49.333 153.5 -82s81.167 -72.834 108.5 -120.501s41 -107.167 41 -178.5c0 -66.667 -12.667 -126.334 -38 -179.001s-59.5 -97.334 -102.5 -134.001
s-93.5 -64.667 -151.5 -84s-120.333 -29 -187 -29c-72.667 0 -139.334 11.333 -200.001 34s-113.5 54.834 -158.5 96.501s-80.167 92.834 -105.5 153.501s-38 129.334 -38 206.001zM293.003 1675l510 281l84 -141l-510 -281z" />
    <glyph glyph-name="sacute" unicode="&#x15b;" horiz-adv-x="925" 
d="M82 313h174.004c0 -70.667 20.833 -120.667 62.5 -150s94.5 -44 158.5 -44c56 0 100.833 10.5 134.5 31.5s50.5 54.167 50.5 99.5c0 24.667 -5.5 44.5 -16.5 59.5s-28.5 28.333 -52.5 40s-54.833 22.834 -92.5 33.501s-82.167 25 -133.5 43
c-34 10.667 -66.167 22.5 -96.5 35.5s-57 29.5 -80 49.5s-41.333 43.667 -55 71s-20.5 60.666 -20.5 99.999c0 46.667 9.16699 87 27.5 121s43.166 62.333 74.499 85s67.166 39.334 107.499 50.001s83.166 16 128.499 16c53.333 0 102.5 -7.5 147.5 -22.5
s83.833 -36.5 116.5 -64.5s58.167 -61 76.5 -99s27.5 -80.333 27.5 -127h-172c0 54.667 -16 96.667 -48 126s-78.667 44 -140 44c-50.667 0 -92.334 -10.5 -125.001 -31.5s-49 -52.167 -49 -93.5c0 -23.333 5.83301 -42.5 17.5 -57.5s29 -28 52 -39s50.833 -21.333 83.5 -31
l115 -34.5c32.667 -10.667 65.834 -22.5 99.501 -35.5s63.334 -29.333 89.001 -49s46.667 -44.167 63 -73.5s24.5 -66 24.5 -110c0 -46.667 -9.16699 -87.334 -27.5 -122.001s-43.5 -63.667 -75.5 -87s-69.833 -40.833 -113.5 -52.5s-90.167 -17.5 -139.5 -17.5
c-54.667 0 -105.834 6.83301 -153.501 20.5s-89.334 34.5 -125.001 62.5s-63.667 63.167 -84 105.5s-30.5 91.5 -30.5 147.5zM166.004 1169l510 281l84 -139l-510 -281z" />
    <glyph glyph-name="Scircumflex" unicode="&#x15c;" horiz-adv-x="1169" 
d="M92 457l187.003 0.000976562c0 -98 29.333 -176.167 88 -234.5s137 -87.5 235 -87.5c83.333 0 151.666 21.5 204.999 64.5s80 103.5 80 181.5c0 42 -8.16699 77 -24.5 105s-37.166 51.667 -62.499 71s-54.333 35.166 -87 47.499s-65.667 23.833 -99 34.5
c-61.333 19.333 -120.666 39.833 -177.999 61.5s-107.5 48.167 -150.5 79.5s-77.5 70 -103.5 116s-39 103 -39 171c0 64 11.667 121 35 171s54.833 91.667 94.5 125s86.5 58.833 140.5 76.5s111 26.5 171 26.5c66.667 0 128 -10.5 184 -31.5s104.167 -50.667 144.5 -89
s71.666 -84.5 93.999 -138.5s33.5 -113.667 33.5 -179h-186c-2.66699 86 -27.167 152.5 -73.5 199.5s-111.166 70.5 -194.499 70.5c-75.333 0 -136.833 -19 -184.5 -57s-71.5 -92 -71.5 -162c0 -36.667 7.16699 -68 21.5 -94s33.666 -48.167 57.999 -66.5
s52.666 -34 84.999 -47s66.166 -24.833 101.499 -35.5c58.667 -19.333 116.667 -40 174 -62s108.5 -49.333 153.5 -82s81.167 -72.834 108.5 -120.501s41 -107.167 41 -178.5c0 -66.667 -12.667 -126.334 -38 -179.001s-59.5 -97.334 -102.5 -134.001
s-93.5 -64.667 -151.5 -84s-120.333 -29 -187 -29c-72.667 0 -139.334 11.333 -200.001 34s-113.5 54.834 -158.5 96.501s-80.167 92.834 -105.5 153.501s-38 129.334 -38 206.001zM223.003 1665l369 297l369 -297l-111 -125l-258 207l-256 -205z" />
    <glyph glyph-name="scircumflex" unicode="&#x15d;" horiz-adv-x="925" 
d="M82 313h174.004c0 -70.667 20.833 -120.667 62.5 -150s94.5 -44 158.5 -44c56 0 100.833 10.5 134.5 31.5s50.5 54.167 50.5 99.5c0 24.667 -5.5 44.5 -16.5 59.5s-28.5 28.333 -52.5 40s-54.833 22.834 -92.5 33.501s-82.167 25 -133.5 43
c-34 10.667 -66.167 22.5 -96.5 35.5s-57 29.5 -80 49.5s-41.333 43.667 -55 71s-20.5 60.666 -20.5 99.999c0 46.667 9.16699 87 27.5 121s43.166 62.333 74.499 85s67.166 39.334 107.499 50.001s83.166 16 128.499 16c53.333 0 102.5 -7.5 147.5 -22.5
s83.833 -36.5 116.5 -64.5s58.167 -61 76.5 -99s27.5 -80.333 27.5 -127h-172c0 54.667 -16 96.667 -48 126s-78.667 44 -140 44c-50.667 0 -92.334 -10.5 -125.001 -31.5s-49 -52.167 -49 -93.5c0 -23.333 5.83301 -42.5 17.5 -57.5s29 -28 52 -39s50.833 -21.333 83.5 -31
l115 -34.5c32.667 -10.667 65.834 -22.5 99.501 -35.5s63.334 -29.333 89.001 -49s46.667 -44.167 63 -73.5s24.5 -66 24.5 -110c0 -46.667 -9.16699 -87.334 -27.5 -122.001s-43.5 -63.667 -75.5 -87s-69.833 -40.833 -113.5 -52.5s-90.167 -17.5 -139.5 -17.5
c-54.667 0 -105.834 6.83301 -153.501 20.5s-89.334 34.5 -125.001 62.5s-63.667 63.167 -84 105.5s-30.5 91.5 -30.5 147.5zM92.0039 1198l369 297l368 -297l-110 -125l-258 207l-256 -207z" />
    <glyph glyph-name="Scedilla" unicode="&#x15e;" horiz-adv-x="1169" 
d="M92 457l187.004 0.00390625c0 -98 29.333 -176.167 88 -234.5s137 -87.5 235 -87.5c83.333 0 151.666 21.5 204.999 64.5s80 103.5 80 181.5c0 42 -8.5 77.333 -25.5 106s-38.833 53 -65.5 73s-56.834 35.833 -90.501 47.5l-99.5 33.5
c-62.667 19.333 -122 40.166 -178 62.499s-105.167 49.166 -147.5 80.499s-75.833 70 -100.5 116s-37 101.667 -37 167c0 62.667 11.333 119 34 169s53.834 92 93.501 126s86.5 59.833 140.5 77.5s111.667 26.5 173 26.5c66.667 0 127.667 -10.167 183 -30.5
s103.166 -49.333 143.499 -87s71.666 -83.834 93.999 -138.501s34.166 -115.334 35.499 -182.001h-186c-2.66699 86 -27.167 152.5 -73.5 199.5s-111.166 70.5 -194.499 70.5c-75.333 0 -136.833 -19 -184.5 -57s-71.5 -91.333 -71.5 -160c0 -38 7.5 -70.333 22.5 -97
s34.833 -49.167 59.5 -67.5s53 -34 85 -47s65 -24.833 99 -35.5c60 -19.333 118.667 -40.333 176 -63s108.166 -50.334 152.499 -83.001s80.166 -72.5 107.499 -119.5s41 -106.167 41 -177.5c0 -60 -10.5 -114.833 -31.5 -164.5s-50.333 -92.667 -88 -129
s-83.5 -65.5 -137.5 -87.5s-113.667 -35.667 -179 -41v-114c19.333 27.333 48.666 41 87.999 41c20.667 0 41.167 -4.16699 61.5 -12.5s38.666 -20.333 54.999 -36s29.333 -34.5 39 -56.5s14.5 -46 14.5 -72s-4.83301 -50.833 -14.5 -74.5s-23 -44.667 -40 -63
s-37.5 -33 -61.5 -44s-51 -16.5 -81 -16.5c-15.333 0 -33.833 2 -55.5 6s-43 12.5 -64 25.5s-39.667 31.167 -56 54.5s-27.5 54 -33.5 92h109c4 -24.667 13.833 -44.5 29.5 -59.5s36.5 -22.5 62.5 -22.5c28.667 0 51.834 9.16699 69.501 27.5s26.5 41.833 26.5 70.5
c0 30 -8.83301 53.333 -26.5 70s-40.167 25 -67.5 25c-15.333 0 -29.666 -3.5 -42.999 -10.5s-25.666 -20.833 -36.999 -41.5h-94v213c-61.333 6.66699 -118 22.667 -170 48s-96.667 58.833 -134 100.5s-67 90.834 -89 147.501s-33 120 -33 190z" />
    <glyph glyph-name="scedilla" unicode="&#x15f;" horiz-adv-x="925" 
d="M82 313l173.997 -0.000976562c0 -70.667 20.833 -120.667 62.5 -150s94.5 -44 158.5 -44c56 0 100.833 10.5 134.5 31.5s50.5 54.167 50.5 99.5c0 24.667 -5.5 44.5 -16.5 59.5s-28.5 28.333 -52.5 40s-54.833 22.834 -92.5 33.501s-82.167 25 -133.5 43
c-34 10.667 -66.167 22.5 -96.5 35.5s-57 29.5 -80 49.5s-41.333 43.667 -55 71s-20.5 60.666 -20.5 99.999c0 46.667 9.16699 87 27.5 121s43.166 62.333 74.499 85s67.166 39.334 107.499 50.001s83.166 16 128.499 16c53.333 0 102.5 -7.5 147.5 -22.5
s83.833 -36.5 116.5 -64.5s58.167 -61 76.5 -99s27.5 -80.333 27.5 -127h-172c0 54.667 -16 96.667 -48 126s-78.667 44 -140 44c-50.667 0 -92.334 -10.5 -125.001 -31.5s-49 -52.167 -49 -93.5c0 -23.333 5.83301 -42.5 17.5 -57.5s29 -28 52 -39
s50.833 -21.167 83.5 -30.5s71 -21 115 -35c32.667 -10.667 65.834 -22.5 99.501 -35.5s63.334 -29.333 89.001 -49s46.667 -44.167 63 -73.5s24.5 -66 24.5 -110c0 -45.333 -8.16699 -84.666 -24.5 -117.999s-39.166 -61.333 -68.499 -84s-63.833 -40.334 -103.5 -53.001
s-82.5 -19.667 -128.5 -21v-123c4 5.33301 8.66699 10 14 14c4 5.33301 10.333 9.33301 19 12l2 2l18 6c1.33301 0 2.33301 0.5 3 1.5s1.66699 1.5 3 1.5h4c2.66699 1.33301 7.66699 2 15 2h12c24.667 0 46.667 -5 66 -15l18 -8l4 -4
c9.33301 -6.66699 18.333 -13.667 27 -21c2.66699 0 4 -1.33301 4 -4l16 -20c2.66699 -2.66699 4 -4.66699 4 -6c4 -5.33301 9 -13.666 15 -24.999c2.66699 -4 4.33398 -8.33301 5.00098 -13s1.66699 -9 3 -13c2.66699 -6.66699 4 -13.167 4 -19.5s0.666992 -12.833 2 -19.5
v-9c0 -9.33301 -0.666992 -16.666 -2 -21.999v-8c-1.33301 -6.66699 -2.66602 -12.834 -3.99902 -18.501s-3.33301 -11.834 -6 -18.501c-2.66699 -8 -5.83398 -15.833 -9.50098 -23.5s-8.16699 -14.834 -13.5 -21.501c-8 -15.333 -19.667 -29 -35 -41l-6 -4
c-2.66699 -2.66699 -5.66699 -4.66699 -9 -6s-6.33301 -3.66602 -9 -6.99902c-2.66699 -2.66699 -7 -5.33398 -13 -8.00098c-5.33301 -2.66699 -10.333 -4.66699 -15 -6s-9.66699 -3.33301 -15 -6c-4 -1.33301 -7.83301 -2.33301 -11.5 -3s-7.5 -1 -11.5 -1
c-6.66699 -1.33301 -12.334 -2.33301 -17.001 -3s-10.667 -1 -18 -1h-16c-1.33301 0 -2.66602 0.333008 -3.99902 1s-3.33301 1 -6 1c-6.66699 0 -17 1.33301 -31 4l-12 4c-2.66699 0 -7 1.33301 -13 4c-4 0 -8.66699 1.33301 -14 4c-16.667 6.66699 -31 15.667 -43 27
c-2.66699 1.33301 -6.66699 4.66602 -12 9.99902c-15.333 12 -27.666 27 -36.999 45c-5.33301 10.667 -8.66602 19.667 -9.99902 27c-5.33301 13.333 -9.66602 30.333 -12.999 51h109c1.33301 -6.66699 4.66602 -17 9.99902 -31c0 -1.33301 0.333008 -2.33301 1 -3
s1 -1.66699 1 -3l6 -8c1.33301 -2.66699 5 -6.66699 11 -12l6 -7c1.33301 0 3.33301 -1.33301 6 -4l10 -6c8 -2.66699 13.667 -4 17 -4c1.33301 -1.33301 3.33301 -2 6 -2c2.66699 -1.33301 6 -2 10 -2h8c6.66699 0 12 0.666992 16 2c2.66699 0 4.83398 0.333008 6.50098 1
s3.83398 1 6.50098 1c1.33301 1.33301 3.33301 2 6 2c1.33301 0 2 0.333008 2 1s0.666992 1 2 1s4.66602 1.33301 9.99902 4c4 2.66699 8.5 6.16699 13.5 10.5s8.83301 8.5 11.5 12.5c4 4 8.66699 11.333 14 22c0 1.33301 1.33301 5 4 11c0 4 0.666992 6.66699 2 8
c1.33301 4 2 11.333 2 22v9c-1.33301 6.66699 -2.33301 12.667 -3 18s-2.33398 10.666 -5.00098 15.999c-6.66699 12 -14.667 22.333 -24 31c-2.66699 2.66699 -4.33398 4 -5.00098 4c-2.66699 2.66699 -6.66699 5.33398 -12 8.00098c-2.66699 1.33301 -4.66699 2 -6 2
s-2.66602 0.666992 -3.99902 2c-4 0 -6.66699 0.666992 -8 2h-4c-4 1.33301 -11.667 2.33301 -23 3c-10.667 0 -18 -1 -22 -3h-4c-8 -1.33301 -15.667 -4.66602 -23 -9.99902l-4 -2l-14 -14l-5 -8c-1.33301 0 -2 -0.666992 -2 -2l-6 -13h-92v226
c-44 6.66699 -84.667 18.5 -122 35.5s-69.666 39.167 -96.999 66.5s-48.833 59.833 -64.5 97.5s-23.5 80.834 -23.5 129.501z" />
    <glyph glyph-name="Scaron" unicode="&#x160;" horiz-adv-x="1169" 
d="M92 457l187.003 0.000976562c0 -98 29.333 -176.167 88 -234.5s137 -87.5 235 -87.5c83.333 0 151.666 21.5 204.999 64.5s80 103.5 80 181.5c0 42 -8.16699 77 -24.5 105s-37.166 51.667 -62.499 71s-54.333 35.166 -87 47.499s-65.667 23.833 -99 34.5
c-60 19.333 -118 39.5 -174 60.5s-106.167 47.167 -150.5 78.5s-79.833 70 -106.5 116s-40 103.667 -40 173c0 64 12 121 36 171s56.167 91.667 96.5 125s87.5 58.833 141.5 76.5s111 26.5 171 26.5c66.667 0 127.667 -10.5 183 -31.5s102.833 -50.667 142.5 -89
s70.667 -84.5 93 -138.5s33.5 -113.667 33.5 -179h-186c-2.66699 86 -27.167 152.5 -73.5 199.5s-111.166 70.5 -194.499 70.5c-75.333 0 -136.833 -19 -184.5 -57s-71.5 -92 -71.5 -162c0 -36.667 7.16699 -68 21.5 -94s33.666 -48.167 57.999 -66.5s52.666 -34 84.999 -47
s66.166 -24.833 101.499 -35.5c58.667 -19.333 116.667 -40 174 -62s108.5 -49.333 153.5 -82s81.167 -72.834 108.5 -120.501s41 -107.167 41 -178.5c0 -66.667 -12.667 -126.334 -38 -179.001s-59.5 -97.334 -102.5 -134.001s-93.5 -64.667 -151.5 -84
s-120.333 -29 -187 -29c-72.667 0 -139.334 11.333 -200.001 34s-113.5 54.834 -158.5 96.501s-80.167 92.834 -105.5 153.501s-38 129.334 -38 206.001zM268.003 1862l97 125l229 -215l233 215l97 -125l-330 -297z" />
    <glyph glyph-name="scaron" unicode="&#x161;" horiz-adv-x="925" 
d="M82 313h174.004c0 -70.667 20.833 -120.667 62.5 -150s94.5 -44 158.5 -44c56 0 100.833 10.5 134.5 31.5s50.5 54.167 50.5 99.5c0 24.667 -5.5 44.5 -16.5 59.5s-28.5 28.333 -52.5 40s-54.833 22.834 -92.5 33.501s-82.167 25 -133.5 43
c-34 10.667 -66.167 22.5 -96.5 35.5s-57 29.5 -80 49.5s-41.333 43.667 -55 71s-20.5 60.666 -20.5 99.999c0 46.667 9.16699 87 27.5 121s43.166 62.333 74.499 85s67.166 39.334 107.499 50.001s83.166 16 128.499 16c53.333 0 102.5 -7.5 147.5 -22.5
s83.833 -36.5 116.5 -64.5s58.167 -61 76.5 -99s27.5 -80.333 27.5 -127h-172c0 54.667 -16 96.667 -48 126s-78.667 44 -140 44c-50.667 0 -92.334 -10.5 -125.001 -31.5s-49 -52.167 -49 -93.5c0 -23.333 5.83301 -42.5 17.5 -57.5s29 -28 52 -39s50.833 -21.333 83.5 -31
l115 -34.5c32.667 -10.667 65.834 -22.5 99.501 -35.5s63.334 -29.333 89.001 -49s46.667 -44.167 63 -73.5s24.5 -66 24.5 -110c0 -46.667 -9.16699 -87.334 -27.5 -122.001s-43.5 -63.667 -75.5 -87s-69.833 -40.833 -113.5 -52.5s-90.167 -17.5 -139.5 -17.5
c-54.667 0 -105.834 6.83301 -153.501 20.5s-89.334 34.5 -125.001 62.5s-63.667 63.167 -84 105.5s-30.5 91.5 -30.5 147.5zM137.004 1358l96 123l230 -215l231 215l99 -123l-330 -297z" />
    <glyph glyph-name="Tcommaaccent" unicode="&#x162;" horiz-adv-x="978" 
d="M25 1266v168h929v-168h-372v-1266h-187v1266h-370zM373 -152c0 31.333 10.835 58.334 32.502 81.001s50.5 34 86.5 34c39.333 0 71.666 -15.333 96.999 -46s38 -76 38 -136c0 -78 -21.833 -135.333 -65.5 -172s-103.834 -55 -180.501 -55v71
c50.667 0 87.167 10.667 109.5 32s34.833 45.666 37.5 72.999c0 2.66699 -0.333008 6.33398 -1 11.001s-1.66699 6.33398 -3 5.00098c-4 -2.66699 -8.66699 -5.33398 -14 -8.00098s-14.333 -4 -27 -4c-31.333 0 -57.5 11.167 -78.5 33.5s-31.5 49.166 -31.5 80.499z" />
    <glyph glyph-name="tcommaaccent" unicode="&#x163;" horiz-adv-x="696" 
d="M41 780v150h172v313h178v-313h242v-150h-242v-428c0 -45.333 3.83301 -81.166 11.5 -107.499s18.334 -46.666 32.001 -60.999s29.667 -23.5 48 -27.5s39.166 -6 62.499 -6c19.333 0 40.833 0.666992 64.5 2s42.5 3.33301 56.5 6v-158
c-18 -2.66699 -41.667 -5.33398 -71 -8.00098s-59.666 -4 -90.999 -4c-28.667 0 -59.834 2.66699 -93.501 8s-65.167 18.666 -94.5 39.999s-53.833 53.833 -73.5 97.5s-29.5 103.5 -29.5 179.5v467h-172zM221 -152c0 31.333 11.002 58.334 33.002 81.001s50.667 34 86 34
s66.666 -14 93.999 -42s41 -74 41 -138c0 -78 -21.833 -135.667 -65.5 -173s-103.834 -56 -180.501 -56v73c27.333 0 51 3.5 71 10.5s36 19.167 48 36.5c9.33301 13.333 15.833 26 19.5 38s5.5 23.333 5.5 34c-8 -8 -22.333 -12 -43 -12c-31.333 0 -57.333 11.167 -78 33.5
s-31 49.166 -31 80.499z" />
    <glyph glyph-name="Tcaron" unicode="&#x164;" horiz-adv-x="978" 
d="M25 1266v168h929v-168h-372v-1266h-187v1266h-370zM162 1839l96 125l229 -215l232 215l98 -125l-330 -297z" />
    </font>
</defs>
</svg>
